<ttFont>
        <CharString name=".notdef">
          273 0 50 1700 50 hstem
          100 50 1100 50 vstem
          100 hmoveto
          1200 1800 -1200 hlineto
          50 -50 rmoveto
          1100 -1700 -1100 hlineto
          endchar
        </CharString>
        <CharString name=".null">
          endchar
        </CharString>
        <CharString name="A">
          268 21 -21 385 155 920 -20 hstem
          40 1295 vstem
          245 hmoveto
          134 385 rlineto
          615 hlineto
          136 -385 rlineto
          205 hlineto
          -35 80 -38 89 -67 186 -400 1105 rcurveline
          -215 hlineto
          -400 -1105 -68 -187 -36 -87 -36 -81 rlinecurve
          900 540 rmoveto
          -507 hlineto
          252 725 rlineto
          endchar
        </CharString>
        <CharString name="AE">
          678 0 165 220 155 145 160 450 165 hstem
          920 190 vstem
          1580 685 rmoveto
          160 -470 450 545 165 -845 vlineto
          -515 -1061 -69 -142 -56 -109 -90 -148 rlinecurve
          200 hlineto
          190 385 rlineto
          449 hlineto
          -2 -263 -4 -76 -8 -46 rrcurveto
          780 180 hlineto
          -14 -80 -134 -1 -197 hhcurveto
          -164 520 hlineto
          -190 610 rmoveto
          -334 0 -241 -1 -180 vhcurveto
          -372 hlineto
          endchar
        </CharString>
        <CharString name="AEacute">
          678 0 165 220 155 145 160 450 165 570 -20 hstemhm
          835 580 -495 190 hintmask 11110010
          1580 685 rmoveto
          160 -470 450 545 165 -845 vlineto
          -515 -1061 -69 -142 -56 -109 -90 -148 rlinecurve
          200 hlineto
          190 385 rlineto
          449 hlineto
          -2 -263 -4 -76 -8 -46 rrcurveto
          780 180 hlineto
          -14 -80 -134 -1 -197 hhcurveto
          -164 520 hlineto
          -190 610 rmoveto
          -334 0 -241 -1 -180 vhcurveto
          -372 hlineto
          hintmask 00001100
          638 1490 rmoveto
          -350 -430 rlineto
          160 hlineto
          420 430 rlineto
          endchar
        </CharString>
        <CharString name="Aacute">
          268 21 -21 385 155 920 -20 590 -20 hstemhm
          40 1295 -828 580 hintmask 11101000
          245 hmoveto
          134 385 rlineto
          615 hlineto
          136 -385 rlineto
          205 hlineto
          -35 80 -38 89 -67 186 -400 1105 rcurveline
          -215 hlineto
          -400 -1105 -68 -187 -36 -87 -36 -81 rlinecurve
          900 540 rmoveto
          -507 hlineto
          252 725 rlineto
          hintmask 00010100
          172 765 rmoveto
          -350 -430 rlineto
          160 hlineto
          420 430 rlineto
          endchar
        </CharString>
        <CharString name="Abreve">
          268 21 -21 385 155 920 -20 140 150 hstemhm
          40 1295 -1023 750 hintmask 11101000
          245 hmoveto
          134 385 rlineto
          615 hlineto
          136 -385 rlineto
          205 hlineto
          -35 80 -38 89 -67 186 -400 1105 rcurveline
          -215 hlineto
          -400 -1105 -68 -187 -36 -87 -36 -81 rlinecurve
          900 540 rmoveto
          -507 hlineto
          252 725 rlineto
          hintmask 00010100
          377 715 rmoveto
          -122 hlineto
          -135 -20 -102 -115 -131 hhcurveto
          -130 -109 115 135 -16 hvcurveto
          -120 hlineto
          -194 140 -206 235 233 142 206 194 vhcurveto
          endchar
        </CharString>
        <CharString name="Acircumflex">
          268 21 -21 385 155 920 -20 590 -20 hstemhm
          40 1295 -1073 850 hintmask 11101000
          245 hmoveto
          134 385 rlineto
          615 hlineto
          136 -385 rlineto
          205 hlineto
          -35 80 -38 89 -67 186 -400 1105 rcurveline
          -215 hlineto
          -400 -1105 -68 -187 -36 -87 -36 -81 rlinecurve
          900 540 rmoveto
          -507 hlineto
          252 725 rlineto
          hintmask 00000000
          -273 335 rmoveto
          hintmask 00010100
          275 280 275 -280 rlineto
          150 hlineto
          -340 430 rlineto
          -170 hlineto
          -340 -430 rlineto
          endchar
        </CharString>
        <CharString name="Adieresis">
          268 21 -21 385 155 920 -20 200 270 hstemhm
          40 1295 -988 260 160 260 hintmask 11101000
          245 hmoveto
          134 385 rlineto
          615 hlineto
          136 -385 rlineto
          205 hlineto
          -35 80 -38 89 -67 186 -400 1105 rcurveline
          -215 hlineto
          -400 -1105 -68 -187 -36 -87 -36 -81 rlinecurve
          900 540 rmoveto
          -507 hlineto
          252 725 rlineto
          hintmask 00010110
          82 510 rmoveto
          -74 56 -61 74 75 55 61 74 74 -55 61 -75 -74 -56 -61 -74 vhcurveto
          -420 hmoveto
          -74 56 -61 74 75 55 61 74 74 -55 61 -75 -74 -56 -61 -74 vhcurveto
          endchar
        </CharString>
        <CharString name="Agrave">
          268 21 -21 385 155 920 -20 590 -20 hstemhm
          40 1295 -1038 580 hintmask 11101000
          245 hmoveto
          134 385 rlineto
          615 hlineto
          136 -385 rlineto
          205 hlineto
          -35 80 -38 89 -67 186 -400 1105 rcurveline
          -215 hlineto
          -400 -1105 -68 -187 -36 -87 -36 -81 rlinecurve
          900 540 rmoveto
          -507 hlineto
          252 725 rlineto
          hintmask 00010100
          -388 765 rmoveto
          420 -430 rlineto
          160 hlineto
          -350 430 rlineto
          endchar
        </CharString>
        <CharString name="Amacron">
          268 21 -21 385 155 920 -20 230 150 hstemhm
          40 1295 -1023 750 hintmask 11101000
          245 hmoveto
          134 385 rlineto
          615 hlineto
          136 -385 rlineto
          205 hlineto
          -35 80 -38 89 -67 186 -400 1105 rcurveline
          -215 hlineto
          -400 -1105 -68 -187 -36 -87 -36 -81 rlinecurve
          900 540 rmoveto
          -507 hlineto
          252 725 rlineto
          hintmask 00010100
          -373 405 rmoveto
          750 150 -750 hlineto
          endchar
        </CharString>
        <CharString name="Aogonek">
          268 -430 115 336 -21 385 155 920 -20 hstemhm
          40 1295 -305 140 hintmask 01111000
          245 hmoveto
          134 385 rlineto
          615 hlineto
          136 -385 rlineto
          205 hlineto
          -35 80 -38 89 -67 186 -400 1105 rcurveline
          -215 hlineto
          -400 -1105 -68 -187 -36 -87 -36 -81 rlinecurve
          900 540 rmoveto
          -507 hlineto
          252 725 rlineto
          hintmask 10000100
          505 -1265 rmoveto
          -104 -50 -56 -71 -104 vvcurveto
          -120 118 -85 122 74 73 32 58 58 vhcurveto
          -30 100 rlineto
          -44 -37 -75 -31 -43 hhcurveto
          -74 -46 45 75 70 57 60 103 65 hvcurveto
          endchar
        </CharString>
        <CharString name="Aogonek.RetroHookStyle">
          268 -470 135 356 -21 385 155 920 -20 hstemhm
          40 1295 -716 135 hintmask 01111000
          245 hmoveto
          134 385 rlineto
          615 hlineto
          136 -385 rlineto
          205 hlineto
          -35 80 -38 89 -67 186 -400 1105 rcurveline
          -215 hlineto
          -400 -1105 -68 -187 -36 -87 -36 -81 rlinecurve
          900 540 rmoveto
          -507 hlineto
          252 725 rlineto
          hintmask 10000100
          314 -1555 rmoveto
          -28 -43 -41 -17 -56 hhcurveto
          -57 -48 50 75 hvcurveto
          250 -135 -260 vlineto
          -153 85 -97 120 69 68 17 38 53 vhcurveto
          endchar
        </CharString>
        <CharString name="Aring">
          268 21 -21 385 155 920 -20 160 115 200 115 hstemhm
          40 1295 -861 115 200 115 hintmask 11100100
          245 hmoveto
          134 385 rlineto
          615 hlineto
          136 -385 rlineto
          205 hlineto
          -35 80 -38 89 -67 186 -400 1105 rcurveline
          -215 hlineto
          -400 -1105 -68 -187 -36 -87 -36 -81 rlinecurve
          900 540 rmoveto
          -507 hlineto
          252 725 rlineto
          hintmask 00011011
          104 550 rmoveto
          -60 -40 -40 -60 -60 -40 40 60 60 40 40 60 60 40 -40 -60 vhcurveto
          -315 hmoveto
          -120 95 -95 120 120 95 95 120 120 -95 95 -120 -120 -95 -95 -120 vhcurveto
          endchar
        </CharString>
        <CharString name="Aringacute">
          268 21 -21 385 155 920 -20 160 115 200 115 535 -20 hstemhm
          40 1295 -861 115 -80 580 -300 115 hintmask 1110001000000000
          245 hmoveto
          134 385 rlineto
          615 hlineto
          136 -385 rlineto
          205 hlineto
          -35 80 -38 89 -67 186 -400 1105 rcurveline
          -215 hlineto
          -400 -1105 -68 -187 -36 -87 -36 -81 rlinecurve
          900 540 rmoveto
          -507 hlineto
          252 725 rlineto
          hintmask 0001100101000000
          104 550 rmoveto
          -60 -40 -40 -60 -60 -40 40 60 60 40 40 60 60 40 -40 -60 vhcurveto
          -315 hmoveto
          -120 95 -95 120 120 95 95 120 120 -95 95 -120 -120 -95 -95 -120 vhcurveto
          hintmask 0000010010000000
          385 750 rmoveto
          -350 -430 rlineto
          160 hlineto
          420 430 rlineto
          endchar
        </CharString>
        <CharString name="Atilde">
          268 21 -21 385 155 920 -20 180 165 -65 165 hstemhm
          40 1295 -998 105 500 105 hintmask 11100100
          245 hmoveto
          134 385 rlineto
          615 hlineto
          136 -385 rlineto
          205 hlineto
          -35 80 -38 89 -67 186 -400 1105 rcurveline
          -215 hlineto
          -400 -1105 -68 -187 -36 -87 -36 -81 rlinecurve
          900 540 rmoveto
          -507 hlineto
          252 725 rlineto
          hintmask 00000000
          -243 370 rmoveto
          49 5 31 36 49 hhcurveto
          37 41 -16 -36 77 hvcurveto
          hintmask 00001011
          -28 61 53 -20 53 hhcurveto
          123 75 122 128 hvcurveto
          -105 hlineto
          -46 -7 -31 -39 -47 hhcurveto
          -42 -41 19 29 -72 hvcurveto
          hintmask 00010011
          28 -70 -47 24 -56 hhcurveto
          -119 -73 -128 -122 hvcurveto
          endchar
        </CharString>
        <CharString name="B">
          158 -10 160 -129 -21 700 155 460 155 hstemhm
          175 190 505 195 -120 195 hintmask 00000000
          hintmask 10111010
          365 1310 rmoveto
          2 42 105 3 78 hhcurveto
          hintmask 01111100
          201 79 -76 -149 -139 -96 -96 -214 hvcurveto
          -195 hlineto
          -190 -400 rmoveto
          -198 0 -177 -15 -80 vhcurveto
          hintmask 10111010
          -5 53 189 -5 203 hhcurveto
          383 152 187 243 249 -166 90 -154 41 hvcurveto
          hintmask 10111100
          136 52 109 100 168 vvcurveto
          261 -168 89 -297 -169 -183 -4 -6 -88 vhcurveto
          15 -80 0 -184 -196 vvcurveto
          190 -300 rmoveto
          235 hlineto
          hintmask 10111010
          233 112 -96 -184 -208 -164 -62 -171 -112 -96 3 2 -37 hvcurveto
          endchar
        </CharString>
        <CharString name="BoxDotted">
          1273 -200 300 100 200 100 200 100 200 100 200 100 200 100 300 hstem
          100 300 100 200 100 200 100 200 100 200 100 200 100 300 vstem
          100 1700 rmoveto
          100 200 200 100 -300 hlineto
          -900 vmoveto
          100 200 -100 hlineto
          300 -1500 rmoveto
          100 -200 200 -100 -300 vlineto
          1900 2200 rmoveto
          -100 200 -200 100 300 vlineto
          -900 hmoveto
          -100 200 100 vlineto
          -500 hmoveto
          -100 200 100 vlineto
          -500 hmoveto
          -100 200 100 vlineto
          -500 hmoveto
          -100 200 100 vlineto
          -600 -600 rmoveto
          100 200 -100 hlineto
          -800 vmoveto
          100 200 -100 hlineto
          -500 vmoveto
          100 200 -100 hlineto
          -500 vmoveto
          100 200 -100 hlineto
          600 -600 rmoveto
          100 -200 -100 vlineto
          500 hmoveto
          100 -200 -100 vlineto
          500 hmoveto
          100 -200 -100 vlineto
          500 hmoveto
          100 -200 -100 vlineto
          900 300 rmoveto
          -100 -200 -200 -100 300 hlineto
          -100 1300 rmoveto
          100 200 -100 hlineto
          100 vmoveto
          100 200 -100 hlineto
          -800 vmoveto
          100 200 -100 hlineto
          -500 vmoveto
          100 200 -100 hlineto
          -500 vmoveto
          100 200 -100 hlineto
          -500 1600 rmoveto
          -100 200 100 vlineto
          -2200 vmoveto
          100 -200 -100 vlineto
          endchar
        </CharString>
        <CharString name="C">
          228 -25 175 1165 170 hstem
          95 195 vstem
          1190 335 rmoveto
          -112 -112 -166 -73 -152 hhcurveto
          -271 -199 226 359 384 201 196 279 121 139 -37 -113 125 hvcurveto
          60 180 rlineto
          107 -143 -159 33 -143 hhcurveto
          -352 -323 -260 -515 -450 251 -285 404 152 212 57 108 116 hvcurveto
          endchar
        </CharString>
        <CharString name="Cacute">
          228 -25 175 1165 170 545 -20 hstemhm
          95 195 280 580 hintmask 11010000
          1190 335 rmoveto
          -112 -112 -166 -73 -152 hhcurveto
          -271 -199 226 359 384 201 196 279 121 139 -37 -113 125 hvcurveto
          60 180 rlineto
          107 -143 -159 33 -143 hhcurveto
          -352 -323 -260 -515 -450 251 -285 404 152 212 57 108 116 hvcurveto
          hintmask 00101000
          -310 1890 rmoveto
          -350 -430 rlineto
          160 hlineto
          420 430 rlineto
          endchar
        </CharString>
        <CharString name="Ccaron">
          228 -25 175 1165 170 115 150 280 -20 hstemhm
          95 195 35 850 hintmask 11001000
          1190 335 rmoveto
          -112 -112 -166 -73 -152 hhcurveto
          -271 -199 226 359 384 201 196 279 121 139 -37 -113 125 hvcurveto
          60 180 rlineto
          107 -143 -159 33 -143 hhcurveto
          -352 -323 -260 -515 -450 251 -285 404 152 212 57 108 116 hvcurveto
          hintmask 00110100
          -905 1890 rmoveto
          340 -430 rlineto
          170 hlineto
          340 430 rlineto
          -150 hlineto
          -275 -280 -275 280 rlineto
          endchar
        </CharString>
        <CharString name="Ccedilla">
          228 -480 110 190 180 -25 175 1165 170 hstemhm
          95 195 385 125 60 145 hintmask 00111000
          1190 335 rmoveto
          -112 -112 -166 -73 -152 hhcurveto
          -271 -199 226 359 384 201 196 279 121 139 -37 -113 125 hvcurveto
          60 180 rlineto
          107 -143 -159 33 -143 hhcurveto
          -352 -323 -260 -515 -450 251 -285 404 152 212 57 108 116 hvcurveto
          hintmask 11000110
          -555 -140 rmoveto
          -205 vlineto
          13 21 35 12 32 hhcurveto
          54 42 -38 -52 1 hvcurveto
          -75 -3 -72 -25 -60 hhcurveto
          -42 -29 9 21 -29 hvcurveto
          -10 -100 rlineto
          -23 41 42 -17 52 hhcurveto
          119 136 84 136 99 -66 71 -91 -22 -13 -2 -3 -13 hvcurveto
          95 vlineto
          endchar
        </CharString>
        <CharString name="Ccircumflex">
          228 -25 175 1165 170 545 -20 hstemhm
          95 195 35 850 hintmask 11010000
          1190 335 rmoveto
          -112 -112 -166 -73 -152 hhcurveto
          -271 -199 226 359 384 201 196 279 121 139 -37 -113 125 hvcurveto
          60 180 rlineto
          107 -143 -159 33 -143 hhcurveto
          -352 -323 -260 -515 -450 251 -285 404 152 212 57 108 116 hvcurveto
          hintmask 00000000
          -755 1460 rmoveto
          hintmask 00101000
          275 280 275 -280 rlineto
          150 hlineto
          -340 430 rlineto
          -170 hlineto
          -340 -430 rlineto
          endchar
        </CharString>
        <CharString name="Cdotaccent">
          228 -25 175 1165 170 155 270 hstemhm
          95 195 325 270 hintmask 11010000
          1190 335 rmoveto
          -112 -112 -166 -73 -152 hhcurveto
          -271 -199 226 359 384 201 196 279 121 139 -37 -113 125 hvcurveto
          60 180 rlineto
          107 -143 -159 33 -143 hhcurveto
          -352 -323 -260 -515 -450 251 -285 404 152 212 57 108 116 hvcurveto
          hintmask 00101000
          -615 1635 rmoveto
          -74 61 -61 74 74 61 61 74 74 -61 61 -74 -74 -61 -61 -74 vhcurveto
          endchar
        </CharString>
        <CharString name="CombBreve.CyShortMrkAlt.UCHt">
          1555 140 hstem
          -1100 185 400 185 vstem
          -515 1895 rmoveto
          -118 -89 -82 -111 -110 -90 82 118 vhcurveto
          -185 hlineto
          -194 170 -146 215 213 172 146 194 vhcurveto
          endchar
        </CharString>
        <CharString name="CombOgonek.Lrg">
          -567 -540 145 hstem
          0 175 vstem
          210 2 rmoveto
          -130 -52 -80 -100 -130 vvcurveto
          -150 148 -110 152 93 94 42 73 73 vhcurveto
          -40 125 rlineto
          -55 -46 -95 -40 -54 hhcurveto
          -92 -58 56 94 88 77 78 128 81 hvcurveto
          endchar
        </CharString>
        <CharString name="CombTildeOverlay.Lrg">
          -12 360 150 -45 150 hstemhm
          20 1060 hintmask 00000000
          hintmask 01100000
          125 375 rmoveto
          49 5 32 41 78 175 200 -105 230 hhcurveto
          hintmask 10100000
          159 76 122 128 hvcurveto
          -105 hlineto
          -46 -7 -30 -54 -83 -236 -158 105 -221 hhcurveto
          hintmask 01100000
          -146 -74 -118 -122 hvcurveto
          endchar
        </CharString>
        <CharString name="Comma.Sophia">
          -924 -94 184 hstem
          35 133 vstem
          168 90 rmoveto
          -89 hlineto
          -44 -184 rlineto
          52 hlineto
          endchar
        </CharString>
        <CharString name="D">
          308 -10 165 -134 -21 1310 160 hstemhm
          175 190 755 195 hintmask 00000000
          hintmask 10111000
          175 455 rmoveto
          hintmask 01111000
          -1 -198 1 -177 -15 -80 rrcurveto
          hintmask 10111000
          0 307 -10 128 293 427 155 595 654 -486 76 -214 -135 -235 -4 -6 -85 vhcurveto
          15 -80 0 -184 -196 vvcurveto
          190 305 rmoveto
          2 50 109 3 66 hhcurveto
          288 242 -143 -447 -412 -267 -153 -268 -95 -78 6 4 -47 hvcurveto
          endchar
        </CharString>
        <CharString name="Dcaron">
          308 -10 165 -134 -21 1310 160 130 150 280 -20 hstemhm
          175 190 -75 850 -20 195 hintmask 00000000
          hintmask 10100101
          175 455 rmoveto
          hintmask 01100101
          -1 -198 1 -177 -15 -80 rrcurveto
          hintmask 10100101
          0 307 -10 128 293 427 155 595 654 -486 76 -214 -135 -235 -4 -6 -85 vhcurveto
          15 -80 0 -184 -196 vvcurveto
          190 305 rmoveto
          2 50 109 3 66 hhcurveto
          288 242 -143 -447 -412 -267 -153 -268 -95 -78 6 4 -47 hvcurveto
          hintmask 00011010
          -75 1865 rmoveto
          340 -430 rlineto
          170 hlineto
          340 430 rlineto
          -150 hlineto
          -275 -280 -275 280 rlineto
          endchar
        </CharString>
        <CharString name="Dcroat">
          308 -10 165 -134 -21 690 145 475 160 hstemhm
          175 190 755 195 hintmask 01111100
          835 vmoveto
          -145 175 -235 vlineto
          -1 -198 1 -177 -15 -80 rrcurveto
          hintmask 10111100
          0 307 -10 128 293 427 155 595 654 -486 76 -214 -135 -235 -4 -6 -85 vhcurveto
          15 -80 0 -184 -196 vvcurveto
          -165 vlineto
          190 470 rmoveto
          2 50 109 3 66 hhcurveto
          288 242 -143 -447 -412 -267 -153 -268 -95 -78 6 4 -47 hvcurveto
          525 380 145 -380 vlineto
          endchar
        </CharString>
        <CharString name="Delta">
          268 0 165 1295 -20 hstem
          177 38 945 41 vstem
          70 hmoveto
          1234 hlineto
          1 145 -510 1315 rlineto
          -215 hlineto
          -510 -1315 rlineto
          615 1120 rmoveto
          413 -1100 rlineto
          -822 hlineto
          endchar
        </CharString>
        <CharString name="DigitEight.Sophia">
          -715 -10 57 206 57 176 56 hstemhm
          32 70 -54 68 182 68 -56 72 hintmask 00000000
          hintmask 11110010
          382 137 rmoveto
          109 -104 36 0 vhcurveto
          hintmask 11101100
          0 88 35 95 vvcurveto
          90 -84 40 -75 -74 -85 -40 -90 -95 85 -35 0 vhcurveto
          hintmask 11110010
          0 -101 -36 -109 vvcurveto
          -110 98 -37 77 77 98 37 110 vhcurveto
          hintmask 11101100
          -84 261 rmoveto
          -55 -41 -33 -50 -49 -42 33 55 54 33 34 58 59 32 -34 -54 vhcurveto
          hintmask 11110010
          12 -247 rmoveto
          -60 -28 -44 -75 -74 -31 44 60 60 40 42 65 66 37 -42 -60 vhcurveto
          endchar
        </CharString>
        <CharString name="DigitFive.Sophia">
          -715 -10 60 249 55 117 62 hstemhm
          39 78 -65 72 174 75 hintmask 00000000
          hintmask 11101100
          373 174 rmoveto
          96 -1 -50 84 -94 hhcurveto
          -74 -9 -29 -21 -25 hvcurveto
          9 167 rlineto
          210 62 -282 hlineto
          -10 -311 rlineto
          67 hlineto
          43 19 30 34 49 hhcurveto
          65 21 -50 -76 -83 -48 -40 -44 hvcurveto
          hintmask 11110100
          -52 -37 25 55 hvcurveto
          -78 hlineto
          -87 66 -53 109 vhcurveto
          hintmask 11101100
          76 84 87 97 -1 hvcurveto
          endchar
        </CharString>
        <CharString name="DigitFour.Sophia">
          -715 0 191 -61 61 hstemhm
          256 68 hintmask 00000000
          hintmask 01100000
          390 130 rmoveto
          61 -66 342 -81 vlineto
          -221 -326 rlineto
          -77 234 vlineto
          hintmask 10100000
          -130 68 vlineto
          hintmask 01100000
          130 vlineto
          -68 61 rmoveto
          -175 hlineto
          175 260 rlineto
          endchar
        </CharString>
        <CharString name="DigitNine.Sophia">
          -715 -10 56 157 57 226 56 hstem
          34 76 196 72 vstem
          378 279 rmoveto
          171 -16 92 -162 -136 -30 -104 -65 -61 20 -109 137 68 19 33 35 28 vhcurveto
          0 12 -225 -119 -45 -29 19 61 -5 vhcurveto
          -70 hlineto
          -90 12 39 -46 97 hhcurveto
          153 27 152 137 hvcurveto
          -82 94 rmoveto
          -72 -26 -41 -68 -67 -25 41 72 73 25 40 67 68 26 -40 -73 vhcurveto
          endchar
        </CharString>
        <CharString name="DigitOne.Sophia">
          -715 21 -21 hstem
          211 68 vstem
          279 hmoveto
          533 -73 vlineto
          0 -38 -66 -72 -23 vhcurveto
          -62 vlineto
          59 11 56 51 0 vvcurveto
          -444 vlineto
          endchar
        </CharString>
        <CharString name="DigitSeven.Sophia">
          -715 21 -21 474 59 hstem
          304 66 vstem
          370 458 rmoveto
          75 -328 -59 262 vlineto
          -188 -474 rlineto
          81 hlineto
          endchar
        </CharString>
        <CharString name="DigitSix.Sophia">
          -715 -10 56 226 57 157 56 hstem
          34 82 186 76 vstem
          378 159 rmoveto
          61 -20 109 -138 -67 -19 -33 -35 -27 vhcurveto
          0 -13 225 119 45 30 -19 -61 4 vhcurveto
          71 hlineto
          90 -12 -39 46 -98 hhcurveto
          -152 -28 -152 -137 -171 16 -92 163 135 30 104 65 hvcurveto
          -76 hmoveto
          -72 -24 -41 -68 -68 -26 41 72 72 26 41 68 68 24 -41 -72 vhcurveto
          endchar
        </CharString>
        <CharString name="DigitThree.Sophia">
          -715 -10 56 202 58 180 56 hstemhm
          34 78 183 75 -65 73 hintmask 00000000
          hintmask 11100100
          378 142 rmoveto
          100 -36 18 -28 19 vhcurveto
          hintmask 11101000
          32 21 24 30 72 vvcurveto
          80 -67 60 -101 -92 -53 -53 -95 -12 vhcurveto
          74 hlineto
          60 11 26 32 47 hhcurveto
          36 56 -16 -62 -74 -25 -28 -74 hvcurveto
          -58 vlineto
          hintmask 11110100
          77 32 -28 -83 -49 -50 -42 -49 -69 -20 49 45 -5 hvcurveto
          -78 hlineto
          -73 50 -77 119 vhcurveto
          hintmask 11100100
          103 72 65 87 hvcurveto
          endchar
        </CharString>
        <CharString name="DigitTwo.Sophia">
          -715 0 58 424 60 hstem
          53 75 165 73 vstem
          366 hmoveto
          58 -240 vlineto
          232 184 8 76 80 vvcurveto
          67 -49 77 -105 -110 -42 -66 -88 -7 vhcurveto
          75 hlineto
          65 8 24 29 52 hhcurveto
          60 21 -32 -62 -52 -1 -79 -246 -188 hvcurveto
          -69 vlineto
          endchar
        </CharString>
        <CharString name="DigitZero.Sophia">
          -715 -10 61 430 61 hstem
          37 71 196 71 vstem
          375 277 rmoveto
          125 -17 140 -152 -152 -17 -140 -125 -126 17 -161 152 152 17 161 126 vhcurveto
          -71 hmoveto
          -115 -11 -111 -87 -87 -11 111 115 114 11 90 87 87 11 -90 -114 vhcurveto
          endchar
        </CharString>
        <CharString name="E">
          33 0 165 520 160 450 165 hstem
          175 190 vstem
          365 845 rmoveto
          450 645 165 -850 vlineto
          15 -80 0 -158 -197 vvcurveto
          -590 vlineto
          -197 0 -158 -15 -80 vhcurveto
          880 180 hlineto
          -14 -80 -134 -1 -197 hhcurveto
          -264 520 570 160 hlineto
          endchar
        </CharString>
        <CharString name="Eacute">
          33 0 165 520 160 450 165 570 -20 hstemhm
          175 190 55 580 hintmask 11101000
          365 845 rmoveto
          450 645 165 -850 vlineto
          15 -80 0 -158 -197 vvcurveto
          -590 vlineto
          -197 0 -158 -15 -80 vhcurveto
          880 180 hlineto
          -14 -80 -134 -1 -197 hhcurveto
          -264 520 570 160 hlineto
          hintmask 00010100
          -165 1185 rmoveto
          -350 -430 rlineto
          160 hlineto
          420 430 rlineto
          endchar
        </CharString>
        <CharString name="Ebreve">
          33 0 165 520 160 450 165 120 150 hstemhm
          175 190 -140 750 hintmask 11101000
          365 845 rmoveto
          450 645 165 -850 vlineto
          15 -80 0 -158 -197 vvcurveto
          -590 vlineto
          -197 0 -158 -15 -80 vhcurveto
          880 180 hlineto
          -14 -80 -134 -1 -197 hhcurveto
          -264 520 570 160 hlineto
          hintmask 00010100
          40 1135 rmoveto
          -122 hlineto
          -135 -20 -102 -115 -131 hhcurveto
          -130 -109 115 135 -16 hvcurveto
          -120 hlineto
          -194 140 -206 235 233 142 206 194 vhcurveto
          endchar
        </CharString>
        <CharString name="Ecaron">
          33 0 165 520 160 450 165 140 150 280 -20 hstemhm
          175 190 -190 850 hintmask 11100100
          365 845 rmoveto
          450 645 165 -850 vlineto
          15 -80 0 -158 -197 vvcurveto
          -590 vlineto
          -197 0 -158 -15 -80 vhcurveto
          880 180 hlineto
          -14 -80 -134 -1 -197 hhcurveto
          -264 520 570 160 hlineto
          hintmask 00011010
          -760 1185 rmoveto
          340 -430 rlineto
          170 hlineto
          340 430 rlineto
          -150 hlineto
          -275 -280 -275 280 rlineto
          endchar
        </CharString>
        <CharString name="Ecircumflex">
          33 0 165 520 160 450 165 570 -20 hstemhm
          175 190 -190 850 hintmask 11101000
          365 845 rmoveto
          450 645 165 -850 vlineto
          15 -80 0 -158 -197 vvcurveto
          -590 vlineto
          -197 0 -158 -15 -80 vhcurveto
          880 180 hlineto
          -14 -80 -134 -1 -197 hhcurveto
          -264 520 570 160 hlineto
          hintmask 00000000
          -610 755 rmoveto
          hintmask 00010100
          275 280 275 -280 rlineto
          150 hlineto
          -340 430 rlineto
          -170 hlineto
          -340 -430 rlineto
          endchar
        </CharString>
        <CharString name="Edieresis">
          33 0 165 520 160 450 165 180 270 hstemhm
          175 190 -105 260 160 260 hintmask 11101000
          365 845 rmoveto
          450 645 165 -850 vlineto
          15 -80 0 -158 -197 vvcurveto
          -590 vlineto
          -197 0 -158 -15 -80 vhcurveto
          880 180 hlineto
          -14 -80 -134 -1 -197 hhcurveto
          -264 520 570 160 hlineto
          hintmask 00010110
          -255 930 rmoveto
          -74 56 -61 74 75 55 61 74 74 -55 61 -75 -74 -56 -61 -74 vhcurveto
          -420 hmoveto
          -74 56 -61 74 75 55 61 74 74 -55 61 -75 -74 -56 -61 -74 vhcurveto
          endchar
        </CharString>
        <CharString name="Edotaccent">
          33 0 165 520 160 450 165 180 270 hstemhm
          175 190 100 270 hintmask 11101000
          365 845 rmoveto
          450 645 165 -850 vlineto
          15 -80 0 -158 -197 vvcurveto
          -590 vlineto
          -197 0 -158 -15 -80 vhcurveto
          880 180 hlineto
          -14 -80 -134 -1 -197 hhcurveto
          -264 520 570 160 hlineto
          hintmask 00010100
          -470 930 rmoveto
          -74 61 -61 74 74 61 61 74 74 -61 61 -74 -74 -61 -61 -74 vhcurveto
          endchar
        </CharString>
        <CharString name="Egrave">
          33 0 165 520 160 450 165 570 -20 hstemhm
          175 190 -155 580 hintmask 11101000
          365 845 rmoveto
          450 645 165 -850 vlineto
          15 -80 0 -158 -197 vvcurveto
          -590 vlineto
          -197 0 -158 -15 -80 vhcurveto
          880 180 hlineto
          -14 -80 -134 -1 -197 hhcurveto
          -264 520 570 160 hlineto
          hintmask 00010100
          -725 1185 rmoveto
          420 -430 rlineto
          160 hlineto
          -350 430 rlineto
          endchar
        </CharString>
        <CharString name="Emacron">
          33 0 165 520 160 450 165 210 150 hstemhm
          175 190 -140 750 hintmask 11101000
          365 845 rmoveto
          450 645 165 -850 vlineto
          15 -80 0 -158 -197 vvcurveto
          -590 vlineto
          -197 0 -158 -15 -80 vhcurveto
          880 180 hlineto
          -14 -80 -134 -1 -197 hhcurveto
          -264 520 570 160 hlineto
          hintmask 00010100
          -710 825 rmoveto
          750 150 -750 hlineto
          endchar
        </CharString>
        <CharString name="Eng">
          333 -470 170 321 -21 1285 200 -30 -20 hstemhm
          200 190 695 190 hintmask 00000000
          hintmask 11011100
          135 1455 rmoveto
          28 -99 37 -197 -279 vvcurveto
          -450 vlineto
          -197 0 -153 -15 -80 vhcurveto
          205 840 hlineto
          hintmask 11101100
          194 55 179 251 191 hhcurveto
          216 54 -143 -357 hvcurveto
          -705 vlineto
          -271 -108 -109 -107 -62 -60 10 25 -33 vhcurveto
          -65 -155 rlineto
          -21 32 81 -29 82 hhcurveto
          265 165 190 425 hvcurveto
          747 vlineto
          392 -147 201 -248 -177 -173 -88 -217 -160 vhcurveto
          hintmask 11011100
          -9 69 -22 146 -19 60 rrcurveto
          endchar
        </CharString>
        <CharString name="Eng.BaselineHook">
          369 -25 170 -124 -21 1285 200 -30 -20 hstemhm
          200 190 725 190 hintmask 01011100
          135 1455 rmoveto
          28 -99 37 -197 -279 vvcurveto
          -450 vlineto
          -197 0 -153 -15 -80 vhcurveto
          205 840 hlineto
          hintmask 10101100
          194 55 199 251 201 hhcurveto
          216 54 -143 -357 hvcurveto
          -260 vlineto
          -271 -98 -109 -87 -62 -60 10 25 -33 vhcurveto
          -65 -155 rlineto
          -21 32 81 -29 82 hhcurveto
          245 155 190 425 hvcurveto
          302 vlineto
          392 -147 201 -248 -187 -193 -88 -217 -160 vhcurveto
          hintmask 01011100
          -9 69 -22 146 -19 60 rrcurveto
          endchar
        </CharString>
        <CharString name="Eng.Kom">
          369 -25 170 1140 200 -30 -20 hstemhm
          200 190 725 190 hintmask 10111000
          135 1455 rmoveto
          28 -99 37 -197 -279 vvcurveto
          -20 vlineto
          -147 0 -153 -15 -80 vhcurveto
          205 390 hlineto
          hintmask 11011000
          186 61 193 229 201 hhcurveto
          216 54 -143 -357 hvcurveto
          -210 vlineto
          -321 -158 -109 -107 -72 -70 10 25 -33 vhcurveto
          -65 -155 rlineto
          -21 32 91 -29 92 hhcurveto
          265 215 190 475 hvcurveto
          252 vlineto
          392 -147 201 -248 -187 -203 -85 -200 -154 vhcurveto
          hintmask 10111000
          -9 69 -18 126 -19 60 rrcurveto
          endchar
        </CharString>
        <CharString name="Eng.UCStyle">
          373 -470 164 327 -21 1355 105 hstem
          175 165 795 165 vstem
          1135 1460 rmoveto
          -1157 vlineto
          -795 1157 rlineto
          -180 hlineto
          15 -80 0 -158 -197 vvcurveto
          -590 vlineto
          -197 0 -158 -15 -80 vhcurveto
          180 1152 hlineto
          795 -1152 rlineto
          -25 vlineto
          -187 -87 -94 -112 -81 -85 40 36 -48 vhcurveto
          -35 -165 rlineto
          -48 62 101 -27 76 hhcurveto
          228 146 122 373 hvcurveto
          1000 vlineto
          197 1 158 14 80 vhcurveto
          endchar
        </CharString>
        <CharString name="Eogonek">
          33 -430 115 315 165 520 160 450 165 hstemhm
          175 190 132 140 hintmask 01111000
          365 845 rmoveto
          450 645 165 -850 vlineto
          15 -80 0 -158 -197 vvcurveto
          -590 vlineto
          -197 0 -158 -15 -80 vhcurveto
          880 180 hlineto
          -14 -80 -134 -1 -197 hhcurveto
          -264 520 570 160 hlineto
          hintmask 10000100
          -278 -845 rmoveto
          -104 -50 -56 -71 -104 vvcurveto
          -120 118 -85 122 74 73 32 58 58 vhcurveto
          -30 100 rlineto
          -44 -37 -75 -31 -43 hhcurveto
          -74 -46 45 75 70 57 60 103 65 hvcurveto
          endchar
        </CharString>
        <CharString name="Eogonek.RetroHookStyle">
          33 -470 135 335 165 520 160 450 165 hstemhm
          175 190 167 135 hintmask 01111000
          365 845 rmoveto
          450 645 165 -850 vlineto
          15 -80 0 -158 -197 vvcurveto
          -590 vlineto
          -197 0 -158 -15 -80 vhcurveto
          880 180 hlineto
          -14 -80 -134 -1 -197 hhcurveto
          -264 520 570 160 hlineto
          hintmask 10000100
          -23 -1135 rmoveto
          -28 -43 -41 -17 -56 hhcurveto
          -57 -48 50 75 hvcurveto
          250 -135 -260 vlineto
          -153 85 -97 120 69 68 17 38 53 vhcurveto
          endchar
        </CharString>
        <CharString name="Eth">
          308 -10 165 -134 -21 690 145 475 160 hstemhm
          175 190 755 195 hintmask 00000000
          hintmask 10111100
          835 vmoveto
          -145 175 -235 vlineto
          hintmask 01111100
          -198 0 -177 -15 -80 vhcurveto
          hintmask 10111100
          0 307 -10 128 293 427 155 595 654 -486 76 -214 -135 -235 -4 -6 -85 vhcurveto
          15 -80 0 -184 -196 vvcurveto
          -165 vlineto
          190 470 rmoveto
          2 50 109 3 66 hhcurveto
          288 242 -143 -447 -412 -267 -153 -268 -95 -78 6 4 -47 hvcurveto
          525 380 145 -380 vlineto
          endchar
        </CharString>
        <CharString name="Euro">
          73 -25 175 380 145 125 145 368 172 hstem
          180 190 vstem
          20 800 rmoveto
          163 hlineto
          -2 -29 -1 -30 -31 vvcurveto
          -35 -120 vlineto
          -40 -145 rlineto
          172 hlineto
          -345 49 195 -210 289 hhcurveto
          165 135 52 103 110 hvcurveto
          -40 195 rlineto
          -106 -106 -110 -69 -124 hhcurveto
          -188 -131 147 233 -47 hvcurveto
          359 hlineto
          40 145 rlineto
          -417 hlineto
          -1 19 0 20 21 vvcurveto
          22 1 22 1 21 vhcurveto
          444 hlineto
          40 145 rlineto
          -465 hlineto
          240 53 144 128 157 hhcurveto
          115 86 -31 -107 119 hvcurveto
          60 180 rlineto
          101 -136 -88 29 -136 hhcurveto
          -264 -230 -181 -359 -70 hvcurveto
          -141 hlineto
          endchar
        </CharString>
        <CharString name="F">
          23 21 -21 675 160 460 165 hstem
          175 190 vstem
          365 835 rmoveto
          460 665 165 -870 vlineto
          15 -80 0 -163 -197 vvcurveto
          -585 vlineto
          -197 0 -158 -15 -80 vhcurveto
          220 hlineto
          -15 78 0 159 198 vvcurveto
          240 580 160 vlineto
          endchar
        </CharString>
        <CharString name="G">
          293 -25 175 430 165 570 170 hstem
          95 195 795 190 vstem
          1275 745 rmoveto
          -540 -165 350 -335 hlineto
          -74 -122 -87 -21 -119 hhcurveto
          -286 -181 227 368 349 190 221 305 133 128 -29 -121 149 hvcurveto
          65 180 rlineto
          117 -175 -138 23 -162 hhcurveto
          -383 -307 -286 -479 -479 272 -266 378 173 152 36 144 205 hvcurveto
          endchar
        </CharString>
        <CharString name="Gamma">
          23 21 -21 1295 165 hstem
          175 190 vstem
          365 1295 rmoveto
          665 165 -870 hlineto
          15 -80 0 -163 -197 vvcurveto
          -585 vlineto
          -197 0 -158 -15 -80 vhcurveto
          220 hlineto
          -15 78 0 159 198 vvcurveto
          endchar
        </CharString>
        <CharString name="Gbreve">
          293 -25 175 430 165 570 170 95 150 hstemhm
          95 195 80 750 -35 190 hintmask 11101010
          1275 745 rmoveto
          -540 -165 350 -335 hlineto
          -74 -122 -87 -21 -119 hhcurveto
          -286 -181 227 368 349 190 221 305 133 128 -29 -121 149 hvcurveto
          65 180 rlineto
          117 -175 -138 23 -162 hhcurveto
          -383 -307 -286 -479 -479 272 -266 378 173 152 36 144 205 hvcurveto
          hintmask 00010100
          -155 1825 rmoveto
          -122 hlineto
          -135 -20 -102 -115 -131 hhcurveto
          -130 -109 115 135 -16 hvcurveto
          -120 hlineto
          -194 140 -206 235 233 142 206 194 vhcurveto
          endchar
        </CharString>
        <CharString name="Gcaron">
          293 -25 175 430 165 570 170 115 150 280 -20 hstemhm
          95 195 30 850 -85 190 hintmask 11100101
          1275 745 rmoveto
          -540 -165 350 -335 hlineto
          -74 -122 -87 -21 -119 hhcurveto
          -286 -181 227 368 349 190 221 305 133 128 -29 -121 149 hvcurveto
          65 180 rlineto
          117 -175 -138 23 -162 hhcurveto
          -383 -307 -286 -479 -479 272 -266 378 173 152 36 144 205 hvcurveto
          hintmask 00011010
          -955 1875 rmoveto
          340 -430 rlineto
          170 hlineto
          340 430 rlineto
          -150 hlineto
          -275 -280 -275 280 rlineto
          endchar
        </CharString>
        <CharString name="Gcircumflex">
          293 -25 175 430 165 570 170 545 -20 hstemhm
          95 195 30 850 -85 190 hintmask 11101010
          1275 745 rmoveto
          -540 -165 350 -335 hlineto
          -74 -122 -87 -21 -119 hhcurveto
          -286 -181 227 368 349 190 221 305 133 128 -29 -121 149 hvcurveto
          65 180 rlineto
          117 -175 -138 23 -162 hhcurveto
          -383 -307 -286 -479 -479 272 -266 378 173 152 36 144 205 hvcurveto
          hintmask 00000000
          -805 1445 rmoveto
          hintmask 00010100
          275 280 275 -280 rlineto
          150 hlineto
          -340 430 rlineto
          -170 hlineto
          -340 -430 rlineto
          endchar
        </CharString>
        <CharString name="Gcommaaccent">
          293 -470 -21 210 151 105 175 430 165 570 170 hstemhm
          95 195 455 105 235 190 hintmask 00111101
          1275 745 rmoveto
          -540 -165 350 -335 hlineto
          -74 -122 -87 -21 -119 hhcurveto
          -286 -181 227 368 349 190 221 305 133 128 -29 -121 149 hvcurveto
          65 180 rlineto
          117 -175 -138 23 -162 hhcurveto
          -383 -307 -286 -479 -479 272 -266 378 173 152 36 144 205 hvcurveto
          hintmask 11000010
          -635 -436 rmoveto
          105 hlineto
          -75 -58 -92 -43 -43 vhcurveto
          75 -29 rlineto
          88 81 43 93 92 vvcurveto
          74 -49 50 -59 -44 -49 -28 -47 -9 vhcurveto
          endchar
        </CharString>
        <CharString name="Gdotaccent">
          293 -25 175 430 165 570 170 155 270 hstemhm
          95 195 320 270 205 190 hintmask 11101010
          1275 745 rmoveto
          -540 -165 350 -335 hlineto
          -74 -122 -87 -21 -119 hhcurveto
          -286 -181 227 368 349 190 221 305 133 128 -29 -121 149 hvcurveto
          65 180 rlineto
          117 -175 -138 23 -162 hhcurveto
          -383 -307 -286 -479 -479 272 -266 378 173 152 36 144 205 hvcurveto
          hintmask 00010100
          -665 1620 rmoveto
          -74 61 -61 74 74 61 61 74 74 -61 61 -74 -74 -61 -61 -74 vhcurveto
          endchar
        </CharString>
        <CharString name="H">
          348 21 -21 675 160 625 -20 hstem
          175 190 720 190 vstem
          1290 hmoveto
          -15 80 0 158 197 vvcurveto
          590 vlineto
          197 0 158 15 80 vhcurveto
          -205 -625 -720 625 -205 hlineto
          15 -80 0 -158 -197 vvcurveto
          -590 vlineto
          -197 0 -158 -15 -80 vhcurveto
          205 675 720 -675 hlineto
          endchar
        </CharString>
        <CharString name="Hbar">
          523 21 -21 675 160 245 145 -145 380 hstemhm
          275 190 720 190 hintmask 11011100
          105 1080 rmoveto
          170 -55 hlineto
          -590 vlineto
          -197 0 -158 -15 -80 vhcurveto
          205 675 720 -675 205 hlineto
          -15 80 0 158 197 vvcurveto
          590 vlineto
          55 170 vlineto
          hintmask 11101100
          145 -170 vlineto
          hintmask 11011100
          2 103 3 81 10 51 rrcurveto
          -205 hlineto
          hintmask 11101100
          -235 -720 vlineto
          hintmask 11011100
          235 -205 vlineto
          hintmask 11101100
          9 -51 4 -81 1 -103 rrcurveto
          -169 hlineto
          360 -390 rmoveto
          245 720 -245 vlineto
          endchar
        </CharString>
        <CharString name="Hbar.VertStrk">
          348 21 -21 675 160 625 -20 hstem
          175 190 290 145 285 190 vstem
          800 1180 rmoveto
          -145 -345 -290 625 -205 hlineto
          15 -80 0 -158 -197 vvcurveto
          -590 vlineto
          -197 0 -158 -15 -80 vhcurveto
          205 675 290 -335 145 335 285 -675 205 hlineto
          -15 80 0 158 197 vvcurveto
          590 vlineto
          197 0 158 15 80 vhcurveto
          -205 -625 -285 hlineto
          endchar
        </CharString>
        <CharString name="Hcircumflex">
          348 21 -21 675 160 625 -20 590 -20 hstemhm
          175 190 -65 850 -65 190 hintmask 11101010
          1290 hmoveto
          -15 80 0 158 197 vvcurveto
          590 vlineto
          197 0 158 15 80 vhcurveto
          -205 -625 -720 625 -205 hlineto
          15 -80 0 -158 -197 vvcurveto
          -590 vlineto
          -197 0 -158 -15 -80 vhcurveto
          205 675 720 -675 hlineto
          hintmask 00000000
          -635 1600 rmoveto
          hintmask 00010100
          275 280 275 -280 rlineto
          150 hlineto
          -340 430 rlineto
          -170 hlineto
          -340 -430 rlineto
          endchar
        </CharString>
        <CharString name="I">
          -152 0 145 1170 145 hstem
          380 190 vstem
          140 1460 rmoveto
          -145 240 -1170 -240 -145 675 145 -245 1170 245 145 vlineto
          endchar
        </CharString>
        <CharString name="IJ">
          813 -25 180 -155 145 1170 145 0 -20 hstemhm
          380 190 995 190 hintmask 01101000
          140 1460 rmoveto
          -145 240 -1170 -240 -145 675 145 -245 1170 245 145 vlineto
          hintmask 10010100
          735 hmoveto
          13 -106 2 -179 -195 vvcurveto
          -495 vlineto
          -229 -103 -101 -147 -92 -101 43 77 -67 vhcurveto
          -45 -185 rlineto
          -81 71 144 -34 95 hhcurveto
          257 178 144 416 hvcurveto
          925 vlineto
          endchar
        </CharString>
        <CharString name="Iacute">
          -152 0 145 1170 145 570 -20 hstemhm
          297 580 -497 190 hintmask 11001000
          140 1460 rmoveto
          -145 240 -1170 -240 -145 675 145 -245 1170 245 145 vlineto
          hintmask 00110000
          -168 570 rmoveto
          -350 -430 rlineto
          160 hlineto
          420 430 rlineto
          endchar
        </CharString>
        <CharString name="Ibreve">
          -152 0 145 1170 145 120 150 hstemhm
          102 750 -472 190 hintmask 11001000
          140 1460 rmoveto
          -145 240 -1170 -240 -145 675 145 -245 1170 245 145 vlineto
          hintmask 00110000
          37 520 rmoveto
          -122 hlineto
          -135 -20 -102 -115 -131 hhcurveto
          -130 -109 115 135 -16 hvcurveto
          -120 hlineto
          -194 140 -206 235 233 142 206 194 vhcurveto
          endchar
        </CharString>
        <CharString name="Icircumflex">
          -152 0 145 1170 145 570 -20 hstemhm
          52 850 -522 190 hintmask 11001000
          140 1460 rmoveto
          -145 240 -1170 -240 -145 675 145 -245 1170 245 145 vlineto
          hintmask 00000000
          -613 140 rmoveto
          hintmask 00110000
          275 280 275 -280 rlineto
          150 hlineto
          -340 430 rlineto
          -170 hlineto
          -340 -430 rlineto
          endchar
        </CharString>
        <CharString name="Idieresis">
          -152 0 145 1170 145 180 270 hstemhm
          137 260 -17 190 -13 260 hintmask 11001000
          140 1460 rmoveto
          -145 240 -1170 -240 -145 675 145 -245 1170 245 145 vlineto
          hintmask 00110100
          -258 315 rmoveto
          -74 56 -61 74 75 55 61 74 74 -55 61 -75 -74 -56 -61 -74 vhcurveto
          -420 hmoveto
          -74 56 -61 74 75 55 61 74 74 -55 61 -75 -74 -56 -61 -74 vhcurveto
          endchar
        </CharString>
        <CharString name="Idotaccent">
          -152 0 145 1170 145 180 270 hstemhm
          342 270 -232 190 hintmask 11001000
          140 1460 rmoveto
          -145 240 -1170 -240 -145 675 145 -245 1170 245 145 vlineto
          hintmask 00110000
          -473 315 rmoveto
          -74 61 -61 74 74 61 61 74 74 -61 61 -74 -74 -61 -61 -74 vhcurveto
          endchar
        </CharString>
        <CharString name="Igrave">
          -152 0 145 1170 145 570 -20 hstemhm
          87 580 -287 190 hintmask 11001000
          140 1460 rmoveto
          -145 240 -1170 -240 -145 675 145 -245 1170 245 145 vlineto
          hintmask 00110000
          -728 570 rmoveto
          420 -430 rlineto
          160 hlineto
          -350 430 rlineto
          endchar
        </CharString>
        <CharString name="Imacron">
          -152 0 145 1170 145 210 150 hstemhm
          212 530 -362 190 hintmask 11001000
          140 1460 rmoveto
          -145 240 -1170 -240 -145 675 145 -245 1170 245 145 vlineto
          hintmask 00110000
          -603 210 rmoveto
          530 150 -530 hlineto
          endchar
        </CharString>
        <CharString name="Iogonek">
          -152 -430 115 315 145 1170 145 hstemhm
          253 140 -13 190 hintmask 01101000
          140 1460 rmoveto
          -145 240 -1170 -240 -145 675 145 -245 1170 245 145 vlineto
          hintmask 10010000
          -402 -1460 rmoveto
          -104 -50 -56 -71 -104 vvcurveto
          -120 118 -85 122 74 73 32 58 58 vhcurveto
          -30 100 rlineto
          -44 -37 -75 -31 -43 hhcurveto
          -74 -46 45 75 70 57 60 103 65 hvcurveto
          endchar
        </CharString>
        <CharString name="Iogonek.RetroHookStyle">
          -152 -470 135 335 145 1170 145 hstemhm
          380 190 -161 135 hintmask 01110000
          140 1460 rmoveto
          -145 240 -1170 -240 -145 675 145 -245 1170 245 145 vlineto
          hintmask 10001000
          -26 -1750 rmoveto
          -28 -43 -41 -17 -56 hhcurveto
          -57 -48 50 75 hvcurveto
          250 -135 -260 vlineto
          -153 85 -97 120 69 68 17 38 53 vhcurveto
          endchar
        </CharString>
        <CharString name="Itilde">
          -152 0 145 1170 145 160 165 -65 165 hstemhm
          127 105 148 190 162 105 hintmask 11000100
          140 1460 rmoveto
          -145 240 -1170 -240 -145 675 145 -245 1170 245 145 vlineto
          hintmask 00000000
          -583 175 rmoveto
          49 5 31 36 49 hhcurveto
          37 41 -16 -36 77 hvcurveto
          hintmask 00011010
          -28 61 53 -20 53 hhcurveto
          123 75 122 128 hvcurveto
          -105 hlineto
          -46 -7 -31 -39 -47 hhcurveto
          -42 -41 19 29 -72 hvcurveto
          hintmask 00101010
          28 -70 -47 24 -56 hhcurveto
          -119 -73 -128 -122 hvcurveto
          endchar
        </CharString>
        <CharString name="J">
          -162 -25 180 1305 -20 hstem
          590 190 vstem
          575 1460 rmoveto
          13 -106 2 -179 -195 vvcurveto
          -495 vlineto
          -229 -103 -101 -147 -92 -101 43 77 -67 vhcurveto
          -45 -185 rlineto
          -81 71 144 -34 95 hhcurveto
          257 178 144 416 hvcurveto
          925 vlineto
          endchar
        </CharString>
        <CharString name="Jcircumflex">
          -162 -25 180 1305 -20 590 -20 hstemhm
          250 850 -510 190 hintmask 11001000
          575 1460 rmoveto
          13 -106 2 -179 -195 vvcurveto
          -495 vlineto
          -229 -103 -101 -147 -92 -101 43 77 -67 vhcurveto
          -45 -185 rlineto
          -81 71 144 -34 95 hhcurveto
          257 178 144 416 hvcurveto
          925 vlineto
          hintmask 00000000
          -380 140 rmoveto
          hintmask 00110000
          275 280 275 -280 rlineto
          150 hlineto
          -340 430 rlineto
          -170 hlineto
          -340 -430 rlineto
          endchar
        </CharString>
        <CharString name="K">
          183 21 -21 1460 -20 hstem
          175 190 vstem
          365 1460 rmoveto
          -205 hlineto
          15 -80 0 -158 -197 vvcurveto
          -590 vlineto
          -197 0 -158 -15 -80 vhcurveto
          205 717 hlineto
          620 -717 rlineto
          245 hlineto
          -671 773 606 687 rlineto
          -240 hlineto
          -560 -673 rlineto
          endchar
        </CharString>
        <CharString name="Kcommaaccent">
          183 -470 -21 210 151 151 -21 1460 -20 hstemhm
          175 190 330 105 hintmask 00111000
          365 1460 rmoveto
          -205 hlineto
          15 -80 0 -158 -197 vvcurveto
          -590 vlineto
          -197 0 -158 -15 -80 vhcurveto
          205 717 hlineto
          620 -717 rlineto
          245 hlineto
          -671 773 606 687 rlineto
          -240 hlineto
          -560 -673 rlineto
          hintmask 11000100
          225 -1068 rmoveto
          105 hlineto
          -75 -58 -92 -43 -43 vhcurveto
          75 -29 rlineto
          88 81 43 93 92 vvcurveto
          74 -49 50 -59 -44 -49 -28 -47 -9 vhcurveto
          endchar
        </CharString>
        <CharString name="L">
          -47 0 165 1295 -20 hstem
          175 190 vstem
          365 165 rmoveto
          1295 -205 vlineto
          15 -80 0 -158 -197 vvcurveto
          -590 vlineto
          -197 0 -158 -15 -80 vhcurveto
          865 180 hlineto
          -14 -80 -159 -1 -197 hhcurveto
          endchar
        </CharString>
        <CharString name="Lacute">
          -47 0 165 1295 -20 590 -20 hstemhm
          175 190 47 580 hintmask 11010000
          365 165 rmoveto
          1295 -205 vlineto
          15 -80 0 -158 -197 vvcurveto
          -590 vlineto
          -197 0 -158 -15 -80 vhcurveto
          865 180 hlineto
          -14 -80 -159 -1 -197 hhcurveto
          hintmask 00101000
          173 1865 rmoveto
          -350 -430 rlineto
          160 hlineto
          420 430 rlineto
          endchar
        </CharString>
        <CharString name="Lcaron">
          -47 0 165 1295 -20 45 -20 hstemhm
          175 190 175 250 hintmask 11010000
          365 165 rmoveto
          1295 -205 vlineto
          15 -80 0 -158 -197 vvcurveto
          -590 vlineto
          -197 0 -158 -15 -80 vhcurveto
          865 180 hlineto
          -14 -80 -159 -1 -197 hhcurveto
          hintmask 00000000
          16 1320 rmoveto
          hintmask 00101000
          -65 -430 rlineto
          120 hlineto
          130 430 rlineto
          endchar
        </CharString>
        <CharString name="Lcaron.Caron">
          -47 0 165 1295 -20 160 150 280 -20 hstemhm
          167 850 -842 190 hintmask 11000100
          365 165 rmoveto
          1295 -205 vlineto
          15 -80 0 -158 -197 vvcurveto
          -590 vlineto
          -197 0 -158 -15 -80 vhcurveto
          865 180 hlineto
          -14 -80 -159 -1 -197 hhcurveto
          hintmask 00111000
          -422 1865 rmoveto
          340 -430 rlineto
          170 hlineto
          340 430 rlineto
          -150 hlineto
          -275 -280 -275 280 rlineto
          endchar
        </CharString>
        <CharString name="Lcommaaccent">
          -47 -470 -21 210 151 130 165 1295 -20 hstemhm
          175 190 227 105 hintmask 00111000
          365 165 rmoveto
          1295 -205 vlineto
          15 -80 0 -158 -197 vvcurveto
          -590 vlineto
          -197 0 -158 -15 -80 vhcurveto
          865 180 hlineto
          -14 -80 -159 -1 -197 hhcurveto
          hintmask 11000100
          -102 -446 rmoveto
          105 hlineto
          -75 -58 -92 -43 -43 vhcurveto
          75 -29 rlineto
          88 81 43 93 92 vvcurveto
          74 -49 50 -59 -44 -49 -28 -47 -9 vhcurveto
          endchar
        </CharString>
        <CharString name="Ldot">
          226 0 165 410 270 615 -20 hstem
          175 190 660 268 vstem
          1025 710 rmoveto
          -74 61 -61 74 74 59 61 74 74 -59 61 -74 -74 -61 -61 -74 vhcurveto
          -660 -545 rmoveto
          1295 -205 vlineto
          15 -80 0 -158 -197 vvcurveto
          -590 vlineto
          -197 0 -158 -15 -80 vhcurveto
          865 180 hlineto
          -14 -80 -159 -1 -197 hhcurveto
          endchar
        </CharString>
        <CharString name="LftParen.Sophia">
          -861 -98 640 hstem
          67 70 vstem
          198 -98 rmoveto
          -36 104 -25 107 109 vvcurveto
          110 24 108 37 102 vhcurveto
          -48 hlineto
          -53 -96 -30 -112 -112 vvcurveto
          -112 30 -109 53 -99 vhcurveto
          endchar
        </CharString>
        <CharString name="Lslash">
          3 0 165 1295 -20 hstem
          225 190 vstem
          415 165 rmoveto
          515 vlineto
          375 235 -60 145 -315 -197 rlineto
          597 -205 vlineto
          15 -80 0 -158 -197 vvcurveto
          -281 vlineto
          -175 -109 60 -145 115 72 rlineto
          -127 vlineto
          -197 0 -158 -15 -80 vhcurveto
          865 180 hlineto
          -14 -80 -159 -1 -197 hhcurveto
          endchar
        </CharString>
        <CharString name="LtnCapA.Sophia">
          -574 0 205 -63 63 hstemhm
          11 531 hintmask 00000000
          hintmask 10100000
          542 hmoveto
          -226 533 rlineto
          -82 hlineto
          -223 -533 rlineto
          76 hlineto
          hintmask 01100000
          58 142 rlineto
          261 hlineto
          hintmask 10100000
          58 -142 rlineto
          hintmask 01100000
          -89 205 rmoveto
          -201 hlineto
          100 245 rlineto
          endchar
        </CharString>
        <CharString name="LtnCapB.Sophia">
          -631 0 64 185 61 158 65 hstemhm
          59 75 230 69 -52 71 hintmask 00000000
          hintmask 11110100
          452 148 rmoveto
          106 -104 28 -5 2 vhcurveto
          hintmask 11111000
          9 3 81 28 86 vvcurveto
          90 -74 42 -86 vhcurveto
          -214 -533 233 hlineto
          hintmask 11110100
          85 75 62 86 hvcurveto
          -71 8 rmoveto
          -54 -55 -38 -77 vhcurveto
          -115 185 112 hlineto
          88 47 -34 -59 hvcurveto
          hintmask 11111000
          -17 234 rmoveto
          -44 -26 -36 -89 vhcurveto
          -115 158 116 hlineto
          89 25 -34 -44 hvcurveto
          endchar
        </CharString>
        <CharString name="LtnCapC.Sophia">
          -625 -10 60 435 57 hstemhm
          44 75 261 74 -72 76 hintmask 00000000
          hintmask 11101000
          458 142 rmoveto
          -76 hlineto
          -68 -52 -24 -68 -89 -54 52 160 152 50 71 97 vhcurveto
          hintmask 11110000
          82 32 -33 -62 hvcurveto
          74 hlineto
          84 -55 68 -134 -167 -54 -136 -144 -144 54 -128 165 vhcurveto
          hintmask 11101000
          123 72 68 84 hvcurveto
          endchar
        </CharString>
        <CharString name="LtnCapD.Sophia">
          -596 0 64 404 65 hstem
          59 75 280 72 vstem
          486 266 rmoveto
          136 -60 131 -201 vhcurveto
          -166 -533 166 hlineto
          201 60 138 128 hvcurveto
          -72 hmoveto
          -128 -72 -74 -116 vhcurveto
          -92 404 92 hlineto
          116 72 -70 -132 hvcurveto
          endchar
        </CharString>
        <CharString name="LtnCapE.Sophia">
          -680 0 64 177 64 163 65 hstem
          59 75 vstem
          396 hmoveto
          64 -262 177 248 64 -248 163 255 65 -330 -533 vlineto
          endchar
        </CharString>
        <CharString name="LtnCapF.Sophia">
          -707 21 -21 241 64 163 65 hstem
          59 75 vstem
          369 468 rmoveto
          65 -310 -533 75 241 220 64 -220 163 vlineto
          endchar
        </CharString>
        <CharString name="LtnCapG.Sophia">
          -565 -10 64 166 64 194 64 hstemhm
          44 76 308 74 -72 75 hintmask 00000000
          hintmask 11110100
          505 400 rmoveto
          58 -63 84 -140 -160 -98 -113 -141 -135 38 -163 225 vhcurveto
          hintmask 11111000
          46 83 12 24 66 hvcurveto
          258 -196 -64 122 -148 vlineto
          0 -55 -18 -74 -135 -44 112 120 108 54 84 134 vhcurveto
          hintmask 11110100
          74 48 -48 -30 hvcurveto
          endchar
        </CharString>
        <CharString name="LtnCapH.Sophia">
          -605 0 305 -64 64 hstemhm
          59 75 255 75 hintmask 00000000
          hintmask 10110000
          464 hmoveto
          533 -75 vlineto
          hintmask 01110000
          -228 -255 228 -75 vlineto
          hintmask 10110000
          -533 75 vlineto
          hintmask 01110000
          241 255 vlineto
          hintmask 10110000
          -241 vlineto
          endchar
        </CharString>
        <CharString name="LtnCapI.Sophia">
          -934 21 -21 hstem
          59 75 vstem
          134 hmoveto
          533 -75 -533 vlineto
          endchar
        </CharString>
        <CharString name="LtnCapJ.Sophia">
          -708 -10 64 hstem
          44 73 169 74 vstem
          360 158 rmoveto
          375 -74 -375 vlineto
          -69 -40 -35 -44 -45 -39 20 69 -1 vhcurveto
          -73 hlineto
          -89 61 -64 93 96 66 68 100 vhcurveto
          endchar
        </CharString>
        <CharString name="LtnCapK.Sophia">
          -637 21 -21 hstem
          59 75 vstem
          472 hmoveto
          -254 303 227 230 rlineto
          -92 hlineto
          -219 -227 rlineto
          227 -75 -533 75 281 vlineto
          238 -281 rlineto
          endchar
        </CharString>
        <CharString name="LtnCapL.Sophia">
          -737 0 64 hstem
          59 75 vstem
          369 hmoveto
          64 -235 469 -75 -533 vlineto
          endchar
        </CharString>
        <CharString name="LtnCapM.Sophia">
          -465 0 103 -82 -21 462 71 hstemhm
          59 75 395 74 hintmask 00000000
          hintmask 01111000
          603 hmoveto
          533 -117 vlineto
          hintmask 10111000
          -156 -430 -154 430 rlineto
          -117 -533 75 458 hlineto
          167 -458 rlineto
          59 hlineto
          169 462 rlineto
          -462 vlineto
          endchar
        </CharString>
        <CharString name="LtnCapN.Sophia">
          -594 0 96 -75 -21 hstemhm
          59 75 266 74 hintmask 00000000
          hintmask 01110000
          474 hmoveto
          533 -74 vlineto
          hintmask 10110000
          -437 vlineto
          -235 437 rlineto
          -106 -533 75 436 hlineto
          234 -436 rlineto
          endchar
        </CharString>
        <CharString name="LtnCapO.Sophia">
          -557 -10 64 424 64 hstem
          44 76 330 76 vstem
          526 277 rmoveto
          152 -76 113 -164 -164 -78 -113 -152 -151 78 -136 164 164 76 136 151 vhcurveto
          -76 hmoveto
          -111 -35 -112 -129 -129 -37 112 111 112 37 89 129 129 35 -89 -112 vhcurveto
          endchar
        </CharString>
        <CharString name="LtnCapP.Sophia">
          -668 21 -21 226 64 178 65 hstem
          59 75 209 72 vstem
          415 379 rmoveto
          134 -103 20 -102 vhcurveto
          -151 -533 75 226 76 hlineto
          102 103 19 134 hvcurveto
          -72 hmoveto
          -66 -42 -23 -89 vhcurveto
          -78 178 78 hlineto
          89 42 -22 -67 hvcurveto
          endchar
        </CharString>
        <CharString name="LtnCapQ.Sophia">
          -548 -10 64 -54 50 -50 54 424 64 hstemhm
          44 76 330 76 hintmask 00000000
          hintmask 01011100
          557 hmoveto
          50 -111 vlineto
          53 48 27 87 92 vvcurveto
          152 -76 113 -164 -164 -78 -113 -152 vhcurveto
          hintmask 10011100
          -151 78 -136 164 vhcurveto
          hintmask 01011100
          21 21 3 7 29 hvcurveto
          93 277 rmoveto
          hintmask 00111100
          -111 -35 -112 -129 -129 -37 112 111 112 37 89 129 vhcurveto
          hintmask 01011100
          129 35 -89 -112 hvcurveto
          endchar
        </CharString>
        <CharString name="LtnCapR.Sophia">
          -663 21 -21 242 64 162 65 hstem
          59 75 211 74 vstem
          433 hmoveto
          -32 90 4 84 -16 41 rrcurveto
          -21 51 -48 6 0 vvcurveto
          53 25 46 36 54 vvcurveto
          108 -66 38 -125 vhcurveto
          -169 -533 75 242 64 hlineto
          99 13 -4 -110 24 hvcurveto
          9 -49 -1 -5 16 -74 rrcurveto
          -13 387 rmoveto
          -62 -47 -19 -72 vhcurveto
          -92 162 92 hlineto
          72 47 -18 -63 hvcurveto
          endchar
        </CharString>
        <CharString name="LtnCapS.Sophia">
          -639 -10 64 191 58 175 64 hstemhm
          44 75 -68 75 244 74 hintmask 00000000
          hintmask 11101100
          444 148 rmoveto
          217 -318 -107 136 vvcurveto
          64 44 20 59 58 62 -8 -72 -1 vhcurveto
          74 hlineto
          109 -95 35 -94 -83 -99 -52 -93 vhcurveto
          -227 319 141 -169 vvcurveto
          -80 -91 -8 -61 vhcurveto
          hintmask 11110100
          -58 -41 48 56 hvcurveto
          -75 hlineto
          -104 75 -64 101 vhcurveto
          hintmask 11101100
          104 120 34 124 hvcurveto
          endchar
        </CharString>
        <CharString name="LtnCapT.Sophia">
          -675 21 -21 468 65 hstem
          189 74 vstem
          437 468 rmoveto
          65 -423 -65 175 -468 74 468 vlineto
          endchar
        </CharString>
        <CharString name="LtnCapU.Sophia">
          -584 -10 64 hstem
          59 75 276 75 vstem
          485 238 rmoveto
          295 -75 -295 vlineto
          -161 -66 -23 -73 -73 -64 24 160 vhcurveto
          295 -75 -295 vlineto
          -179 64 -69 148 148 66 69 179 vhcurveto
          endchar
        </CharString>
        <CharString name="LtnCapV.Sophia">
          -645 0 96 -75 -21 hstemhm
          11 460 hintmask 00000000
          hintmask 01100000
          471 533 rmoveto
          -83 hlineto
          hintmask 10100000
          -146 -437 -148 437 rlineto
          -83 hlineto
          190 -533 rlineto
          81 hlineto
          endchar
        </CharString>
        <CharString name="LtnCapW.Sophia">
          -410 0 110 -89 -21 hstemhm
          11 695 hintmask 00000000
          hintmask 01100000
          706 533 rmoveto
          -79 hlineto
          hintmask 10100000
          -112 -423 -113 423 rlineto
          -88 hlineto
          -112 -423 -112 423 rlineto
          -79 hlineto
          158 -533 rlineto
          66 hlineto
          123 444 124 -444 rlineto
          66 hlineto
          endchar
        </CharString>
        <CharString name="LtnCapX.Sophia">
          -608 21 -21 hstem
          18 483 vstem
          501 hmoveto
          -196 284 170 249 rlineto
          -87 hlineto
          -123 -197 -127 197 rlineto
          -95 hlineto
          171 -249 -196 -284 rlineto
          88 hlineto
          148 231 152 -231 rlineto
          endchar
        </CharString>
        <CharString name="LtnCapY.Sophia">
          -636 21 -21 hstem
          208 74 vstem
          480 533 rmoveto
          -84 hlineto
          -146 -256 -148 256 rlineto
          -91 hlineto
          197 -321 rlineto
          -212 74 212 vlineto
          endchar
        </CharString>
        <CharString name="LtnCapZ.Sophia">
          -673 0 64 404 65 hstemhm
          33 388 -373 366 hintmask 00000000
          hintmask 11100000
          421 hmoveto
          64 -307 vlineto
          hintmask 11010000
          300 387 rlineto
          82 -366 -65 285 vlineto
          hintmask 11100000
          -300 -387 rlineto
          -81 vlineto
          endchar
        </CharString>
        <CharString name="M">
          668 21 -21 1460 -20 hstem
          160 1450 vstem
          230 1460 rmoveto
          0 -44 -1262 -26 -198 vhcurveto
          185 hlineto
          31 1195 414 -1195 rlineto
          195 hlineto
          412 1198 28 -1198 rlineto
          185 hlineto
          -29 198 -41 1262 0 vvcurveto
          -220 hlineto
          -435 -1255 -430 1255 rlineto
          endchar
        </CharString>
        <CharString name="N">
          373 0 100 -79 -21 1355 105 0 -20 hstem
          175 165 795 165 vstem
          1135 hmoveto
          165 1025 hlineto
          197 1 158 14 80 vhcurveto
          -180 -1157 hlineto
          -795 1157 rlineto
          -180 hlineto
          15 -80 0 -158 -197 vvcurveto
          -590 vlineto
          -197 0 -158 -15 -80 vhcurveto
          180 1152 hlineto
          endchar
        </CharString>
        <CharString name="Nacute">
          373 21 -21 1355 105 570 -20 hstemhm
          175 165 217 580 -2 165 hintmask 11110100
          1135 hmoveto
          165 1025 hlineto
          197 1 158 14 80 vhcurveto
          -180 -1157 hlineto
          -795 1157 rlineto
          -180 hlineto
          15 -80 0 -158 -197 vvcurveto
          -590 vlineto
          -197 0 -158 -15 -80 vhcurveto
          180 1152 hlineto
          567 878 rmoveto
          hintmask 11111000
          -350 -430 rlineto
          160 hlineto
          420 430 rlineto
          endchar
        </CharString>
        <CharString name="Ncaron">
          373 21 -21 1355 105 140 150 280 -20 hstemhm
          175 165 -28 850 -27 165 hintmask 11111010
          1135 hmoveto
          165 1025 hlineto
          197 1 158 14 80 vhcurveto
          -180 -1157 hlineto
          -795 1157 rlineto
          -180 hlineto
          15 -80 0 -158 -197 vvcurveto
          -590 vlineto
          -197 0 -158 -15 -80 vhcurveto
          180 1152 hlineto
          hintmask 11110100
          -28 878 rmoveto
          340 -430 rlineto
          170 hlineto
          340 430 rlineto
          -150 hlineto
          -275 -280 -275 280 rlineto
          endchar
        </CharString>
        <CharString name="Ncommaaccent">
          373 -470 -21 210 151 130 100 -79 -21 1355 105 0 -20 hstem
          175 165 397 105 293 165 vstem
          1135 hmoveto
          165 1025 hlineto
          197 1 158 14 80 vhcurveto
          -180 -1157 hlineto
          -795 1157 rlineto
          -180 hlineto
          15 -80 0 -158 -197 vvcurveto
          -590 vlineto
          -197 0 -158 -15 -80 vhcurveto
          180 1152 hlineto
          292 -1433 rmoveto
          105 hlineto
          -75 -58 -92 -43 -43 vhcurveto
          75 -29 rlineto
          88 81 43 93 92 vvcurveto
          74 -49 50 -59 -44 -49 -28 -47 -9 vhcurveto
          endchar
        </CharString>
        <CharString name="Ntilde">
          373 21 -21 1355 105 160 165 -65 165 hstemhm
          175 165 47 105 500 105 38 165 hintmask 11011111
          1135 hmoveto
          165 1025 hlineto
          197 1 158 14 80 vhcurveto
          -180 -1157 hlineto
          -795 1157 rlineto
          -180 hlineto
          15 -80 0 -158 -197 vvcurveto
          -590 vlineto
          -197 0 -158 -15 -80 vhcurveto
          180 1152 hlineto
          152 483 rmoveto
          49 5 31 36 49 hhcurveto
          37 41 -16 -36 77 hvcurveto
          hintmask 11101111
          -28 61 53 -20 53 hhcurveto
          123 75 122 128 hvcurveto
          -105 hlineto
          -46 -7 -31 -39 -47 hhcurveto
          -42 -41 19 29 -72 hvcurveto
          hintmask 11011111
          28 -70 -47 24 -56 hhcurveto
          -119 -73 -128 -122 hvcurveto
          endchar
        </CharString>
        <CharString name="O">
          333 -25 175 1160 175 hstem
          95 195 855 195 vstem
          1145 715 rmoveto
          -355 -180 -210 -245 -260 -170 230 365 346 177 219 253 254 171 -226 -369 vhcurveto
          195 25 rmoveto
          479 -292 266 -318 -323 -312 -286 -479 -479 293 -266 322 319 311 285 480 vhcurveto
          endchar
        </CharString>
        <CharString name="OE">
          823 -25 175 -150 165 520 160 450 165 -150 175 hstemhm
          95 195 785 180 hintmask 00000000
          hintmask 01110110
          1830 hmoveto
          180 vlineto
          -14 -80 -134 -1 -197 hhcurveto
          -164 520 470 160 -470 450 545 165 -735 -164 hlineto
          hintmask 10101110
          111 -89 -123 78 -163 hhcurveto
          -313 -282 -286 -479 -479 263 -266 312 149 141 75 115 105 hvcurveto
          hintmask 01101110
          -165 vlineto
          10 715 rmoveto
          hintmask 10101110
          -355 -150 -210 -245 -240 -150 230 365 346 157 219 233 vhcurveto
          hintmask 01101110
          254 141 -226 -369 hvcurveto
          endchar
        </CharString>
        <CharString name="Oacute">
          333 -25 175 1160 175 545 -20 hstemhm
          95 195 247 580 28 195 hintmask 11010100
          1145 715 rmoveto
          -355 -180 -210 -245 -260 -170 230 365 346 177 219 253 254 171 -226 -369 vhcurveto
          195 25 rmoveto
          479 -292 266 -318 -323 -312 -286 -479 -479 293 -266 322 319 311 285 480 vhcurveto
          hintmask 00101000
          -453 1290 rmoveto
          -350 -430 rlineto
          160 hlineto
          420 430 rlineto
          endchar
        </CharString>
        <CharString name="Obreve">
          333 -25 175 1160 175 95 150 hstemhm
          95 195 52 750 53 195 hintmask 11010100
          1145 715 rmoveto
          -355 -180 -210 -245 -260 -170 230 365 346 177 219 253 254 171 -226 -369 vhcurveto
          195 25 rmoveto
          479 -292 266 -318 -323 -312 -286 -479 -479 293 -266 322 319 311 285 480 vhcurveto
          hintmask 00101000
          -248 1240 rmoveto
          -122 hlineto
          -135 -20 -102 -115 -131 hhcurveto
          -130 -109 115 135 -16 hvcurveto
          -120 hlineto
          -194 140 -206 235 233 142 206 194 vhcurveto
          endchar
        </CharString>
        <CharString name="Ocircumflex">
          333 -25 175 1160 175 545 -20 hstemhm
          95 195 2 850 3 195 hintmask 11010100
          1145 715 rmoveto
          -355 -180 -210 -245 -260 -170 230 365 346 177 219 253 254 171 -226 -369 vhcurveto
          195 25 rmoveto
          479 -292 266 -318 -323 -312 -286 -479 -479 293 -266 322 319 311 285 480 vhcurveto
          hintmask 00000000
          -898 860 rmoveto
          hintmask 00101000
          275 280 275 -280 rlineto
          150 hlineto
          -340 430 rlineto
          -170 hlineto
          -340 -430 rlineto
          endchar
        </CharString>
        <CharString name="Odieresis">
          333 -25 175 1160 175 155 270 hstemhm
          95 195 87 260 160 260 88 195 hintmask 11010010
          1145 715 rmoveto
          -355 -180 -210 -245 -260 -170 230 365 346 177 219 253 254 171 -226 -369 vhcurveto
          195 25 rmoveto
          479 -292 266 -318 -323 -312 -286 -479 -479 293 -266 322 319 311 285 480 vhcurveto
          hintmask 00101100
          -543 1035 rmoveto
          -74 56 -61 74 75 55 61 74 74 -55 61 -75 -74 -56 -61 -74 vhcurveto
          -420 hmoveto
          -74 56 -61 74 75 55 61 74 74 -55 61 -75 -74 -56 -61 -74 vhcurveto
          endchar
        </CharString>
        <CharString name="Ograve">
          333 -25 175 1160 175 545 -20 hstemhm
          95 195 37 580 238 195 hintmask 11010100
          1145 715 rmoveto
          -355 -180 -210 -245 -260 -170 230 365 346 177 219 253 254 171 -226 -369 vhcurveto
          195 25 rmoveto
          479 -292 266 -318 -323 -312 -286 -479 -479 293 -266 322 319 311 285 480 vhcurveto
          hintmask 00101000
          -1013 1290 rmoveto
          420 -430 rlineto
          160 hlineto
          -350 430 rlineto
          endchar
        </CharString>
        <CharString name="Ohorn">
          393 -25 175 1160 175 65 220 hstemhm
          95 195 855 195 -30 150 hintmask 11110100
          1130 1550 rmoveto
          180 hlineto
          -110 -63 -100 -84 -58 vhcurveto
          133 -114 -156 70 -163 hhcurveto
          -323 -312 -286 -479 -479 293 -266 322 hvcurveto
          hintmask 11111000
          319 311 285 480 186 -44 153 -73 119 hvcurveto
          hintmask 11110100
          138 91 99 129 167 vvcurveto
          111 -75 74 -90 -87 -51 -36 -64 -27 vhcurveto
          hintmask 11111000
          15 -955 rmoveto
          -355 -180 -210 -245 -260 -170 230 365 346 177 219 253 254 171 -226 -369 vhcurveto
          endchar
        </CharString>
        <CharString name="Ohungarumlaut">
          333 -25 175 1160 175 95 450 hstemhm
          95 195 97 790 -32 195 hintmask 11010100
          1145 715 rmoveto
          -355 -180 -210 -245 -260 -170 230 365 346 177 219 253 254 171 -226 -369 vhcurveto
          195 25 rmoveto
          479 -292 266 -318 -323 -312 -286 -479 -479 293 -266 322 319 311 285 480 vhcurveto
          hintmask 00101000
          -373 1290 rmoveto
          -240 -450 rlineto
          140 hlineto
          310 450 rlineto
          -550 hmoveto
          -240 -450 rlineto
          140 hlineto
          310 450 rlineto
          endchar
        </CharString>
        <CharString name="Omacron">
          333 -25 175 1160 175 185 150 hstemhm
          95 195 52 750 53 195 hintmask 11010100
          1145 715 rmoveto
          -355 -180 -210 -245 -260 -170 230 365 346 177 219 253 254 171 -226 -369 vhcurveto
          195 25 rmoveto
          479 -292 266 -318 -323 -312 -286 -479 -479 293 -266 322 319 311 285 480 vhcurveto
          hintmask 00101000
          -998 930 rmoveto
          750 150 -750 hlineto
          endchar
        </CharString>
        <CharString name="Omega">
          486 0 165 -49 49 1145 175 hstemhm
          70 535 -470 195 653 535 -233 195 hintmask 10101100
          983 hmoveto
          535 180 hlineto
          -59 -10 -153 -4 -156 -1 rrcurveto
          hintmask 10101010
          152 130 178 197 318 vvcurveto
          438 -323 237 -352 -349 -321 -255 -455 -281 156 -200 137 -129 vhcurveto
          hintmask 10110010
          -152 1 -149 4 -57 10 rrcurveto
          -180 535 165 vlineto
          hintmask 01101010
          -133 150 -142 199 286 vvcurveto
          310 200 200 265 280 210 -182 -353 vhcurveto
          hintmask 01101100
          -280 -177 -209 -125 -121 vhcurveto
          endchar
        </CharString>
        <CharString name="Oslash">
          333 -25 175 1160 175 hstem
          95 195 855 195 vstem
          1060 1530 rmoveto
          -62 -114 rlineto
          45 -82 -92 24 -94 hhcurveto
          -323 -312 -286 -479 -259 85 -197 130 -126 hvcurveto
          -115 -213 rlineto
          148 hlineto
          71 132 rlineto
          -54 90 101 -28 105 hhcurveto
          319 311 285 480 273 -95 203 -140 125 hvcurveto
          101 189 rlineto
          -61 -815 rmoveto
          -355 -180 -210 -245 -84 -74 23 44 -62 vhcurveto
          513 953 rlineto
          83 -103 49 -156 -196 vvcurveto
          -855 30 rmoveto
          346 177 219 253 71 66 -18 -34 56 vhcurveto
          -508 -944 rlineto
          -74 103 -41 147 181 vvcurveto
          endchar
        </CharString>
        <CharString name="Oslashacute">
          333 -25 175 1160 175 545 -20 hstemhm
          95 195 247 580 28 195 hintmask 11010100
          1060 1530 rmoveto
          -62 -114 rlineto
          45 -82 -92 24 -94 hhcurveto
          -323 -312 -286 -479 -259 85 -197 130 -126 hvcurveto
          -115 -213 rlineto
          148 hlineto
          71 132 rlineto
          -54 90 101 -28 105 hhcurveto
          319 311 285 480 273 -95 203 -140 125 hvcurveto
          101 189 rlineto
          -61 -815 rmoveto
          -355 -180 -210 -245 -84 -74 23 44 -62 vhcurveto
          513 953 rlineto
          83 -103 49 -156 -196 vvcurveto
          -855 30 rmoveto
          346 177 219 253 71 66 -18 -34 56 vhcurveto
          -508 -944 rlineto
          -74 103 -41 147 181 vvcurveto
          hintmask 00101000
          597 1285 rmoveto
          -350 -430 rlineto
          160 hlineto
          420 430 rlineto
          endchar
        </CharString>
        <CharString name="Otilde">
          333 -25 175 1160 175 135 165 -65 165 hstemhm
          95 195 77 105 500 105 68 195 hintmask 11001001
          1145 715 rmoveto
          -355 -180 -210 -245 -260 -170 230 365 346 177 219 253 254 171 -226 -369 vhcurveto
          195 25 rmoveto
          479 -292 266 -318 -323 -312 -286 -479 -479 293 -266 322 319 311 285 480 vhcurveto
          hintmask 00000000
          -868 895 rmoveto
          49 5 31 36 49 hhcurveto
          37 41 -16 -36 77 hvcurveto
          hintmask 00010110
          -28 61 53 -20 53 hhcurveto
          123 75 122 128 hvcurveto
          -105 hlineto
          -46 -7 -31 -39 -47 hhcurveto
          -42 -41 19 29 -72 hvcurveto
          hintmask 00100110
          28 -70 -47 24 -56 hhcurveto
          -119 -73 -128 -122 hvcurveto
          endchar
        </CharString>
        <CharString name="P">
          68 21 -21 555 155 600 160 hstem
          175 190 560 190 vstem
          365 565 rmoveto
          -7 65 82 -3 73 hhcurveto
          329 201 181 294 292 -207 148 -323 -213 -212 -10 0 hvcurveto
          15 -80 0 -184 -196 vvcurveto
          -565 vlineto
          -197 0 -158 -15 -80 vhcurveto
          220 hlineto
          -14 78 -1 159 198 vvcurveto
          870 vmoveto
          3 68 48 2 94 hhcurveto
          266 84 -140 -160 -161 -75 -139 -280 -75 -67 2 8 -63 hvcurveto
          endchar
        </CharString>
        <CharString name="Pi">
          288 21 -21 1295 165 hstem
          175 190 660 190 vstem
          1025 1295 rmoveto
          -1295 205 vlineto
          -15 80 0 153 197 vvcurveto
          595 vlineto
          197 0 158 15 80 vhcurveto
          -1070 hlineto
          15 -80 0 -158 -197 vvcurveto
          -595 vlineto
          -197 0 -153 -15 -80 vhcurveto
          205 1295 hlineto
          endchar
        </CharString>
        <CharString name="Psi">
          348 21 -21 415 160 885 -20 hstem
          130 180 330 180 330 180 cntrmask 00011100
          1150 1460 rmoveto
          -385 vlineto
          -347 -90 -139 -240 -13 vhcurveto
          884 -180 -884 vlineto
          -240 13 -90 139 347 vvcurveto
          385 -210 vlineto
          24 -48 6 -72 -135 vvcurveto
          -210 vlineto
          -325 153 -238 357 -16 vhcurveto
          -1 -188 -5 -151 -14 -77 rrcurveto
          220 hlineto
          -15 77 -5 151 188 vvcurveto
          357 16 153 238 325 vvcurveto
          210 vlineto
          135 7 52 18 68 vhcurveto
          endchar
        </CharString>
        <CharString name="Q">
          348 -25 175 -150 150 1160 175 hstemhm
          95 195 855 195 hintmask 00000000
          hintmask 10111000
          1340 740 rmoveto
          479 -287 266 -323 -323 -312 -286 -479 -479 288 -266 322 62 51 7 18 57 vhcurveto
          hintmask 01111000
          69 292 -190 84 hhcurveto
          54 57 109 36 24 hvcurveto
          -134 17 -116 56 -125 77 rrcurveto
          hintmask 10111000
          176 131 84 243 261 vvcurveto
          -195 -25 rmoveto
          -355 -180 -210 -245 -260 -170 230 365 346 177 219 253 254 171 -226 -369 vhcurveto
          endchar
        </CharString>
        <CharString name="Q.DiagTail">
          333 -25 175 1160 175 hstem
          95 195 855 195 vstem
          1340 740 rmoveto
          479 -288 266 -323 -323 -311 -286 -479 -479 288 -266 322 92 92 24 44 84 vhcurveto
          -107 131 127 -96 29 hhcurveto
          21 122 90 30 12 hvcurveto
          -52 10 -118 88 -120 99 rrcurveto
          129 132 86 198 253 vvcurveto
          -700 -410 rmoveto
          -4 82 -73 105 -89 vhcurveto
          -9 -34 -36 -5 -37 hhcurveto
          -255 -175 230 365 346 180 219 248 254 173 -231 -364 -195 -56 -155 -94 -98 hvcurveto
          -101 88 -83 77 -16 13 rrcurveto
          endchar
        </CharString>
        <CharString name="R">
          178 21 -21 625 155 530 160 hstem
          175 190 535 190 vstem
          365 625 rmoveto
          203 hlineto
          422 -625 rlineto
          255 hlineto
          -54 59 -311 423 -119 163 rrcurveto
          162 46 167 126 243 vvcurveto
          289 -214 121 -311 -234 -171 -10 0 vhcurveto
          15 -80 0 -184 -196 vvcurveto
          -565 vlineto
          -197 0 -158 -15 -80 vhcurveto
          220 hlineto
          -14 78 -1 160 197 vvcurveto
          870 vmoveto
          2 53 67 3 70 hhcurveto
          245 100 -94 -171 -166 -120 -99 -225 hvcurveto
          -190 hlineto
          endchar
        </CharString>
        <CharString name="Racute">
          178 21 -21 625 155 530 160 560 -20 hstemhm
          175 190 65 580 -110 190 hintmask 11101010
          365 625 rmoveto
          203 hlineto
          422 -625 rlineto
          255 hlineto
          -54 59 -311 423 -119 163 rrcurveto
          162 46 167 126 243 vvcurveto
          289 -214 121 -311 -234 -171 -10 0 vhcurveto
          15 -80 0 -184 -196 vvcurveto
          -565 vlineto
          -197 0 -158 -15 -80 vhcurveto
          220 hlineto
          -14 78 -1 160 197 vvcurveto
          870 vmoveto
          2 53 67 3 70 hhcurveto
          245 100 -94 -171 -166 -120 -99 -225 hvcurveto
          -190 hlineto
          hintmask 00010100
          415 1250 rmoveto
          -350 -430 rlineto
          160 hlineto
          420 430 rlineto
          endchar
        </CharString>
        <CharString name="Rcaron">
          178 21 -21 625 155 530 160 130 150 280 -20 hstemhm
          175 190 -180 850 -135 190 hintmask 11100101
          365 625 rmoveto
          203 hlineto
          422 -625 rlineto
          255 hlineto
          -54 59 -311 423 -119 163 rrcurveto
          162 46 167 126 243 vvcurveto
          289 -214 121 -311 -234 -171 -10 0 vhcurveto
          15 -80 0 -184 -196 vvcurveto
          -565 vlineto
          -197 0 -158 -15 -80 vhcurveto
          220 hlineto
          -14 78 -1 160 197 vvcurveto
          870 vmoveto
          2 53 67 3 70 hhcurveto
          245 100 -94 -171 -166 -120 -99 -225 hvcurveto
          -190 hlineto
          hintmask 00011010
          -180 1250 rmoveto
          340 -430 rlineto
          170 hlineto
          340 430 rlineto
          -150 hlineto
          -275 -280 -275 280 rlineto
          endchar
        </CharString>
        <CharString name="Rcommaaccent">
          178 -470 -21 210 151 151 -21 625 155 530 160 hstemhm
          175 190 245 105 185 190 hintmask 00111101
          365 625 rmoveto
          203 hlineto
          422 -625 rlineto
          255 hlineto
          -54 59 -311 423 -119 163 rrcurveto
          162 46 167 126 243 vvcurveto
          289 -214 121 -311 -234 -171 -10 0 vhcurveto
          15 -80 0 -184 -196 vvcurveto
          -565 vlineto
          -197 0 -158 -15 -80 vhcurveto
          220 hlineto
          -14 78 -1 160 197 vvcurveto
          870 vmoveto
          2 53 67 3 70 hhcurveto
          245 100 -94 -171 -166 -120 -99 -225 hvcurveto
          -190 hlineto
          hintmask 11000010
          140 -1061 rmoveto
          105 hlineto
          -75 -58 -92 -43 -43 vhcurveto
          75 -29 rlineto
          88 81 43 93 92 vvcurveto
          74 -49 50 -59 -44 -49 -28 -47 -9 vhcurveto
          endchar
        </CharString>
        <CharString name="RtParen.Sophia">
          -861 -98 640 hstem
          128 70 vstem
          198 222 rmoveto
          112 -29 112 -54 96 vhcurveto
          -47 hlineto
          37 -102 23 -108 -110 vvcurveto
          -109 -24 -107 -36 -104 vhcurveto
          47 hlineto
          54 99 29 109 112 vvcurveto
          endchar
        </CharString>
        <CharString name="S">
          48 -25 175 1160 175 hstem
          135 190 550 190 vstem
          1000 1395 rmoveto
          63 -130 -111 27 -154 hhcurveto
          -332 -138 -235 -170 -170 68 -132 312 -93 hvcurveto
          312 -94 48 -81 -105 vvcurveto
          -162 -149 -93 -161 -148 -145 50 115 -132 vhcurveto
          -45 -205 rlineto
          -79 102 175 -56 193 hhcurveto
          273 227 182 268 216 -145 121 -265 78 hvcurveto
          -285 83 -45 62 110 vvcurveto
          110 110 105 160 128 94 -31 -79 143 vhcurveto
          endchar
        </CharString>
        <CharString name="Sacute">
          48 -25 175 1160 175 545 -20 hstemhm
          135 190 75 580 -105 190 hintmask 11010100
          1000 1395 rmoveto
          63 -130 -111 27 -154 hhcurveto
          -332 -138 -235 -170 -170 68 -132 312 -93 hvcurveto
          312 -94 48 -81 -105 vvcurveto
          -162 -149 -93 -161 -148 -145 50 115 -132 vhcurveto
          -45 -205 rlineto
          -79 102 175 -56 193 hhcurveto
          273 227 182 268 216 -145 121 -265 78 hvcurveto
          -285 83 -45 62 110 vvcurveto
          110 110 105 160 128 94 -31 -79 143 vhcurveto
          hintmask 00101000
          -210 830 rmoveto
          -350 -430 rlineto
          160 hlineto
          420 430 rlineto
          endchar
        </CharString>
        <CharString name="Scaron">
          48 -25 175 1160 175 115 150 280 -20 hstemhm
          135 190 -170 850 -130 190 hintmask 11001010
          1000 1395 rmoveto
          63 -130 -111 27 -154 hhcurveto
          -332 -138 -235 -170 -170 68 -132 312 -93 hvcurveto
          312 -94 48 -81 -105 vvcurveto
          -162 -149 -93 -161 -148 -145 50 115 -132 vhcurveto
          -45 -205 rlineto
          -79 102 175 -56 193 hhcurveto
          273 227 182 268 216 -145 121 -265 78 hvcurveto
          -285 83 -45 62 110 vvcurveto
          110 110 105 160 128 94 -31 -79 143 vhcurveto
          hintmask 00110100
          -805 830 rmoveto
          340 -430 rlineto
          170 hlineto
          340 430 rlineto
          -150 hlineto
          -275 -280 -275 280 rlineto
          endchar
        </CharString>
        <CharString name="Scedilla">
          48 -480 110 190 180 -25 175 1160 175 hstemhm
          135 190 180 125 60 145 40 190 hintmask 00111001
          1000 1395 rmoveto
          63 -130 -111 27 -154 hhcurveto
          -332 -138 -235 -170 -170 68 -132 312 -93 hvcurveto
          312 -94 48 -81 -105 vvcurveto
          -162 -149 -93 -161 -148 -145 50 115 -132 vhcurveto
          -45 -205 rlineto
          -79 102 175 -56 193 hhcurveto
          273 227 182 268 216 -145 121 -265 78 hvcurveto
          -285 83 -45 62 110 vvcurveto
          110 110 105 160 128 94 -31 -79 143 vhcurveto
          hintmask 11000110
          -455 -1200 rmoveto
          -205 vlineto
          13 21 35 12 32 hhcurveto
          54 42 -38 -52 1 hvcurveto
          -75 -3 -72 -25 -60 hhcurveto
          -42 -29 9 21 -29 hvcurveto
          -10 -100 rlineto
          -23 41 42 -17 52 hhcurveto
          119 136 84 136 99 -66 71 -91 -22 -13 -2 -3 -13 hvcurveto
          95 vlineto
          endchar
        </CharString>
        <CharString name="Scedilla.CommaStyle">
          48 -470 -21 210 151 105 175 1160 175 hstemhm
          135 190 255 105 190 190 hintmask 00111010
          1000 1395 rmoveto
          63 -130 -111 27 -154 hhcurveto
          -332 -138 -235 -170 -170 68 -132 312 -93 hvcurveto
          312 -94 48 -81 -105 vvcurveto
          -162 -149 -93 -161 -148 -145 50 115 -132 vhcurveto
          -45 -205 rlineto
          -79 102 175 -56 193 hhcurveto
          273 227 182 268 216 -145 121 -265 78 hvcurveto
          -285 83 -45 62 110 vvcurveto
          110 110 105 160 128 94 -31 -79 143 vhcurveto
          hintmask 11000100
          -485 -1481 rmoveto
          105 hlineto
          -75 -58 -92 -43 -43 vhcurveto
          75 -29 rlineto
          88 81 43 93 92 vvcurveto
          74 -49 50 -59 -44 -49 -28 -47 -9 vhcurveto
          endchar
        </CharString>
        <CharString name="Scircumflex">
          48 -25 175 1160 175 545 -20 hstemhm
          135 190 -170 850 -130 190 hintmask 11010100
          1000 1395 rmoveto
          63 -130 -111 27 -154 hhcurveto
          -332 -138 -235 -170 -170 68 -132 312 -93 hvcurveto
          312 -94 48 -81 -105 vvcurveto
          -162 -149 -93 -161 -148 -145 50 115 -132 vhcurveto
          -45 -205 rlineto
          -79 102 175 -56 193 hhcurveto
          273 227 182 268 216 -145 121 -265 78 hvcurveto
          -285 83 -45 62 110 vvcurveto
          110 110 105 160 128 94 -31 -79 143 vhcurveto
          hintmask 00000000
          -655 400 rmoveto
          hintmask 00101000
          275 280 275 -280 rlineto
          150 hlineto
          -340 430 rlineto
          -170 hlineto
          -340 -430 rlineto
          endchar
        </CharString>
        <CharString name="T">
          138 21 -21 1295 165 hstem
          525 190 vstem
          45 1460 rmoveto
          -185 vlineto
          17 80 76 3 89 hhcurveto
          235 -860 hlineto
          -197 -3 -158 -17 -80 vhcurveto
          230 hlineto
          -17 80 -3 158 197 vvcurveto
          860 240 vlineto
          90 75 -3 -17 80 hvcurveto
          185 vlineto
          endchar
        </CharString>
        <CharString name="Tbar">
          138 21 -21 690 145 460 165 hstem
          525 190 vstem
          260 835 rmoveto
          -145 265 -255 vlineto
          -197 -3 -158 -17 -80 vhcurveto
          230 hlineto
          -17 80 -3 158 197 vvcurveto
          255 265 145 -265 460 240 vlineto
          90 75 -3 -17 80 hvcurveto
          185 -1155 -185 vlineto
          17 80 76 3 89 hhcurveto
          235 -460 hlineto
          endchar
        </CharString>
        <CharString name="Tcaron">
          138 21 -21 1295 165 140 150 280 -20 hstemhm
          197 850 -522 190 hintmask 11000100
          45 1460 rmoveto
          -185 vlineto
          17 80 76 3 89 hhcurveto
          235 -860 hlineto
          -197 -3 -158 -17 -80 vhcurveto
          230 hlineto
          -17 80 -3 158 197 vvcurveto
          860 240 vlineto
          90 75 -3 -17 80 hvcurveto
          185 vlineto
          hintmask 00111000
          -1003 570 rmoveto
          340 -430 rlineto
          170 hlineto
          340 430 rlineto
          -150 hlineto
          -275 -280 -275 280 rlineto
          endchar
        </CharString>
        <CharString name="Theta">
          333 -25 175 535 160 465 175 hstem
          95 195 160 535 160 195 cntrmask 00011100
          1145 715 rmoveto
          -355 -180 -210 -245 -260 -170 230 365 346 177 219 253 254 171 -226 -369 vhcurveto
          195 25 rmoveto
          479 -292 266 -318 -323 -312 -286 -479 -479 293 -266 322 319 311 285 480 vhcurveto
          -890 105 rmoveto
          -160 535 160 vlineto
          endchar
        </CharString>
        <CharString name="Thorn">
          69 21 -21 285 155 600 160 260 -20 hstem
          175 190 560 191 vstem
          365 295 rmoveto
          -7 65 83 -3 73 hhcurveto
          329 201 181 294 292 -207 148 -323 -79 -74 -2 -1 -68 hvcurveto
          263 -205 vlineto
          15 -80 0 -184 -196 vvcurveto
          -565 vlineto
          -197 0 -158 -15 -80 vhcurveto
          220 hlineto
          -14 78 -1 217 0 vvcurveto
          740 vmoveto
          3 68 48 2 94 hhcurveto
          266 84 -140 -160 -161 -75 -139 -280 -75 -67 2 8 -63 hvcurveto
          endchar
        </CharString>
        <CharString name="TnLtrBar">
          -4 -21 1625 -20 hstem
          -60 120 vstem
          60 35 rmoveto
          1505 vlineto
          33 -27 27 -33 -33 -27 -27 -33 vhcurveto
          -1505 vlineto
          -33 27 -27 33 33 27 27 33 vhcurveto
          endchar
        </CharString>
        <CharString name="TnLtrDot1">
          -4 -21 1625 -20 hstem
          -60 120 vstem
          -25 vmoveto
          50 40 40 50 50 -40 40 -50 -50 -40 -40 -50 -50 40 -40 50 hvcurveto
          endchar
        </CharString>
        <CharString name="TnLtrDot2">
          -4 -21 1625 -20 hstem
          -60 120 vstem
          336 vmoveto
          50 40 40 50 50 -40 40 -50 -50 -40 -40 -50 -50 40 -40 50 hvcurveto
          endchar
        </CharString>
        <CharString name="TnLtrDot3">
          -4 -21 1625 -20 hstem
          -60 120 vstem
          697 vmoveto
          50 40 40 50 50 -40 40 -50 -50 -40 -40 -50 -50 40 -40 50 hvcurveto
          endchar
        </CharString>
        <CharString name="TnLtrDot4">
          -4 -21 1625 -20 hstem
          -60 120 vstem
          1058 vmoveto
          50 40 40 50 50 -40 40 -50 -50 -40 -40 -50 -50 40 -40 50 hvcurveto
          endchar
        </CharString>
        <CharString name="TnLtrDot5">
          -4 -21 1625 -20 hstem
          -60 120 vstem
          1420 vmoveto
          50 40 40 50 50 -40 40 -50 -50 -40 -40 -50 -50 40 -40 50 hvcurveto
          endchar
        </CharString>
        <CharString name="TnLtrSeg11">
          -647 -25 120 hstem
          -59 598 vstem
          1 -25 rmoveto
          478 hlineto
          33 27 27 33 33 -27 27 -33 hvcurveto
          -478 hlineto
          -33 -27 -27 -33 -33 27 -27 33 hvcurveto
          endchar
        </CharString>
        <CharString name="TnLtrSeg12">
          -647 -3 -21 hstem
          -58 596 vstem
          38 -12 rmoveto
          478 376 26 20 4 38 -20 26 rlinecurve
          -20 26 -38 4 -26 -20 -478 -376 rcurveline
          -26 -20 -4 -38 20 -26 20 -26 38 -4 26 20 rrcurveto
          endchar
        </CharString>
        <CharString name="TnLtrSeg13">
          -647 -4 -21 hstem
          -59 598 vstem
          52 3 rmoveto
          478 752 18 28 -9 37 -28 18 rlinecurve
          -28 18 -37 -9 -18 -28 -478 -752 rcurveline
          -18 -28 9 -37 28 -18 28 -18 37 9 18 28 rrcurveto
          endchar
        </CharString>
        <CharString name="TnLtrSeg14">
          -647 -4 -21 hstem
          -59 598 vstem
          56 12 rmoveto
          478 1128 13 30 -15 35 -30 13 rlinecurve
          -30 13 -35 -15 -13 -30 -478 -1128 rcurveline
          -13 -30 15 -35 30 -13 30 -13 35 15 13 30 rrcurveto
          endchar
        </CharString>
        <CharString name="TnLtrSeg15">
          -647 -24 1623 hstem
          -58 596 vstem
          58 17 rmoveto
          478 1505 10 31 -18 34 -31 10 rlinecurve
          -31 10 -34 -18 -10 -31 -478 -1505 rcurveline
          -10 -31 18 -34 31 -10 31 -10 34 18 10 31 rrcurveto
          endchar
        </CharString>
        <CharString name="TnLtrSeg21">
          -647 -3 -21 hstem
          -58 596 vstem
          -36 364 rmoveto
          478 -376 26 -20 38 4 20 26 rlinecurve
          20 26 -4 38 -26 20 -478 376 rcurveline
          -26 20 -38 -4 -20 -26 -20 -26 4 -38 26 -20 rrcurveto
          endchar
        </CharString>
        <CharString name="TnLtrSeg22">
          -647 351 120 hstem
          -59 598 vstem
          1 351 rmoveto
          478 hlineto
          33 27 27 33 33 -27 27 -33 hvcurveto
          -478 hlineto
          -33 -27 -27 -33 -33 27 -27 33 hvcurveto
          endchar
        </CharString>
        <CharString name="TnLtrSeg23">
          -647 352 494 hstem
          -58 596 vstem
          38 364 rmoveto
          478 376 26 20 4 38 -20 26 rlinecurve
          -20 26 -38 4 -26 -20 -478 -376 rcurveline
          -26 -20 -4 -38 20 -26 20 -26 38 -4 26 20 rrcurveto
          endchar
        </CharString>
        <CharString name="TnLtrSeg24">
          -647 351 872 hstem
          -59 598 vstem
          52 379 rmoveto
          478 752 18 28 -9 37 -28 18 rlinecurve
          -28 18 -37 -9 -18 -28 -478 -752 rcurveline
          -18 -28 9 -37 28 -18 28 -18 37 9 18 28 rrcurveto
          endchar
        </CharString>
        <CharString name="TnLtrSeg25">
          -647 1600 -20 hstem
          -59 598 vstem
          56 388 rmoveto
          478 1129 13 30 -15 35 -30 13 rlinecurve
          -30 13 -35 -15 -13 -30 -478 -1129 rcurveline
          -13 -30 15 -35 30 -13 30 -13 35 15 13 30 rrcurveto
          endchar
        </CharString>
        <CharString name="TnLtrSeg31">
          -647 -4 -21 hstem
          -59 598 vstem
          -50 755 rmoveto
          478 -752 18 -28 37 -9 28 18 rlinecurve
          28 18 9 37 -18 28 -478 752 rcurveline
          -18 28 -37 9 -28 -18 -28 -18 -9 -37 18 -28 rrcurveto
          endchar
        </CharString>
        <CharString name="TnLtrSeg32">
          -647 352 494 hstem
          -58 596 vstem
          -36 740 rmoveto
          478 -376 26 -20 38 4 20 26 rlinecurve
          20 26 -4 38 -26 20 -478 376 rcurveline
          -26 20 -38 -4 -20 -26 -20 -26 4 -38 26 -20 rrcurveto
          endchar
        </CharString>
        <CharString name="TnLtrSeg33">
          -647 727 120 hstem
          -59 598 vstem
          1 727 rmoveto
          478 hlineto
          33 27 27 33 33 -27 27 -33 hvcurveto
          -478 hlineto
          -33 -27 -27 -33 -33 27 -27 33 hvcurveto
          endchar
        </CharString>
        <CharString name="TnLtrSeg34">
          -647 728 494 hstem
          -58 596 vstem
          38 740 rmoveto
          478 376 26 20 4 38 -20 26 rlinecurve
          -20 26 -38 4 -26 -20 -478 -376 rcurveline
          -26 -20 -4 -38 20 -26 20 -26 38 -4 26 20 rrcurveto
          endchar
        </CharString>
        <CharString name="TnLtrSeg35">
          -647 1600 -20 hstem
          -59 598 vstem
          52 755 rmoveto
          478 753 18 28 -9 37 -28 18 rlinecurve
          -28 18 -37 -9 -18 -28 -478 -753 rcurveline
          -18 -28 9 -37 28 -18 28 -18 37 9 18 28 rrcurveto
          endchar
        </CharString>
        <CharString name="TnLtrSeg41">
          -647 -4 -21 hstem
          -59 598 vstem
          -54 1140 rmoveto
          478 -1128 13 -30 35 -15 30 13 rlinecurve
          30 13 15 35 -13 30 -478 1128 rcurveline
          -13 30 -35 15 -30 -13 -30 -13 -15 -35 13 -30 rrcurveto
          endchar
        </CharString>
        <CharString name="TnLtrSeg42">
          -647 351 872 hstem
          -59 598 vstem
          -50 1131 rmoveto
          478 -752 18 -28 37 -9 28 18 rlinecurve
          28 18 9 37 -18 28 -478 752 rcurveline
          -18 28 -37 9 -28 -18 -28 -18 -9 -37 18 -28 rrcurveto
          endchar
        </CharString>
        <CharString name="TnLtrSeg43">
          -647 728 494 hstem
          -58 596 vstem
          -36 1116 rmoveto
          478 -376 26 -20 38 4 20 26 rlinecurve
          20 26 -4 38 -26 20 -478 376 rcurveline
          -26 20 -38 -4 -20 -26 -20 -26 4 -38 26 -20 rrcurveto
          endchar
        </CharString>
        <CharString name="TnLtrSeg44">
          -647 1103 120 hstem
          -59 598 vstem
          1 1103 rmoveto
          478 hlineto
          33 27 27 33 33 -27 27 -33 hvcurveto
          -478 hlineto
          -33 -27 -27 -33 -33 27 -27 33 hvcurveto
          endchar
        </CharString>
        <CharString name="TnLtrSeg45">
          -647 1599 -20 hstem
          -58 596 vstem
          38 1116 rmoveto
          478 377 26 20 4 38 -20 26 rlinecurve
          -20 26 -38 4 -26 -20 -478 -377 rcurveline
          -26 -20 -4 -38 20 -26 20 -26 38 -4 26 20 rrcurveto
          endchar
        </CharString>
        <CharString name="TnLtrSeg51">
          -647 -24 1623 hstem
          -58 596 vstem
          -56 1522 rmoveto
          478 -1505 10 -31 34 -18 31 10 rlinecurve
          31 10 18 34 -10 31 -478 1505 rcurveline
          -10 31 -34 18 -31 -10 -31 -10 -18 -34 10 -31 rrcurveto
          endchar
        </CharString>
        <CharString name="TnLtrSeg52">
          -647 1600 -20 hstem
          -59 598 vstem
          -54 1517 rmoveto
          478 -1129 13 -30 35 -15 30 13 rlinecurve
          30 13 15 35 -13 30 -478 1129 rcurveline
          -13 30 -35 15 -30 -13 -30 -13 -15 -35 13 -30 rrcurveto
          endchar
        </CharString>
        <CharString name="TnLtrSeg53">
          -647 1600 -20 hstem
          -59 598 vstem
          -50 1508 rmoveto
          478 -753 18 -28 37 -9 28 18 rlinecurve
          28 18 9 37 -18 28 -478 753 rcurveline
          -18 28 -37 9 -28 -18 -28 -18 -9 -37 18 -28 rrcurveto
          endchar
        </CharString>
        <CharString name="TnLtrSeg54">
          -647 1599 -20 hstem
          -58 596 vstem
          -36 1493 rmoveto
          478 -377 26 -20 38 4 20 26 rlinecurve
          20 26 -4 38 -26 20 -478 377 rcurveline
          -26 20 -38 -4 -20 -26 -20 -26 4 -38 26 -20 rrcurveto
          endchar
        </CharString>
        <CharString name="TnLtrSeg55">
          -647 1480 120 hstem
          -59 598 vstem
          1 1480 rmoveto
          478 hlineto
          33 27 27 33 33 -27 27 -33 hvcurveto
          -478 hlineto
          -33 -27 -27 -33 -33 27 -27 33 hvcurveto
          endchar
        </CharString>
        <CharString name="TnLtrSpcDotLeft">
          -917 endchar
        </CharString>
        <CharString name="TnLtrSpcDotMiddle">
          -777 endchar
        </CharString>
        <CharString name="TnLtrSpcDotRight">
          -877 endchar
        </CharString>
        <CharString name="TnLtrSpcFlatLeft">
          -947 endchar
        </CharString>
        <CharString name="TnLtrSpcFlatRight">
          -907 endchar
        </CharString>
        <CharString name="TnLtrSpcPointLeft">
          -968 endchar
        </CharString>
        <CharString name="TnLtrSpcPointRight">
          -928 endchar
        </CharString>
        <CharString name="U">
          313 -25 160 1325 -20 hstem
          175 190 685 190 vstem
          1050 1460 rmoveto
          -900 vlineto
          -261 -82 -164 -258 -263 -82 164 261 vhcurveto
          900 -205 vlineto
          14 -80 1 -158 -197 vvcurveto
          -510 vlineto
          -325 170 -215 365 361 169 215 325 vhcurveto
          510 vlineto
          207 2 148 13 80 vhcurveto
          endchar
        </CharString>
        <CharString name="Uacute">
          313 -25 160 1325 -20 590 -20 hstemhm
          175 190 162 580 -57 190 hintmask 11010100
          1050 1460 rmoveto
          -900 vlineto
          -261 -82 -164 -258 -263 -82 164 261 vhcurveto
          900 -205 vlineto
          14 -80 1 -158 -197 vvcurveto
          -510 vlineto
          -325 170 -215 365 361 169 215 325 vhcurveto
          510 vlineto
          207 2 148 13 80 vhcurveto
          hintmask 00101000
          -378 570 rmoveto
          -350 -430 rlineto
          160 hlineto
          420 430 rlineto
          endchar
        </CharString>
        <CharString name="Ubreve">
          313 -25 160 1325 -20 140 150 hstemhm
          175 190 -33 750 -32 190 hintmask 11010100
          1050 1460 rmoveto
          -900 vlineto
          -261 -82 -164 -258 -263 -82 164 261 vhcurveto
          900 -205 vlineto
          14 -80 1 -158 -197 vvcurveto
          -510 vlineto
          -325 170 -215 365 361 169 215 325 vhcurveto
          510 vlineto
          207 2 148 13 80 vhcurveto
          hintmask 00101000
          -173 520 rmoveto
          -122 hlineto
          -135 -20 -102 -115 -131 hhcurveto
          -130 -109 115 135 -16 hvcurveto
          -120 hlineto
          -194 140 -206 235 233 142 206 194 vhcurveto
          endchar
        </CharString>
        <CharString name="Ucircumflex">
          313 -25 160 1325 -20 590 -20 hstemhm
          175 190 -83 850 -82 190 hintmask 11010100
          1050 1460 rmoveto
          -900 vlineto
          -261 -82 -164 -258 -263 -82 164 261 vhcurveto
          900 -205 vlineto
          14 -80 1 -158 -197 vvcurveto
          -510 vlineto
          -325 170 -215 365 361 169 215 325 vhcurveto
          510 vlineto
          207 2 148 13 80 vhcurveto
          hintmask 00000000
          -823 140 rmoveto
          hintmask 00101000
          275 280 275 -280 rlineto
          150 hlineto
          -340 430 rlineto
          -170 hlineto
          -340 -430 rlineto
          endchar
        </CharString>
        <CharString name="Udieresis">
          313 -25 160 1325 -20 200 270 hstemhm
          175 190 2 260 160 260 3 190 hintmask 11010010
          1050 1460 rmoveto
          -900 vlineto
          -261 -82 -164 -258 -263 -82 164 261 vhcurveto
          900 -205 vlineto
          14 -80 1 -158 -197 vvcurveto
          -510 vlineto
          -325 170 -215 365 361 169 215 325 vhcurveto
          510 vlineto
          207 2 148 13 80 vhcurveto
          hintmask 00101100
          -468 315 rmoveto
          -74 56 -61 74 75 55 61 74 74 -55 61 -75 -74 -56 -61 -74 vhcurveto
          -420 hmoveto
          -74 56 -61 74 75 55 61 74 74 -55 61 -75 -74 -56 -61 -74 vhcurveto
          endchar
        </CharString>
        <CharString name="Ugrave">
          313 -25 160 1325 -20 590 -20 hstemhm
          175 190 -48 580 153 190 hintmask 11010100
          1050 1460 rmoveto
          -900 vlineto
          -261 -82 -164 -258 -263 -82 164 261 vhcurveto
          900 -205 vlineto
          14 -80 1 -158 -197 vvcurveto
          -510 vlineto
          -325 170 -215 365 361 169 215 325 vhcurveto
          510 vlineto
          207 2 148 13 80 vhcurveto
          hintmask 00101000
          -938 570 rmoveto
          420 -430 rlineto
          160 hlineto
          -350 430 rlineto
          endchar
        </CharString>
        <CharString name="Uhorn">
          518 -25 160 1325 -20 140 220 hstem
          175 190 685 190 185 150 vstem
          1245 1580 rmoveto
          180 hlineto
          -125 -97 -155 -88 -63 vhcurveto
          223 -190 -900 vlineto
          -261 -82 -164 -258 -263 -82 164 261 vhcurveto
          900 -205 vlineto
          14 -80 1 -158 -197 vvcurveto
          -510 vlineto
          -325 170 -215 365 361 169 215 325 vhcurveto
          607 vlineto
          176 90 159 213 190 vvcurveto
          111 -75 74 -90 -87 -51 -36 -64 -27 vhcurveto
          endchar
        </CharString>
        <CharString name="Uhungarumlaut">
          313 -25 160 1325 -20 140 450 hstemhm
          175 190 12 790 -117 190 hintmask 11010100
          1050 1460 rmoveto
          -900 vlineto
          -261 -82 -164 -258 -263 -82 164 261 vhcurveto
          900 -205 vlineto
          14 -80 1 -158 -197 vvcurveto
          -510 vlineto
          -325 170 -215 365 361 169 215 325 vhcurveto
          510 vlineto
          207 2 148 13 80 vhcurveto
          hintmask 00101000
          -298 570 rmoveto
          -240 -450 rlineto
          140 hlineto
          310 450 rlineto
          -550 hmoveto
          -240 -450 rlineto
          140 hlineto
          310 450 rlineto
          endchar
        </CharString>
        <CharString name="Umacron">
          313 -25 160 1325 -20 230 150 hstemhm
          175 190 -33 750 -32 190 hintmask 11010100
          1050 1460 rmoveto
          -900 vlineto
          -261 -82 -164 -258 -263 -82 164 261 vhcurveto
          900 -205 vlineto
          14 -80 1 -158 -197 vvcurveto
          -510 vlineto
          -325 170 -215 365 361 169 215 325 vhcurveto
          510 vlineto
          207 2 148 13 80 vhcurveto
          hintmask 00101000
          -923 210 rmoveto
          750 150 -750 hlineto
          endchar
        </CharString>
        <CharString name="Uogonek">
          313 -430 115 290 160 1325 -20 hstemhm
          175 190 243 140 302 190 hintmask 01110100
          1050 1460 rmoveto
          -900 vlineto
          -261 -82 -164 -258 -263 -82 164 261 vhcurveto
          900 -205 vlineto
          14 -80 1 -158 -197 vvcurveto
          -510 vlineto
          -325 170 -215 365 361 169 215 325 vhcurveto
          510 vlineto
          207 2 148 13 80 vhcurveto
          hintmask 10001000
          -487 -1460 rmoveto
          -104 -50 -56 -71 -104 vvcurveto
          -120 118 -85 122 74 73 32 58 58 vhcurveto
          -30 100 rlineto
          -44 -37 -75 -31 -43 hhcurveto
          -74 -46 45 75 70 57 60 103 65 hvcurveto
          endchar
        </CharString>
        <CharString name="Uogonek.RetroHookStyle">
          313 -470 135 310 160 1325 -20 hstemhm
          175 190 274 135 276 190 hintmask 01110100
          1050 1460 rmoveto
          -900 vlineto
          -261 -82 -164 -258 -263 -82 164 261 vhcurveto
          900 -205 vlineto
          14 -80 1 -158 -197 vvcurveto
          -510 vlineto
          -325 170 -215 365 361 169 215 325 vhcurveto
          510 vlineto
          207 2 148 13 80 vhcurveto
          hintmask 10001000
          -236 -1750 rmoveto
          -28 -43 -41 -17 -56 hhcurveto
          -57 -48 50 75 hvcurveto
          250 -135 -260 vlineto
          -153 85 -97 120 69 68 17 38 53 vhcurveto
          endchar
        </CharString>
        <CharString name="Uring">
          313 -25 160 1325 -20 160 115 200 115 hstemhm
          175 190 129 115 200 115 126 190 hintmask 11001001
          1050 1460 rmoveto
          -900 vlineto
          -261 -82 -164 -258 -263 -82 164 261 vhcurveto
          900 -205 vlineto
          14 -80 1 -158 -197 vvcurveto
          -510 vlineto
          -325 170 -215 365 361 169 215 325 vhcurveto
          510 vlineto
          207 2 148 13 80 vhcurveto
          hintmask 00110110
          -446 355 rmoveto
          -60 -40 -40 -60 -60 -40 40 60 60 40 40 60 60 40 -40 -60 vhcurveto
          -315 hmoveto
          -120 95 -95 120 120 95 95 120 120 -95 95 -120 -120 -95 -95 -120 vhcurveto
          endchar
        </CharString>
        <CharString name="Utilde">
          313 -25 160 1325 -20 180 165 -65 165 hstemhm
          175 190 -8 105 500 105 -17 190 hintmask 11001001
          1050 1460 rmoveto
          -900 vlineto
          -261 -82 -164 -258 -263 -82 164 261 vhcurveto
          900 -205 vlineto
          14 -80 1 -158 -197 vvcurveto
          -510 vlineto
          -325 170 -215 365 361 169 215 325 vhcurveto
          510 vlineto
          207 2 148 13 80 vhcurveto
          hintmask 00000000
          -793 175 rmoveto
          49 5 31 36 49 hhcurveto
          37 41 -16 -36 77 hvcurveto
          hintmask 00010110
          -28 61 53 -20 53 hhcurveto
          123 75 122 128 hvcurveto
          -105 hlineto
          -46 -7 -31 -39 -47 hhcurveto
          -42 -41 19 29 -72 hvcurveto
          hintmask 00100110
          28 -70 -47 24 -56 hhcurveto
          -119 -73 -128 -122 hvcurveto
          endchar
        </CharString>
        <CharString name="V">
          238 21 -21 1460 -20 hstem
          35 1275 vstem
          1095 1460 rmoveto
          -423 -1265 -422 1265 rlineto
          -215 hlineto
          33 -82 33 -90 69 -193 390 -1095 rcurveline
          225 hlineto
          385 1095 68 194 36 89 36 82 rlinecurve
          endchar
        </CharString>
        <CharString name="W">
          953 21 -21 1460 -20 hstem
          40 1975 vstem
          1120 1460 rmoveto
          -185 hlineto
          -359 -1274 -316 1274 rlineto
          -220 hlineto
          31 -79 31 -95 53 -191 305 -1095 rcurveline
          225 hlineto
          342 1176 343 -1176 rlineto
          225 hlineto
          305 1095 54 194 29 89 32 82 rlinecurve
          -220 hlineto
          -311 -1274 rlineto
          endchar
        </CharString>
        <CharString name="Wacute">
          953 21 -21 1460 -20 590 -20 hstemhm
          40 1975 -1168 580 hintmask 11010000
          1120 1460 rmoveto
          -185 hlineto
          -359 -1274 -316 1274 rlineto
          -220 hlineto
          31 -79 31 -95 53 -191 305 -1095 rcurveline
          225 hlineto
          342 1176 343 -1176 rlineto
          225 hlineto
          305 1095 54 194 29 89 32 82 rlinecurve
          -220 hlineto
          -311 -1274 rlineto
          hintmask 00101000
          -287 1844 rmoveto
          -350 -430 rlineto
          160 hlineto
          420 430 rlineto
          endchar
        </CharString>
        <CharString name="Wcircumflex">
          953 21 -21 1460 -20 590 -20 hstemhm
          40 1975 -1413 850 hintmask 11010000
          1120 1460 rmoveto
          -185 hlineto
          -359 -1274 -316 1274 rlineto
          -220 hlineto
          31 -79 31 -95 53 -191 305 -1095 rcurveline
          225 hlineto
          342 1176 343 -1176 rlineto
          225 hlineto
          305 1095 54 194 29 89 32 82 rlinecurve
          -220 hlineto
          -311 -1274 rlineto
          hintmask 00000000
          -732 1414 rmoveto
          hintmask 00101000
          275 280 275 -280 rlineto
          150 hlineto
          -340 430 rlineto
          -170 hlineto
          -340 -430 rlineto
          endchar
        </CharString>
        <CharString name="Wdieresis">
          953 21 -21 1460 -20 200 270 hstemhm
          40 1975 -1328 260 160 260 hintmask 11010000
          1120 1460 rmoveto
          -185 hlineto
          -359 -1274 -316 1274 rlineto
          -220 hlineto
          31 -79 31 -95 53 -191 305 -1095 rcurveline
          225 hlineto
          342 1176 343 -1176 rlineto
          225 hlineto
          305 1095 54 194 29 89 32 82 rlinecurve
          -220 hlineto
          -311 -1274 rlineto
          hintmask 00101100
          -377 1589 rmoveto
          -74 56 -61 74 75 55 61 74 74 -55 61 -75 -74 -56 -61 -74 vhcurveto
          -420 hmoveto
          -74 56 -61 74 75 55 61 74 74 -55 61 -75 -74 -56 -61 -74 vhcurveto
          endchar
        </CharString>
        <CharString name="Wgrave">
          953 21 -21 1460 -20 590 -20 hstemhm
          40 1975 -1378 580 hintmask 11010000
          1120 1460 rmoveto
          -185 hlineto
          -359 -1274 -316 1274 rlineto
          -220 hlineto
          31 -79 31 -95 53 -191 305 -1095 rcurveline
          225 hlineto
          342 1176 343 -1176 rlineto
          225 hlineto
          305 1095 54 194 29 89 32 82 rlinecurve
          -220 hlineto
          -311 -1274 rlineto
          hintmask 00101000
          -847 1844 rmoveto
          420 -430 rlineto
          160 hlineto
          -350 430 rlineto
          endchar
        </CharString>
        <CharString name="X">
          198 21 -21 1460 -20 hstem
          40 1220 vstem
          537 781 rmoveto
          -272 -441 -129 -208 -33 -46 -63 -86 rlinecurve
          230 hlineto
          372 614 388 -614 rlineto
          230 hlineto
          -61 82 -34 45 -132 209 -272 431 rcurveline
          211 343 125 203 51 70 62 77 rlinecurve
          -235 hlineto
          -319 -526 -331 526 rlineto
          -235 hlineto
          64 -84 47 -61 129 -205 rrcurveto
          endchar
        </CharString>
        <CharString name="Y">
          193 21 -21 1460 -20 hstem
          555 190 vstem
          35 1460 rmoveto
          112 -149 66 -114 77 -132 265 -454 rcurveline
          -176 vlineto
          -197 0 -158 -15 -80 vhcurveto
          220 hlineto
          -15 80 0 158 197 vvcurveto
          168 vlineto
          270 462 76 130 56 96 118 169 rlinecurve
          -230 hlineto
          -375 -661 -395 661 rlineto
          endchar
        </CharString>
        <CharString name="Yacute">
          193 21 -21 1460 -20 590 -20 hstemhm
          470 580 -495 190 hintmask 11001000
          35 1460 rmoveto
          112 -149 66 -114 77 -132 265 -454 rcurveline
          -176 vlineto
          -197 0 -158 -15 -80 vhcurveto
          220 hlineto
          -15 80 0 158 197 vvcurveto
          168 vlineto
          270 462 76 130 56 96 118 169 rlinecurve
          -230 hlineto
          -375 -661 -395 661 rlineto
          hintmask 00110000
          555 570 rmoveto
          -350 -430 rlineto
          160 hlineto
          420 430 rlineto
          endchar
        </CharString>
        <CharString name="Ycircumflex">
          193 21 -21 1460 -20 590 -20 hstemhm
          225 850 -520 190 hintmask 11001000
          35 1460 rmoveto
          112 -149 66 -114 77 -132 265 -454 rcurveline
          -176 vlineto
          -197 0 -158 -15 -80 vhcurveto
          220 hlineto
          -15 80 0 158 197 vvcurveto
          168 vlineto
          270 462 76 130 56 96 118 169 rlinecurve
          -230 hlineto
          -375 -661 -395 661 rlineto
          hintmask 00000000
          110 140 rmoveto
          hintmask 00110000
          275 280 275 -280 rlineto
          150 hlineto
          -340 430 rlineto
          -170 hlineto
          -340 -430 rlineto
          endchar
        </CharString>
        <CharString name="Ydieresis">
          193 21 -21 1460 -20 200 270 hstemhm
          310 260 -15 190 -15 260 hintmask 11001000
          35 1460 rmoveto
          112 -149 66 -114 77 -132 265 -454 rcurveline
          -176 vlineto
          -197 0 -158 -15 -80 vhcurveto
          220 hlineto
          -15 80 0 158 197 vvcurveto
          168 vlineto
          270 462 76 130 56 96 118 169 rlinecurve
          -230 hlineto
          -375 -661 -395 661 rlineto
          hintmask 00110100
          465 315 rmoveto
          -74 56 -61 74 75 55 61 74 74 -55 61 -75 -74 -56 -61 -74 vhcurveto
          -420 hmoveto
          -74 56 -61 74 75 55 61 74 74 -55 61 -75 -74 -56 -61 -74 vhcurveto
          endchar
        </CharString>
        <CharString name="Ygrave">
          193 21 -21 1460 -20 590 -20 hstemhm
          260 580 -285 190 hintmask 11001000
          35 1460 rmoveto
          112 -149 66 -114 77 -132 265 -454 rcurveline
          -176 vlineto
          -197 0 -158 -15 -80 vhcurveto
          220 hlineto
          -15 80 0 158 197 vvcurveto
          168 vlineto
          270 462 76 130 56 96 118 169 rlinecurve
          -230 hlineto
          -375 -661 -395 661 rlineto
          hintmask 00110000
          -5 570 rmoveto
          420 -430 rlineto
          160 hlineto
          -350 430 rlineto
          endchar
        </CharString>
        <CharString name="Z">
          103 0 165 1130 165 hstem
          75 1060 vstem
          1105 1460 rmoveto
          -970 -185 hlineto
          17 80 118 3 197 hhcurveto
          340 hlineto
          -795 -1170 rlineto
          -125 1060 185 vlineto
          -14 -80 -159 -6 -196 hhcurveto
          -390 hlineto
          795 1165 rlineto
          endchar
        </CharString>
        <CharString name="Zacute">
          103 0 165 1130 165 570 -20 hstemhm
          75 1060 -710 580 hintmask 11010000
          1105 1460 rmoveto
          -970 -185 hlineto
          17 80 118 3 197 hhcurveto
          340 hlineto
          -795 -1170 rlineto
          -125 1060 185 vlineto
          -14 -80 -159 -6 -196 hhcurveto
          -390 hlineto
          795 1165 rlineto
          hintmask 00101000
          -330 700 rmoveto
          -350 -430 rlineto
          160 hlineto
          420 430 rlineto
          endchar
        </CharString>
        <CharString name="Zcaron">
          103 0 165 1130 165 140 150 280 -20 hstemhm
          75 1060 -955 850 hintmask 11001000
          1105 1460 rmoveto
          -970 -185 hlineto
          17 80 118 3 197 hhcurveto
          340 hlineto
          -795 -1170 rlineto
          -125 1060 185 vlineto
          -14 -80 -159 -6 -196 hhcurveto
          -390 hlineto
          795 1165 rlineto
          hintmask 00110100
          -925 700 rmoveto
          340 -430 rlineto
          170 hlineto
          340 430 rlineto
          -150 hlineto
          -275 -280 -275 280 rlineto
          endchar
        </CharString>
        <CharString name="Zdotaccent">
          103 0 165 1130 165 180 270 hstemhm
          75 1060 -665 270 hintmask 11010000
          1105 1460 rmoveto
          -970 -185 hlineto
          17 80 118 3 197 hhcurveto
          340 hlineto
          -795 -1170 rlineto
          -125 1060 185 vlineto
          -14 -80 -159 -6 -196 hhcurveto
          -390 hlineto
          795 1165 rlineto
          hintmask 00101000
          -635 445 rmoveto
          -74 61 -61 74 74 61 61 74 74 -61 61 -74 -74 -61 -61 -74 vhcurveto
          endchar
        </CharString>
        <CharString name="a">
          -7 -25 165 -119 -21 495 140 245 160 hstemhm
          95 180 490 185 hintmask 00000000
          hintmask 10111100
          950 760 rmoveto
          159 -150 121 -230 -152 -105 -46 -44 -103 vhcurveto
          -6 -43 -3 -108 -1 -44 rrcurveto
          82 117 102 43 106 hhcurveto
          150 90 -49 -121 hvcurveto
          -75 vlineto
          -41 -3 -160 -15 -69 -7 rrcurveto
          -309 -30 -91 -173 -152 vvcurveto
          -148 137 -132 188 124 133 54 126 118 vhcurveto
          hintmask 01111100
          14 -64 24 -59 12 -32 rrcurveto
          180 hlineto
          -44 112 -31 114 144 vvcurveto
          -185 -45 rmoveto
          hintmask 10111100
          -161 -121 -92 -24 -102 hhcurveto
          -110 -65 51 89 92 60 78 170 20 hvcurveto
          63 8 147 15 50 2 rrcurveto
          endchar
        </CharString>
        <CharString name="a.2StorySlantItalic">
          -7 -25 165 -119 -21 495 140 245 160 hstemhm
          95 180 490 185 hintmask 00000000
          hintmask 10111100
          950 760 rmoveto
          159 -150 121 -230 -152 -105 -46 -44 -103 vhcurveto
          -6 -43 -3 -108 -1 -44 rrcurveto
          82 117 102 43 106 hhcurveto
          150 90 -49 -121 hvcurveto
          -75 vlineto
          -41 -3 -160 -15 -69 -7 rrcurveto
          -309 -30 -91 -173 -152 vvcurveto
          -148 137 -132 188 124 133 54 126 118 vhcurveto
          hintmask 01111100
          14 -64 24 -59 12 -32 rrcurveto
          180 hlineto
          -44 112 -31 114 144 vvcurveto
          -185 -45 rmoveto
          hintmask 10111100
          -161 -121 -92 -24 -102 hhcurveto
          -110 -65 51 89 92 60 78 170 20 hvcurveto
          63 8 147 15 50 2 rrcurveto
          endchar
        </CharString>
        <CharString name="a.2StorySlantItalic.SC">
          176 21 -21 318 143 hstem
          40 1194 vstem
          242 hmoveto
          38 104 44 110 38 104 rrcurveto
          548 hlineto
          123 -318 rlineto
          201 hlineto
          -32 66 -39 84 -61 153 -363 918 rcurveline
          -204 hlineto
          -363 -918 -62 -154 -37 -82 -33 -67 rlinecurve
          815 461 rmoveto
          -438 hlineto
          218 573 rlineto
          endchar
        </CharString>
        <CharString name="a.SC">
          176 21 -21 318 143 hstem
          40 1194 vstem
          242 hmoveto
          38 104 44 110 38 104 rrcurveto
          548 hlineto
          123 -318 rlineto
          201 hlineto
          -32 66 -39 84 -61 153 -363 918 rcurveline
          -204 hlineto
          -363 -918 -62 -154 -37 -82 -33 -67 rlinecurve
          815 461 rmoveto
          -438 hlineto
          218 573 rlineto
          endchar
        </CharString>
        <CharString name="a.SngStory">
          23 -25 170 -124 -21 880 160 hstemhm
          105 185 535 185 hintmask 01111000
          1075 hmoveto
          -39 112 -26 166 252 vvcurveto
          465 vlineto
          26 -101 -135 19 -129 hhcurveto
          -374 -166 -312 -318 hvcurveto
          hintmask 10111000
          -283 132 -152 168 209 157 268 227 84 vhcurveto
          -100 vlineto
          hintmask 01111000
          -88 16 -219 29 -63 vhcurveto
          -75 795 rmoveto
          hintmask 10111000
          -142 -214 -508 -176 -79 -66 110 155 241 79 229 261 100 62 -13 -7 33 vhcurveto
          endchar
        </CharString>
        <CharString name="a.SngStory.SC">
          176 21 -21 318 143 hstem
          40 1194 vstem
          242 hmoveto
          38 104 44 110 38 104 rrcurveto
          548 hlineto
          123 -318 rlineto
          201 hlineto
          -32 66 -39 84 -61 153 -363 918 rcurveline
          -204 hlineto
          -363 -918 -62 -154 -37 -82 -33 -67 rlinecurve
          815 461 rmoveto
          -438 hlineto
          218 573 rlineto
          endchar
        </CharString>
        <CharString name="a.SngStory.SlantItalic">
          23 -25 170 -124 -21 880 160 hstemhm
          105 185 535 185 hintmask 01111000
          1075 hmoveto
          -39 112 -26 166 252 vvcurveto
          465 vlineto
          26 -101 -135 19 -129 hhcurveto
          -374 -166 -312 -318 hvcurveto
          hintmask 10111000
          -283 132 -152 168 209 157 268 227 84 vhcurveto
          -100 vlineto
          hintmask 01111000
          -88 16 -219 29 -63 vhcurveto
          -75 795 rmoveto
          hintmask 10111000
          -142 -214 -508 -176 -79 -66 110 155 241 79 229 261 100 62 -13 -7 33 vhcurveto
          endchar
        </CharString>
        <CharString name="a.SngStory.SlantItalic.SC">
          176 21 -21 318 143 hstem
          40 1194 vstem
          242 hmoveto
          38 104 44 110 38 104 rrcurveto
          548 hlineto
          123 -318 rlineto
          201 hlineto
          -32 66 -39 84 -61 153 -363 918 rcurveline
          -204 hlineto
          -363 -918 -62 -154 -37 -82 -33 -67 rlinecurve
          815 461 rmoveto
          -438 hlineto
          218 573 rlineto
          endchar
        </CharString>
        <CharString name="aacute">
          -7 -25 165 -119 -21 495 140 245 160 560 -20 hstemhm
          95 180 85 580 -175 185 hintmask 00000000
          hintmask 10110101
          950 760 rmoveto
          159 -150 121 -230 -152 -105 -46 -44 -103 vhcurveto
          -6 -43 -3 -108 -1 -44 rrcurveto
          82 117 102 43 106 hhcurveto
          150 90 -49 -121 hvcurveto
          -75 vlineto
          -41 -3 -160 -15 -69 -7 rrcurveto
          -309 -30 -91 -173 -152 vvcurveto
          -148 137 -132 188 124 133 54 126 118 vhcurveto
          hintmask 01110101
          14 -64 24 -59 12 -32 rrcurveto
          180 hlineto
          -44 112 -31 114 144 vvcurveto
          -185 -45 rmoveto
          hintmask 10110101
          -161 -121 -92 -24 -102 hhcurveto
          -110 -65 51 89 92 60 78 170 20 hvcurveto
          63 8 147 15 50 2 rrcurveto
          hintmask 00001010
          -55 1105 rmoveto
          -350 -430 rlineto
          160 hlineto
          420 430 rlineto
          endchar
        </CharString>
        <CharString name="aacute.2StorySlantItalic">
          -7 -25 165 -119 -21 495 140 245 160 560 -20 hstemhm
          95 180 85 580 -175 185 hintmask 00000000
          hintmask 10110101
          950 760 rmoveto
          159 -150 121 -230 -152 -105 -46 -44 -103 vhcurveto
          -6 -43 -3 -108 -1 -44 rrcurveto
          82 117 102 43 106 hhcurveto
          150 90 -49 -121 hvcurveto
          -75 vlineto
          -41 -3 -160 -15 -69 -7 rrcurveto
          -309 -30 -91 -173 -152 vvcurveto
          -148 137 -132 188 124 133 54 126 118 vhcurveto
          hintmask 01110101
          14 -64 24 -59 12 -32 rrcurveto
          180 hlineto
          -44 112 -31 114 144 vvcurveto
          -185 -45 rmoveto
          hintmask 10110101
          -161 -121 -92 -24 -102 hhcurveto
          -110 -65 51 89 92 60 78 170 20 hvcurveto
          63 8 147 15 50 2 rrcurveto
          hintmask 00001010
          -55 1105 rmoveto
          -350 -430 rlineto
          160 hlineto
          420 430 rlineto
          endchar
        </CharString>
        <CharString name="aacute.2StorySlantItalic.SC">
          176 21 -21 318 143 1332 -20 hstemhm
          40 1194 -772 580 hintmask 11010000
          242 hmoveto
          38 104 44 110 38 104 rrcurveto
          548 hlineto
          123 -318 rlineto
          201 hlineto
          -32 66 -39 84 -61 153 -363 918 rcurveline
          -204 hlineto
          -363 -918 -62 -154 -37 -82 -33 -67 rlinecurve
          815 461 rmoveto
          -438 hlineto
          218 573 rlineto
          hintmask 00101000
          177 759 rmoveto
          -350 -430 rlineto
          160 hlineto
          420 430 rlineto
          endchar
        </CharString>
        <CharString name="aacute.SC">
          176 21 -21 318 143 1332 -20 hstemhm
          40 1194 -772 580 hintmask 11010000
          242 hmoveto
          38 104 44 110 38 104 rrcurveto
          548 hlineto
          123 -318 rlineto
          201 hlineto
          -32 66 -39 84 -61 153 -363 918 rcurveline
          -204 hlineto
          -363 -918 -62 -154 -37 -82 -33 -67 rlinecurve
          815 461 rmoveto
          -438 hlineto
          218 573 rlineto
          hintmask 00101000
          177 759 rmoveto
          -350 -430 rlineto
          160 hlineto
          420 430 rlineto
          endchar
        </CharString>
        <CharString name="aacute.SngStory">
          23 -25 170 -124 -21 880 160 560 -20 hstemhm
          105 185 125 580 -170 185 hintmask 01101010
          1075 hmoveto
          -39 112 -26 166 252 vvcurveto
          465 vlineto
          26 -101 -135 19 -129 hhcurveto
          -374 -166 -312 -318 hvcurveto
          hintmask 10101010
          -283 132 -152 168 209 157 268 227 84 vhcurveto
          -100 vlineto
          hintmask 01101010
          -88 16 -219 29 -63 vhcurveto
          -75 795 rmoveto
          hintmask 10101010
          -142 -214 -508 -176 -79 -66 110 155 241 79 229 261 100 62 -13 -7 33 vhcurveto
          hintmask 00010100
          -60 740 rmoveto
          -350 -430 rlineto
          160 hlineto
          420 430 rlineto
          endchar
        </CharString>
        <CharString name="aacute.SngStory.SC">
          176 21 -21 318 143 1332 -20 hstemhm
          40 1194 -772 580 hintmask 11010000
          242 hmoveto
          38 104 44 110 38 104 rrcurveto
          548 hlineto
          123 -318 rlineto
          201 hlineto
          -32 66 -39 84 -61 153 -363 918 rcurveline
          -204 hlineto
          -363 -918 -62 -154 -37 -82 -33 -67 rlinecurve
          815 461 rmoveto
          -438 hlineto
          218 573 rlineto
          hintmask 00101000
          177 759 rmoveto
          -350 -430 rlineto
          160 hlineto
          420 430 rlineto
          endchar
        </CharString>
        <CharString name="aacute.SngStory.SlantItalic">
          23 -25 170 -124 -21 880 160 560 -20 hstemhm
          105 185 125 580 -170 185 hintmask 01101010
          1075 hmoveto
          -39 112 -26 166 252 vvcurveto
          465 vlineto
          26 -101 -135 19 -129 hhcurveto
          -374 -166 -312 -318 hvcurveto
          hintmask 10101010
          -283 132 -152 168 209 157 268 227 84 vhcurveto
          -100 vlineto
          hintmask 01101010
          -88 16 -219 29 -63 vhcurveto
          -75 795 rmoveto
          hintmask 10101010
          -142 -214 -508 -176 -79 -66 110 155 241 79 229 261 100 62 -13 -7 33 vhcurveto
          hintmask 00010100
          -60 740 rmoveto
          -350 -430 rlineto
          160 hlineto
          420 430 rlineto
          endchar
        </CharString>
        <CharString name="aacute.SngStory.SlantItalic.SC">
          176 21 -21 318 143 1332 -20 hstemhm
          40 1194 -772 580 hintmask 11010000
          242 hmoveto
          38 104 44 110 38 104 rrcurveto
          548 hlineto
          123 -318 rlineto
          201 hlineto
          -32 66 -39 84 -61 153 -363 918 rcurveline
          -204 hlineto
          -363 -918 -62 -154 -37 -82 -33 -67 rlinecurve
          815 461 rmoveto
          -438 hlineto
          218 573 rlineto
          hintmask 00101000
          177 759 rmoveto
          -350 -430 rlineto
          160 hlineto
          420 430 rlineto
          endchar
        </CharString>
        <CharString name="abreve">
          -7 -25 165 -119 -21 495 140 245 160 110 150 hstemhm
          95 180 -110 750 -150 185 hintmask 00000000
          hintmask 10110101
          950 760 rmoveto
          159 -150 121 -230 -152 -105 -46 -44 -103 vhcurveto
          -6 -43 -3 -108 -1 -44 rrcurveto
          82 117 102 43 106 hhcurveto
          150 90 -49 -121 hvcurveto
          -75 vlineto
          -41 -3 -160 -15 -69 -7 rrcurveto
          -309 -30 -91 -173 -152 vvcurveto
          -148 137 -132 188 124 133 54 126 118 vhcurveto
          hintmask 01110101
          14 -64 24 -59 12 -32 rrcurveto
          180 hlineto
          -44 112 -31 114 144 vvcurveto
          -185 -45 rmoveto
          hintmask 10110101
          -161 -121 -92 -24 -102 hhcurveto
          -110 -65 51 89 92 60 78 170 20 hvcurveto
          63 8 147 15 50 2 rrcurveto
          hintmask 00001010
          150 1055 rmoveto
          -122 hlineto
          -135 -20 -102 -115 -131 hhcurveto
          -130 -109 115 135 -16 hvcurveto
          -120 hlineto
          -194 140 -206 235 233 142 206 194 vhcurveto
          endchar
        </CharString>
        <CharString name="abreve.2StorySlantItalic">
          -7 -25 165 -119 -21 495 140 245 160 110 150 hstemhm
          95 180 -110 750 -150 185 hintmask 00000000
          hintmask 10110101
          950 760 rmoveto
          159 -150 121 -230 -152 -105 -46 -44 -103 vhcurveto
          -6 -43 -3 -108 -1 -44 rrcurveto
          82 117 102 43 106 hhcurveto
          150 90 -49 -121 hvcurveto
          -75 vlineto
          -41 -3 -160 -15 -69 -7 rrcurveto
          -309 -30 -91 -173 -152 vvcurveto
          -148 137 -132 188 124 133 54 126 118 vhcurveto
          hintmask 01110101
          14 -64 24 -59 12 -32 rrcurveto
          180 hlineto
          -44 112 -31 114 144 vvcurveto
          -185 -45 rmoveto
          hintmask 10110101
          -161 -121 -92 -24 -102 hhcurveto
          -110 -65 51 89 92 60 78 170 20 hvcurveto
          63 8 147 15 50 2 rrcurveto
          hintmask 00001010
          150 1055 rmoveto
          -122 hlineto
          -135 -20 -102 -115 -131 hhcurveto
          -130 -109 115 135 -16 hvcurveto
          -120 hlineto
          -194 140 -206 235 233 142 206 194 vhcurveto
          endchar
        </CharString>
        <CharString name="abreve.2StorySlantItalic.SC">
          176 21 -21 318 143 882 150 hstemhm
          40 1194 -967 750 hintmask 11010000
          242 hmoveto
          38 104 44 110 38 104 rrcurveto
          548 hlineto
          123 -318 rlineto
          201 hlineto
          -32 66 -39 84 -61 153 -363 918 rcurveline
          -204 hlineto
          -363 -918 -62 -154 -37 -82 -33 -67 rlinecurve
          815 461 rmoveto
          -438 hlineto
          218 573 rlineto
          hintmask 00101000
          382 709 rmoveto
          -122 hlineto
          -135 -20 -102 -115 -131 hhcurveto
          -130 -109 115 135 -16 hvcurveto
          -120 hlineto
          -194 140 -206 235 233 142 206 194 vhcurveto
          endchar
        </CharString>
        <CharString name="abreve.SC">
          176 21 -21 318 143 882 150 hstemhm
          40 1194 -967 750 hintmask 11010000
          242 hmoveto
          38 104 44 110 38 104 rrcurveto
          548 hlineto
          123 -318 rlineto
          201 hlineto
          -32 66 -39 84 -61 153 -363 918 rcurveline
          -204 hlineto
          -363 -918 -62 -154 -37 -82 -33 -67 rlinecurve
          815 461 rmoveto
          -438 hlineto
          218 573 rlineto
          hintmask 00101000
          382 709 rmoveto
          -122 hlineto
          -135 -20 -102 -115 -131 hhcurveto
          -130 -109 115 135 -16 hvcurveto
          -120 hlineto
          -194 140 -206 235 233 142 206 194 vhcurveto
          endchar
        </CharString>
        <CharString name="abreve.SngStory">
          23 -25 170 -124 -21 880 160 110 150 hstemhm
          105 185 -70 750 -145 185 hintmask 01101010
          1075 hmoveto
          -39 112 -26 166 252 vvcurveto
          465 vlineto
          26 -101 -135 19 -129 hhcurveto
          -374 -166 -312 -318 hvcurveto
          hintmask 10101010
          -283 132 -152 168 209 157 268 227 84 vhcurveto
          -100 vlineto
          hintmask 01101010
          -88 16 -219 29 -63 vhcurveto
          -75 795 rmoveto
          hintmask 10101010
          -142 -214 -508 -176 -79 -66 110 155 241 79 229 261 100 62 -13 -7 33 vhcurveto
          hintmask 00010100
          145 690 rmoveto
          -122 hlineto
          -135 -20 -102 -115 -131 hhcurveto
          -130 -109 115 135 -16 hvcurveto
          -120 hlineto
          -194 140 -206 235 233 142 206 194 vhcurveto
          endchar
        </CharString>
        <CharString name="abreve.SngStory.SC">
          176 21 -21 318 143 882 150 hstemhm
          40 1194 -967 750 hintmask 11010000
          242 hmoveto
          38 104 44 110 38 104 rrcurveto
          548 hlineto
          123 -318 rlineto
          201 hlineto
          -32 66 -39 84 -61 153 -363 918 rcurveline
          -204 hlineto
          -363 -918 -62 -154 -37 -82 -33 -67 rlinecurve
          815 461 rmoveto
          -438 hlineto
          218 573 rlineto
          hintmask 00101000
          382 709 rmoveto
          -122 hlineto
          -135 -20 -102 -115 -131 hhcurveto
          -130 -109 115 135 -16 hvcurveto
          -120 hlineto
          -194 140 -206 235 233 142 206 194 vhcurveto
          endchar
        </CharString>
        <CharString name="abreve.SngStory.SlantItalic">
          23 -25 170 -124 -21 880 160 110 150 hstemhm
          105 185 -70 750 -145 185 hintmask 01101010
          1075 hmoveto
          -39 112 -26 166 252 vvcurveto
          465 vlineto
          26 -101 -135 19 -129 hhcurveto
          -374 -166 -312 -318 hvcurveto
          hintmask 10101010
          -283 132 -152 168 209 157 268 227 84 vhcurveto
          -100 vlineto
          hintmask 01101010
          -88 16 -219 29 -63 vhcurveto
          -75 795 rmoveto
          hintmask 10101010
          -142 -214 -508 -176 -79 -66 110 155 241 79 229 261 100 62 -13 -7 33 vhcurveto
          hintmask 00010100
          145 690 rmoveto
          -122 hlineto
          -135 -20 -102 -115 -131 hhcurveto
          -130 -109 115 135 -16 hvcurveto
          -120 hlineto
          -194 140 -206 235 233 142 206 194 vhcurveto
          endchar
        </CharString>
        <CharString name="abreve.SngStory.SlantItalic.SC">
          176 21 -21 318 143 882 150 hstemhm
          40 1194 -967 750 hintmask 11010000
          242 hmoveto
          38 104 44 110 38 104 rrcurveto
          548 hlineto
          123 -318 rlineto
          201 hlineto
          -32 66 -39 84 -61 153 -363 918 rcurveline
          -204 hlineto
          -363 -918 -62 -154 -37 -82 -33 -67 rlinecurve
          815 461 rmoveto
          -438 hlineto
          218 573 rlineto
          hintmask 00101000
          382 709 rmoveto
          -122 hlineto
          -135 -20 -102 -115 -131 hhcurveto
          -130 -109 115 135 -16 hvcurveto
          -120 hlineto
          -194 140 -206 235 233 142 206 194 vhcurveto
          endchar
        </CharString>
        <CharString name="acircumflex">
          -7 -25 165 -119 -21 495 140 245 160 560 -20 hstemhm
          95 180 -160 850 -200 185 hintmask 00000000
          hintmask 10110101
          950 760 rmoveto
          159 -150 121 -230 -152 -105 -46 -44 -103 vhcurveto
          -6 -43 -3 -108 -1 -44 rrcurveto
          82 117 102 43 106 hhcurveto
          150 90 -49 -121 hvcurveto
          -75 vlineto
          -41 -3 -160 -15 -69 -7 rrcurveto
          -309 -30 -91 -173 -152 vvcurveto
          -148 137 -132 188 124 133 54 126 118 vhcurveto
          hintmask 01110101
          14 -64 24 -59 12 -32 rrcurveto
          180 hlineto
          -44 112 -31 114 144 vvcurveto
          -185 -45 rmoveto
          hintmask 10110101
          -161 -121 -92 -24 -102 hhcurveto
          -110 -65 51 89 92 60 78 170 20 hvcurveto
          63 8 147 15 50 2 rrcurveto
          hintmask 00000000
          -500 675 rmoveto
          hintmask 00001010
          275 280 275 -280 rlineto
          150 hlineto
          -340 430 rlineto
          -170 hlineto
          -340 -430 rlineto
          endchar
        </CharString>
        <CharString name="acircumflex.2StorySlantItalic">
          -7 -25 165 -119 -21 495 140 245 160 560 -20 hstemhm
          95 180 -160 850 -200 185 hintmask 00000000
          hintmask 10110101
          950 760 rmoveto
          159 -150 121 -230 -152 -105 -46 -44 -103 vhcurveto
          -6 -43 -3 -108 -1 -44 rrcurveto
          82 117 102 43 106 hhcurveto
          150 90 -49 -121 hvcurveto
          -75 vlineto
          -41 -3 -160 -15 -69 -7 rrcurveto
          -309 -30 -91 -173 -152 vvcurveto
          -148 137 -132 188 124 133 54 126 118 vhcurveto
          hintmask 01110101
          14 -64 24 -59 12 -32 rrcurveto
          180 hlineto
          -44 112 -31 114 144 vvcurveto
          -185 -45 rmoveto
          hintmask 10110101
          -161 -121 -92 -24 -102 hhcurveto
          -110 -65 51 89 92 60 78 170 20 hvcurveto
          63 8 147 15 50 2 rrcurveto
          hintmask 00000000
          -500 675 rmoveto
          hintmask 00001010
          275 280 275 -280 rlineto
          150 hlineto
          -340 430 rlineto
          -170 hlineto
          -340 -430 rlineto
          endchar
        </CharString>
        <CharString name="acircumflex.2StorySlantItalic.SC">
          176 21 -21 318 143 1332 -20 hstemhm
          40 1194 -1017 850 hintmask 11010000
          242 hmoveto
          38 104 44 110 38 104 rrcurveto
          548 hlineto
          123 -318 rlineto
          201 hlineto
          -32 66 -39 84 -61 153 -363 918 rcurveline
          -204 hlineto
          -363 -918 -62 -154 -37 -82 -33 -67 rlinecurve
          815 461 rmoveto
          -438 hlineto
          218 573 rlineto
          hintmask 00000000
          -268 329 rmoveto
          hintmask 00101000
          275 280 275 -280 rlineto
          150 hlineto
          -340 430 rlineto
          -170 hlineto
          -340 -430 rlineto
          endchar
        </CharString>
        <CharString name="acircumflex.SC">
          176 21 -21 318 143 1332 -20 hstemhm
          40 1194 -1017 850 hintmask 11010000
          242 hmoveto
          38 104 44 110 38 104 rrcurveto
          548 hlineto
          123 -318 rlineto
          201 hlineto
          -32 66 -39 84 -61 153 -363 918 rcurveline
          -204 hlineto
          -363 -918 -62 -154 -37 -82 -33 -67 rlinecurve
          815 461 rmoveto
          -438 hlineto
          218 573 rlineto
          hintmask 00000000
          -268 329 rmoveto
          hintmask 00101000
          275 280 275 -280 rlineto
          150 hlineto
          -340 430 rlineto
          -170 hlineto
          -340 -430 rlineto
          endchar
        </CharString>
        <CharString name="acircumflex.SngStory">
          23 -25 170 -124 -21 880 160 560 -20 hstemhm
          105 185 -120 850 -195 185 hintmask 01101010
          1075 hmoveto
          -39 112 -26 166 252 vvcurveto
          465 vlineto
          26 -101 -135 19 -129 hhcurveto
          -374 -166 -312 -318 hvcurveto
          hintmask 10101010
          -283 132 -152 168 209 157 268 227 84 vhcurveto
          -100 vlineto
          hintmask 01101010
          -88 16 -219 29 -63 vhcurveto
          -75 795 rmoveto
          hintmask 10101010
          -142 -214 -508 -176 -79 -66 110 155 241 79 229 261 100 62 -13 -7 33 vhcurveto
          hintmask 00000000
          -505 310 rmoveto
          hintmask 00010100
          275 280 275 -280 rlineto
          150 hlineto
          -340 430 rlineto
          -170 hlineto
          -340 -430 rlineto
          endchar
        </CharString>
        <CharString name="acircumflex.SngStory.SC">
          176 21 -21 318 143 1332 -20 hstemhm
          40 1194 -1017 850 hintmask 11010000
          242 hmoveto
          38 104 44 110 38 104 rrcurveto
          548 hlineto
          123 -318 rlineto
          201 hlineto
          -32 66 -39 84 -61 153 -363 918 rcurveline
          -204 hlineto
          -363 -918 -62 -154 -37 -82 -33 -67 rlinecurve
          815 461 rmoveto
          -438 hlineto
          218 573 rlineto
          hintmask 00000000
          -268 329 rmoveto
          hintmask 00101000
          275 280 275 -280 rlineto
          150 hlineto
          -340 430 rlineto
          -170 hlineto
          -340 -430 rlineto
          endchar
        </CharString>
        <CharString name="acircumflex.SngStory.SlantItalic">
          23 -25 170 -124 -21 880 160 560 -20 hstemhm
          105 185 -120 850 -195 185 hintmask 01101010
          1075 hmoveto
          -39 112 -26 166 252 vvcurveto
          465 vlineto
          26 -101 -135 19 -129 hhcurveto
          -374 -166 -312 -318 hvcurveto
          hintmask 10101010
          -283 132 -152 168 209 157 268 227 84 vhcurveto
          -100 vlineto
          hintmask 01101010
          -88 16 -219 29 -63 vhcurveto
          -75 795 rmoveto
          hintmask 10101010
          -142 -214 -508 -176 -79 -66 110 155 241 79 229 261 100 62 -13 -7 33 vhcurveto
          hintmask 00000000
          -505 310 rmoveto
          hintmask 00010100
          275 280 275 -280 rlineto
          150 hlineto
          -340 430 rlineto
          -170 hlineto
          -340 -430 rlineto
          endchar
        </CharString>
        <CharString name="acircumflex.SngStory.SlantItalic.SC">
          176 21 -21 318 143 1332 -20 hstemhm
          40 1194 -1017 850 hintmask 11010000
          242 hmoveto
          38 104 44 110 38 104 rrcurveto
          548 hlineto
          123 -318 rlineto
          201 hlineto
          -32 66 -39 84 -61 153 -363 918 rcurveline
          -204 hlineto
          -363 -918 -62 -154 -37 -82 -33 -67 rlinecurve
          815 461 rmoveto
          -438 hlineto
          218 573 rlineto
          hintmask 00000000
          -268 329 rmoveto
          hintmask 00101000
          275 280 275 -280 rlineto
          150 hlineto
          -340 430 rlineto
          -170 hlineto
          -340 -430 rlineto
          endchar
        </CharString>
        <CharString name="acute">
          -547 1600 -20 hstem
          0 580 vstem
          350 1600 rmoveto
          -350 -430 rlineto
          160 hlineto
          420 430 rlineto
          endchar
        </CharString>
        <CharString name="acutecomb">
          1600 -20 hstem
          -750 580 vstem
          -400 1600 rmoveto
          -350 -430 rlineto
          160 hlineto
          420 430 rlineto
          endchar
        </CharString>
        <CharString name="adieresis">
          -7 -25 165 -119 -21 495 140 245 160 170 270 hstemhm
          95 180 -75 260 160 260 -115 185 hintmask 0000000000000000
          hintmask 1011010010000000
          950 760 rmoveto
          159 -150 121 -230 -152 -105 -46 -44 -103 vhcurveto
          -6 -43 -3 -108 -1 -44 rrcurveto
          82 117 102 43 106 hhcurveto
          150 90 -49 -121 hvcurveto
          -75 vlineto
          -41 -3 -160 -15 -69 -7 rrcurveto
          -309 -30 -91 -173 -152 vvcurveto
          -148 137 -132 188 124 133 54 126 118 vhcurveto
          hintmask 0111010010000000
          14 -64 24 -59 12 -32 rrcurveto
          180 hlineto
          -44 112 -31 114 144 vvcurveto
          -185 -45 rmoveto
          hintmask 1011010010000000
          -161 -121 -92 -24 -102 hhcurveto
          -110 -65 51 89 92 60 78 170 20 hvcurveto
          63 8 147 15 50 2 rrcurveto
          hintmask 0000101100000000
          -145 850 rmoveto
          -74 56 -61 74 75 55 61 74 74 -55 61 -75 -74 -56 -61 -74 vhcurveto
          -420 hmoveto
          -74 56 -61 74 75 55 61 74 74 -55 61 -75 -74 -56 -61 -74 vhcurveto
          endchar
        </CharString>
        <CharString name="adieresis.2StorySlantItalic">
          -7 -25 165 -119 -21 495 140 245 160 170 270 hstemhm
          95 180 -75 260 160 260 -115 185 hintmask 0000000000000000
          hintmask 1011010010000000
          950 760 rmoveto
          159 -150 121 -230 -152 -105 -46 -44 -103 vhcurveto
          -6 -43 -3 -108 -1 -44 rrcurveto
          82 117 102 43 106 hhcurveto
          150 90 -49 -121 hvcurveto
          -75 vlineto
          -41 -3 -160 -15 -69 -7 rrcurveto
          -309 -30 -91 -173 -152 vvcurveto
          -148 137 -132 188 124 133 54 126 118 vhcurveto
          hintmask 0111010010000000
          14 -64 24 -59 12 -32 rrcurveto
          180 hlineto
          -44 112 -31 114 144 vvcurveto
          -185 -45 rmoveto
          hintmask 1011010010000000
          -161 -121 -92 -24 -102 hhcurveto
          -110 -65 51 89 92 60 78 170 20 hvcurveto
          63 8 147 15 50 2 rrcurveto
          hintmask 0000101100000000
          -145 850 rmoveto
          -74 56 -61 74 75 55 61 74 74 -55 61 -75 -74 -56 -61 -74 vhcurveto
          -420 hmoveto
          -74 56 -61 74 75 55 61 74 74 -55 61 -75 -74 -56 -61 -74 vhcurveto
          endchar
        </CharString>
        <CharString name="adieresis.2StorySlantItalic.SC">
          176 21 -21 318 143 942 270 hstemhm
          40 1194 -932 260 160 260 hintmask 11010000
          242 hmoveto
          38 104 44 110 38 104 rrcurveto
          548 hlineto
          123 -318 rlineto
          201 hlineto
          -32 66 -39 84 -61 153 -363 918 rcurveline
          -204 hlineto
          -363 -918 -62 -154 -37 -82 -33 -67 rlinecurve
          815 461 rmoveto
          -438 hlineto
          218 573 rlineto
          hintmask 00101100
          87 504 rmoveto
          -74 56 -61 74 75 55 61 74 74 -55 61 -75 -74 -56 -61 -74 vhcurveto
          -420 hmoveto
          -74 56 -61 74 75 55 61 74 74 -55 61 -75 -74 -56 -61 -74 vhcurveto
          endchar
        </CharString>
        <CharString name="adieresis.SC">
          176 21 -21 318 143 942 270 hstemhm
          40 1194 -932 260 160 260 hintmask 11010000
          242 hmoveto
          38 104 44 110 38 104 rrcurveto
          548 hlineto
          123 -318 rlineto
          201 hlineto
          -32 66 -39 84 -61 153 -363 918 rcurveline
          -204 hlineto
          -363 -918 -62 -154 -37 -82 -33 -67 rlinecurve
          815 461 rmoveto
          -438 hlineto
          218 573 rlineto
          hintmask 00101100
          87 504 rmoveto
          -74 56 -61 74 75 55 61 74 74 -55 61 -75 -74 -56 -61 -74 vhcurveto
          -420 hmoveto
          -74 56 -61 74 75 55 61 74 74 -55 61 -75 -74 -56 -61 -74 vhcurveto
          endchar
        </CharString>
        <CharString name="adieresis.SngStory">
          23 -25 170 -124 -21 880 160 170 270 hstemhm
          105 185 -35 260 160 260 -110 185 hintmask 01101001
          1075 hmoveto
          -39 112 -26 166 252 vvcurveto
          465 vlineto
          26 -101 -135 19 -129 hhcurveto
          -374 -166 -312 -318 hvcurveto
          hintmask 10101001
          -283 132 -152 168 209 157 268 227 84 vhcurveto
          -100 vlineto
          hintmask 01101001
          -88 16 -219 29 -63 vhcurveto
          -75 795 rmoveto
          hintmask 10101001
          -142 -214 -508 -176 -79 -66 110 155 241 79 229 261 100 62 -13 -7 33 vhcurveto
          hintmask 00010110
          -150 485 rmoveto
          -74 56 -61 74 75 55 61 74 74 -55 61 -75 -74 -56 -61 -74 vhcurveto
          -420 hmoveto
          -74 56 -61 74 75 55 61 74 74 -55 61 -75 -74 -56 -61 -74 vhcurveto
          endchar
        </CharString>
        <CharString name="adieresis.SngStory.SC">
          176 21 -21 318 143 942 270 hstemhm
          40 1194 -932 260 160 260 hintmask 11010000
          242 hmoveto
          38 104 44 110 38 104 rrcurveto
          548 hlineto
          123 -318 rlineto
          201 hlineto
          -32 66 -39 84 -61 153 -363 918 rcurveline
          -204 hlineto
          -363 -918 -62 -154 -37 -82 -33 -67 rlinecurve
          815 461 rmoveto
          -438 hlineto
          218 573 rlineto
          hintmask 00101100
          87 504 rmoveto
          -74 56 -61 74 75 55 61 74 74 -55 61 -75 -74 -56 -61 -74 vhcurveto
          -420 hmoveto
          -74 56 -61 74 75 55 61 74 74 -55 61 -75 -74 -56 -61 -74 vhcurveto
          endchar
        </CharString>
        <CharString name="adieresis.SngStory.SlantItalic">
          23 -25 170 -124 -21 880 160 170 270 hstemhm
          105 185 -35 260 160 260 -110 185 hintmask 01101001
          1075 hmoveto
          -39 112 -26 166 252 vvcurveto
          465 vlineto
          26 -101 -135 19 -129 hhcurveto
          -374 -166 -312 -318 hvcurveto
          hintmask 10101001
          -283 132 -152 168 209 157 268 227 84 vhcurveto
          -100 vlineto
          hintmask 01101001
          -88 16 -219 29 -63 vhcurveto
          -75 795 rmoveto
          hintmask 10101001
          -142 -214 -508 -176 -79 -66 110 155 241 79 229 261 100 62 -13 -7 33 vhcurveto
          hintmask 00010110
          -150 485 rmoveto
          -74 56 -61 74 75 55 61 74 74 -55 61 -75 -74 -56 -61 -74 vhcurveto
          -420 hmoveto
          -74 56 -61 74 75 55 61 74 74 -55 61 -75 -74 -56 -61 -74 vhcurveto
          endchar
        </CharString>
        <CharString name="adieresis.SngStory.SlantItalic.SC">
          176 21 -21 318 143 942 270 hstemhm
          40 1194 -932 260 160 260 hintmask 11010000
          242 hmoveto
          38 104 44 110 38 104 rrcurveto
          548 hlineto
          123 -318 rlineto
          201 hlineto
          -32 66 -39 84 -61 153 -363 918 rcurveline
          -204 hlineto
          -363 -918 -62 -154 -37 -82 -33 -67 rlinecurve
          815 461 rmoveto
          -438 hlineto
          218 573 rlineto
          hintmask 00101100
          87 504 rmoveto
          -74 56 -61 74 75 55 61 74 74 -55 61 -75 -74 -56 -61 -74 vhcurveto
          -420 hmoveto
          -74 56 -61 74 75 55 61 74 74 -55 61 -75 -74 -56 -61 -74 vhcurveto
          endchar
        </CharString>
        <CharString name="ae">
          618 -25 165 345 140 255 160 -150 150 hstemhm
          95 185 475 175 530 180 hintmask 00000000
          hintmask 11011110
          1245 1040 rmoveto
          -145 -130 -65 -110 -90 hvcurveto
          118 -70 -134 57 -136 hhcurveto
          -152 -75 -46 -44 -103 hvcurveto
          -6 -43 -3 -108 -1 -44 rrcurveto
          hintmask 11101110
          82 117 72 43 106 hhcurveto
          150 110 -49 -121 hvcurveto
          -85 vlineto
          -41 -3 -160 -3 -69 -9 rrcurveto
          -298 -41 -92 -162 -152 vvcurveto
          -148 137 -132 188 124 123 44 126 118 vhcurveto
          15 17 16 17 14 17 rrcurveto
          -146 87 153 -75 165 hhcurveto
          154 114 27 73 142 hvcurveto
          -20 165 rlineto
          -74 -122 -114 -26 -129 hhcurveto
          -181 -141 111 234 -8 hvcurveto
          710 80 hlineto
          hintmask 11011110
          225 -85 250 -310 vhcurveto
          -490 -555 rmoveto
          -48 6 -46 9 -41 vhcurveto
          -3 -10 -6 -7 -6 -8 rrcurveto
          -161 -111 -92 -24 -102 hhcurveto
          -100 -70 61 79 92 48 68 167 30 hvcurveto
          63 11 147 2 50 2 rrcurveto
          475 405 rmoveto
          125 105 -93 -172 hvcurveto
          -520 hlineto
          181 33 111 84 146 hhcurveto
          endchar
        </CharString>
        <CharString name="ae.2StorySlantItalic">
          618 -25 165 345 140 255 160 -150 150 hstemhm
          95 185 475 175 530 180 hintmask 00000000
          hintmask 11011110
          1640 485 rmoveto
          80 vlineto
          225 -85 250 -310 -145 -130 -65 -110 -90 vhcurveto
          118 -70 -134 57 -136 hhcurveto
          -152 -75 -46 -44 -103 hvcurveto
          -6 -43 -3 -108 -1 -44 rrcurveto
          hintmask 11101110
          82 117 72 43 106 hhcurveto
          150 110 -49 -121 hvcurveto
          -85 vlineto
          -41 -3 -160 -3 -69 -9 rrcurveto
          -298 -41 -92 -162 -152 vvcurveto
          -148 137 -132 188 124 123 44 126 118 vhcurveto
          15 17 16 17 14 17 rrcurveto
          -146 87 153 -75 165 hhcurveto
          154 114 27 73 142 hvcurveto
          -20 165 rlineto
          -74 -122 -114 -26 -129 hhcurveto
          -181 -141 111 234 -8 hvcurveto
          -160 -135 rmoveto
          -5 -10 -4 -7 -6 -8 rrcurveto
          -161 -111 -92 -24 -102 hhcurveto
          -100 -70 61 79 92 48 68 167 30 hvcurveto
          63 11 147 2 50 2 rrcurveto
          -48 6 -46 9 -41 vhcurveto
          170 275 rmoveto
          hintmask 11011110
          181 33 111 84 146 hhcurveto
          125 105 -93 -172 hvcurveto
          endchar
        </CharString>
        <CharString name="ae.2StorySlantItalic.SC">
          554 0 151 167 143 104 147 357 152 hstem
          843 184 vstem
          827 hmoveto
          720 165 hlineto
          -13 -77 -122 -1 -179 hhcurveto
          -142 414 425 147 -425 357 493 152 -774 hlineto
          -467 -881 -57 -108 -57 -98 -90 -134 rlinecurve
          199 hlineto
          172 318 rlineto
          396 hlineto
          -2 -209 -4 -67 -9 -42 rrcurveto
          16 1052 rmoveto
          -258 0 -189 -1 -144 vhcurveto
          -319 hlineto
          endchar
        </CharString>
        <CharString name="ae.SC">
          554 0 151 167 143 104 147 357 152 hstem
          843 184 vstem
          827 hmoveto
          720 165 hlineto
          -13 -77 -122 -1 -179 hhcurveto
          -142 414 425 147 -425 357 493 152 -774 hlineto
          -467 -881 -57 -108 -57 -98 -90 -134 rlinecurve
          199 hlineto
          172 318 rlineto
          396 hlineto
          -2 -209 -4 -67 -9 -42 rrcurveto
          16 1052 rmoveto
          -258 0 -189 -1 -144 vhcurveto
          -319 hlineto
          endchar
        </CharString>
        <CharString name="aeacute">
          618 -25 165 345 140 255 160 -150 150 560 -20 hstemhm
          95 185 405 580 -510 175 530 180 hintmask 0000000000000000
          hintmask 1101010110000000
          1245 1040 rmoveto
          -145 -130 -65 -110 -90 hvcurveto
          118 -70 -134 57 -136 hhcurveto
          -152 -75 -46 -44 -103 hvcurveto
          -6 -43 -3 -108 -1 -44 rrcurveto
          hintmask 1110010110000000
          82 117 72 43 106 hhcurveto
          150 110 -49 -121 hvcurveto
          -85 vlineto
          -41 -3 -160 -3 -69 -9 rrcurveto
          -298 -41 -92 -162 -152 vvcurveto
          -148 137 -132 188 124 123 44 126 118 vhcurveto
          15 17 16 17 14 17 rrcurveto
          -146 87 153 -75 165 hhcurveto
          154 114 27 73 142 hvcurveto
          -20 165 rlineto
          -74 -122 -114 -26 -129 hhcurveto
          -181 -141 111 234 -8 hvcurveto
          710 80 hlineto
          hintmask 1101010110000000
          225 -85 250 -310 vhcurveto
          -490 -555 rmoveto
          -48 6 -46 9 -41 vhcurveto
          -3 -10 -6 -7 -6 -8 rrcurveto
          -161 -111 -92 -24 -102 hhcurveto
          -100 -70 61 79 92 48 68 167 30 hvcurveto
          63 11 147 2 50 2 rrcurveto
          475 405 rmoveto
          125 105 -93 -172 hvcurveto
          -520 hlineto
          181 33 111 84 146 hhcurveto
          hintmask 0000101000000000
          -195 710 rmoveto
          -350 -430 rlineto
          160 hlineto
          420 430 rlineto
          endchar
        </CharString>
        <CharString name="aeacute.2StorySlantItalic">
          618 -25 165 345 140 255 160 -150 150 560 -20 hstemhm
          95 185 405 580 -510 175 530 180 hintmask 0000000000000000
          hintmask 1101010110000000
          1640 485 rmoveto
          80 vlineto
          225 -85 250 -310 -145 -130 -65 -110 -90 vhcurveto
          118 -70 -134 57 -136 hhcurveto
          -152 -75 -46 -44 -103 hvcurveto
          -6 -43 -3 -108 -1 -44 rrcurveto
          hintmask 1110010110000000
          82 117 72 43 106 hhcurveto
          150 110 -49 -121 hvcurveto
          -85 vlineto
          -41 -3 -160 -3 -69 -9 rrcurveto
          -298 -41 -92 -162 -152 vvcurveto
          -148 137 -132 188 124 123 44 126 118 vhcurveto
          15 17 16 17 14 17 rrcurveto
          -146 87 153 -75 165 hhcurveto
          154 114 27 73 142 hvcurveto
          -20 165 rlineto
          -74 -122 -114 -26 -129 hhcurveto
          -181 -141 111 234 -8 hvcurveto
          -160 -135 rmoveto
          -5 -10 -4 -7 -6 -8 rrcurveto
          -161 -111 -92 -24 -102 hhcurveto
          -100 -70 61 79 92 48 68 167 30 hvcurveto
          63 11 147 2 50 2 rrcurveto
          -48 6 -46 9 -41 vhcurveto
          170 275 rmoveto
          hintmask 1101010110000000
          181 33 111 84 146 hhcurveto
          125 105 -93 -172 hvcurveto
          hintmask 0000101000000000
          -425 975 rmoveto
          -350 -430 rlineto
          160 hlineto
          420 430 rlineto
          endchar
        </CharString>
        <CharString name="aeacute.2StorySlantItalic.SC">
          554 0 151 167 143 104 147 357 152 572 -20 hstemhm
          764 580 -501 184 hintmask 11110010
          827 hmoveto
          720 165 hlineto
          -13 -77 -122 -1 -179 hhcurveto
          -142 414 425 147 -425 357 493 152 -774 hlineto
          -467 -881 -57 -108 -57 -98 -90 -134 rlinecurve
          199 hlineto
          172 318 rlineto
          396 hlineto
          -2 -209 -4 -67 -9 -42 rrcurveto
          16 1052 rmoveto
          -258 0 -189 -1 -144 vhcurveto
          -319 hlineto
          hintmask 00001100
          591 1332 rmoveto
          -350 -430 rlineto
          160 hlineto
          420 430 rlineto
          endchar
        </CharString>
        <CharString name="aeacute.SC">
          554 0 151 167 143 104 147 357 152 572 -20 hstemhm
          764 580 -501 184 hintmask 11110010
          827 hmoveto
          720 165 hlineto
          -13 -77 -122 -1 -179 hhcurveto
          -142 414 425 147 -425 357 493 152 -774 hlineto
          -467 -881 -57 -108 -57 -98 -90 -134 rlinecurve
          199 hlineto
          172 318 rlineto
          396 hlineto
          -2 -209 -4 -67 -9 -42 rrcurveto
          16 1052 rmoveto
          -258 0 -189 -1 -144 vhcurveto
          -319 hlineto
          hintmask 00001100
          591 1332 rmoveto
          -350 -430 rlineto
          160 hlineto
          420 430 rlineto
          endchar
        </CharString>
        <CharString name="agrave">
          -7 -25 165 -119 -21 495 140 245 160 560 -20 hstemhm
          95 180 -125 580 35 185 hintmask 00000000
          hintmask 10110101
          950 760 rmoveto
          159 -150 121 -230 -152 -105 -46 -44 -103 vhcurveto
          -6 -43 -3 -108 -1 -44 rrcurveto
          82 117 102 43 106 hhcurveto
          150 90 -49 -121 hvcurveto
          -75 vlineto
          -41 -3 -160 -15 -69 -7 rrcurveto
          -309 -30 -91 -173 -152 vvcurveto
          -148 137 -132 188 124 133 54 126 118 vhcurveto
          hintmask 01110101
          14 -64 24 -59 12 -32 rrcurveto
          180 hlineto
          -44 112 -31 114 144 vvcurveto
          -185 -45 rmoveto
          hintmask 10110101
          -161 -121 -92 -24 -102 hhcurveto
          -110 -65 51 89 92 60 78 170 20 hvcurveto
          63 8 147 15 50 2 rrcurveto
          hintmask 00001010
          -615 1105 rmoveto
          420 -430 rlineto
          160 hlineto
          -350 430 rlineto
          endchar
        </CharString>
        <CharString name="agrave.2StorySlantItalic">
          -7 -25 165 -119 -21 495 140 245 160 560 -20 hstemhm
          95 180 -125 580 35 185 hintmask 00000000
          hintmask 10110101
          950 760 rmoveto
          159 -150 121 -230 -152 -105 -46 -44 -103 vhcurveto
          -6 -43 -3 -108 -1 -44 rrcurveto
          82 117 102 43 106 hhcurveto
          150 90 -49 -121 hvcurveto
          -75 vlineto
          -41 -3 -160 -15 -69 -7 rrcurveto
          -309 -30 -91 -173 -152 vvcurveto
          -148 137 -132 188 124 133 54 126 118 vhcurveto
          hintmask 01110101
          14 -64 24 -59 12 -32 rrcurveto
          180 hlineto
          -44 112 -31 114 144 vvcurveto
          -185 -45 rmoveto
          hintmask 10110101
          -161 -121 -92 -24 -102 hhcurveto
          -110 -65 51 89 92 60 78 170 20 hvcurveto
          63 8 147 15 50 2 rrcurveto
          hintmask 00001010
          -615 1105 rmoveto
          420 -430 rlineto
          160 hlineto
          -350 430 rlineto
          endchar
        </CharString>
        <CharString name="agrave.2StorySlantItalic.SC">
          176 21 -21 318 143 1332 -20 hstemhm
          40 1194 -982 580 hintmask 11010000
          242 hmoveto
          38 104 44 110 38 104 rrcurveto
          548 hlineto
          123 -318 rlineto
          201 hlineto
          -32 66 -39 84 -61 153 -363 918 rcurveline
          -204 hlineto
          -363 -918 -62 -154 -37 -82 -33 -67 rlinecurve
          815 461 rmoveto
          -438 hlineto
          218 573 rlineto
          hintmask 00101000
          -383 759 rmoveto
          420 -430 rlineto
          160 hlineto
          -350 430 rlineto
          endchar
        </CharString>
        <CharString name="agrave.SC">
          176 21 -21 318 143 1332 -20 hstemhm
          40 1194 -982 580 hintmask 11010000
          242 hmoveto
          38 104 44 110 38 104 rrcurveto
          548 hlineto
          123 -318 rlineto
          201 hlineto
          -32 66 -39 84 -61 153 -363 918 rcurveline
          -204 hlineto
          -363 -918 -62 -154 -37 -82 -33 -67 rlinecurve
          815 461 rmoveto
          -438 hlineto
          218 573 rlineto
          hintmask 00101000
          -383 759 rmoveto
          420 -430 rlineto
          160 hlineto
          -350 430 rlineto
          endchar
        </CharString>
        <CharString name="agrave.SngStory">
          23 -25 170 -124 -21 880 160 560 -20 hstemhm
          105 185 -85 580 40 185 hintmask 01101010
          1075 hmoveto
          -39 112 -26 166 252 vvcurveto
          465 vlineto
          26 -101 -135 19 -129 hhcurveto
          -374 -166 -312 -318 hvcurveto
          hintmask 10101010
          -283 132 -152 168 209 157 268 227 84 vhcurveto
          -100 vlineto
          hintmask 01101010
          -88 16 -219 29 -63 vhcurveto
          -75 795 rmoveto
          hintmask 10101010
          -142 -214 -508 -176 -79 -66 110 155 241 79 229 261 100 62 -13 -7 33 vhcurveto
          hintmask 00010100
          -620 740 rmoveto
          420 -430 rlineto
          160 hlineto
          -350 430 rlineto
          endchar
        </CharString>
        <CharString name="agrave.SngStory.SC">
          176 21 -21 318 143 1332 -20 hstemhm
          40 1194 -982 580 hintmask 11010000
          242 hmoveto
          38 104 44 110 38 104 rrcurveto
          548 hlineto
          123 -318 rlineto
          201 hlineto
          -32 66 -39 84 -61 153 -363 918 rcurveline
          -204 hlineto
          -363 -918 -62 -154 -37 -82 -33 -67 rlinecurve
          815 461 rmoveto
          -438 hlineto
          218 573 rlineto
          hintmask 00101000
          -383 759 rmoveto
          420 -430 rlineto
          160 hlineto
          -350 430 rlineto
          endchar
        </CharString>
        <CharString name="agrave.SngStory.SlantItalic">
          23 -25 170 -124 -21 880 160 560 -20 hstemhm
          105 185 -85 580 40 185 hintmask 01101010
          1075 hmoveto
          -39 112 -26 166 252 vvcurveto
          465 vlineto
          26 -101 -135 19 -129 hhcurveto
          -374 -166 -312 -318 hvcurveto
          hintmask 10101010
          -283 132 -152 168 209 157 268 227 84 vhcurveto
          -100 vlineto
          hintmask 01101010
          -88 16 -219 29 -63 vhcurveto
          -75 795 rmoveto
          hintmask 10101010
          -142 -214 -508 -176 -79 -66 110 155 241 79 229 261 100 62 -13 -7 33 vhcurveto
          hintmask 00010100
          -620 740 rmoveto
          420 -430 rlineto
          160 hlineto
          -350 430 rlineto
          endchar
        </CharString>
        <CharString name="agrave.SngStory.SlantItalic.SC">
          176 21 -21 318 143 1332 -20 hstemhm
          40 1194 -982 580 hintmask 11010000
          242 hmoveto
          38 104 44 110 38 104 rrcurveto
          548 hlineto
          123 -318 rlineto
          201 hlineto
          -32 66 -39 84 -61 153 -363 918 rcurveline
          -204 hlineto
          -363 -918 -62 -154 -37 -82 -33 -67 rlinecurve
          815 461 rmoveto
          -438 hlineto
          218 573 rlineto
          hintmask 00101000
          -383 759 rmoveto
          420 -430 rlineto
          160 hlineto
          -350 430 rlineto
          endchar
        </CharString>
        <CharString name="alpha">
          113 -25 170 -160 160 735 160 -20 -20 hstemhm
          105 185 hintmask 10101000
          105 440 rmoveto
          -326 175 -139 205 149 134 87 184 120 vhcurveto
          hintmask 01011000
          -235 66 79 -26 152 hhcurveto
          160 vlineto
          -106 -49 57 228 -43 hvcurveto
          71 154 65 196 58 240 rrcurveto
          -165 hlineto
          -18 -131 -27 -115 -32 -101 rrcurveto
          hintmask 10101000
          -75 283 -124 83 -175 1 rrcurveto
          -288 1 -172 -283 -318 vvcurveto
          390 -295 rmoveto
          -131 -74 141 184 241 115 169 145 99 117 -38 -399 78 hvcurveto
          -203 -109 -134 -95 -106 hhcurveto
          endchar
        </CharString>
        <CharString name="amacron">
          -7 -25 165 -119 -21 495 140 245 160 200 150 hstemhm
          95 180 -110 750 -150 185 hintmask 00000000
          hintmask 10110101
          950 760 rmoveto
          159 -150 121 -230 -152 -105 -46 -44 -103 vhcurveto
          -6 -43 -3 -108 -1 -44 rrcurveto
          82 117 102 43 106 hhcurveto
          150 90 -49 -121 hvcurveto
          -75 vlineto
          -41 -3 -160 -15 -69 -7 rrcurveto
          -309 -30 -91 -173 -152 vvcurveto
          -148 137 -132 188 124 133 54 126 118 vhcurveto
          hintmask 01110101
          14 -64 24 -59 12 -32 rrcurveto
          180 hlineto
          -44 112 -31 114 144 vvcurveto
          -185 -45 rmoveto
          hintmask 10110101
          -161 -121 -92 -24 -102 hhcurveto
          -110 -65 51 89 92 60 78 170 20 hvcurveto
          63 8 147 15 50 2 rrcurveto
          hintmask 00001010
          -600 745 rmoveto
          750 150 -750 hlineto
          endchar
        </CharString>
        <CharString name="amacron.2StorySlantItalic">
          -7 -25 165 -119 -21 495 140 245 160 200 150 hstemhm
          95 180 -110 750 -150 185 hintmask 00000000
          hintmask 10110101
          950 760 rmoveto
          159 -150 121 -230 -152 -105 -46 -44 -103 vhcurveto
          -6 -43 -3 -108 -1 -44 rrcurveto
          82 117 102 43 106 hhcurveto
          150 90 -49 -121 hvcurveto
          -75 vlineto
          -41 -3 -160 -15 -69 -7 rrcurveto
          -309 -30 -91 -173 -152 vvcurveto
          -148 137 -132 188 124 133 54 126 118 vhcurveto
          hintmask 01110101
          14 -64 24 -59 12 -32 rrcurveto
          180 hlineto
          -44 112 -31 114 144 vvcurveto
          -185 -45 rmoveto
          hintmask 10110101
          -161 -121 -92 -24 -102 hhcurveto
          -110 -65 51 89 92 60 78 170 20 hvcurveto
          63 8 147 15 50 2 rrcurveto
          hintmask 00001010
          -600 745 rmoveto
          750 150 -750 hlineto
          endchar
        </CharString>
        <CharString name="amacron.2StorySlantItalic.SC">
          176 21 -21 318 143 972 150 hstemhm
          40 1194 -967 750 hintmask 11010000
          242 hmoveto
          38 104 44 110 38 104 rrcurveto
          548 hlineto
          123 -318 rlineto
          201 hlineto
          -32 66 -39 84 -61 153 -363 918 rcurveline
          -204 hlineto
          -363 -918 -62 -154 -37 -82 -33 -67 rlinecurve
          815 461 rmoveto
          -438 hlineto
          218 573 rlineto
          hintmask 00101000
          -368 399 rmoveto
          750 150 -750 hlineto
          endchar
        </CharString>
        <CharString name="amacron.SC">
          176 21 -21 318 143 972 150 hstemhm
          40 1194 -967 750 hintmask 11010000
          242 hmoveto
          38 104 44 110 38 104 rrcurveto
          548 hlineto
          123 -318 rlineto
          201 hlineto
          -32 66 -39 84 -61 153 -363 918 rcurveline
          -204 hlineto
          -363 -918 -62 -154 -37 -82 -33 -67 rlinecurve
          815 461 rmoveto
          -438 hlineto
          218 573 rlineto
          hintmask 00101000
          -368 399 rmoveto
          750 150 -750 hlineto
          endchar
        </CharString>
        <CharString name="amacron.SngStory">
          23 -25 170 -124 -21 880 160 200 150 hstemhm
          105 185 -70 750 -145 185 hintmask 01101010
          1075 hmoveto
          -39 112 -26 166 252 vvcurveto
          465 vlineto
          26 -101 -135 19 -129 hhcurveto
          -374 -166 -312 -318 hvcurveto
          hintmask 10101010
          -283 132 -152 168 209 157 268 227 84 vhcurveto
          -100 vlineto
          hintmask 01101010
          -88 16 -219 29 -63 vhcurveto
          -75 795 rmoveto
          hintmask 10101010
          -142 -214 -508 -176 -79 -66 110 155 241 79 229 261 100 62 -13 -7 33 vhcurveto
          hintmask 00010100
          -605 380 rmoveto
          750 150 -750 hlineto
          endchar
        </CharString>
        <CharString name="amacron.SngStory.SC">
          176 21 -21 318 143 972 150 hstemhm
          40 1194 -967 750 hintmask 11010000
          242 hmoveto
          38 104 44 110 38 104 rrcurveto
          548 hlineto
          123 -318 rlineto
          201 hlineto
          -32 66 -39 84 -61 153 -363 918 rcurveline
          -204 hlineto
          -363 -918 -62 -154 -37 -82 -33 -67 rlinecurve
          815 461 rmoveto
          -438 hlineto
          218 573 rlineto
          hintmask 00101000
          -368 399 rmoveto
          750 150 -750 hlineto
          endchar
        </CharString>
        <CharString name="amacron.SngStory.SlantItalic">
          23 -25 170 -124 -21 880 160 200 150 hstemhm
          105 185 -70 750 -145 185 hintmask 01101010
          1075 hmoveto
          -39 112 -26 166 252 vvcurveto
          465 vlineto
          26 -101 -135 19 -129 hhcurveto
          -374 -166 -312 -318 hvcurveto
          hintmask 10101010
          -283 132 -152 168 209 157 268 227 84 vhcurveto
          -100 vlineto
          hintmask 01101010
          -88 16 -219 29 -63 vhcurveto
          -75 795 rmoveto
          hintmask 10101010
          -142 -214 -508 -176 -79 -66 110 155 241 79 229 261 100 62 -13 -7 33 vhcurveto
          hintmask 00010100
          -605 380 rmoveto
          750 150 -750 hlineto
          endchar
        </CharString>
        <CharString name="amacron.SngStory.SlantItalic.SC">
          176 21 -21 318 143 972 150 hstemhm
          40 1194 -967 750 hintmask 11010000
          242 hmoveto
          38 104 44 110 38 104 rrcurveto
          548 hlineto
          123 -318 rlineto
          201 hlineto
          -32 66 -39 84 -61 153 -363 918 rcurveline
          -204 hlineto
          -363 -918 -62 -154 -37 -82 -33 -67 rlinecurve
          815 461 rmoveto
          -438 hlineto
          218 573 rlineto
          hintmask 00101000
          -368 399 rmoveto
          750 150 -750 hlineto
          endchar
        </CharString>
        <CharString name="ampersand">
          95 -25 175 1200 135 hstemhm
          55 175 -75 160 315 160 hintmask 11011000
          490 1485 rmoveto
          -159 -176 -73 -222 -112 80 -118 102 -132 hvcurveto
          hintmask 11101000
          -195 -183 -87 -121 -149 vvcurveto
          -224 162 -176 223 140 145 79 99 118 vhcurveto
          -114 91 63 -64 28 hhcurveto
          35 78 63 32 37 hvcurveto
          -51 21 -70 63 -95 111 55 61 42 61 24 48 -105 135 rcurveline
          -21 -54 -43 -63 -54 -60 -61 80 -69 95 -77 112 -33 47 -33 45 -33 42 rrcurveto
          140 136 99 138 112 vvcurveto
          182 -148 103 -152 vhcurveto
          45 -915 rmoveto
          76 -108 69 -96 61 -82 rrcurveto
          -77 -96 -107 -57 -83 hhcurveto
          -145 -80 117 113 101 56 91 146 134 hvcurveto
          34 -44 35 -45 34 -47 rrcurveto
          hintmask 11011000
          -220 630 rmoveto
          91 83 59 77 80 75 -56 -89 -70 -66 -85 -111 -111 vhcurveto
          -79 103 -59 86 72 vvcurveto
          endchar
        </CharString>
        <CharString name="anoteleia">
          -448 575 268 hstem
          205 268 vstem
          205 709 rmoveto
          -74 60 -60 74 74 60 60 74 74 -60 60 -74 -74 -60 -60 -74 vhcurveto
          endchar
        </CharString>
        <CharString name="aogonek">
          -7 -430 115 290 165 -119 -21 495 140 245 160 hstemhm
          95 180 430 140 -80 185 hintmask 00000000
          hintmask 01011101
          950 760 rmoveto
          159 -150 121 -230 -152 -105 -46 -44 -103 vhcurveto
          -6 -43 -3 -108 -1 -44 rrcurveto
          82 117 102 43 106 hhcurveto
          150 90 -49 -121 hvcurveto
          -75 vlineto
          -41 -3 -160 -15 -69 -7 rrcurveto
          -309 -30 -91 -173 -152 vvcurveto
          -148 137 -132 188 124 133 54 126 118 vhcurveto
          hintmask 00111101
          14 -64 24 -59 12 -32 rrcurveto
          180 hlineto
          -44 112 -31 114 144 vvcurveto
          -185 -45 rmoveto
          hintmask 01011101
          -161 -121 -92 -24 -102 hhcurveto
          -110 -65 51 89 92 60 78 170 20 hvcurveto
          63 8 147 15 50 2 rrcurveto
          hintmask 10000010
          100 -495 rmoveto
          -104 -50 -56 -71 -104 vvcurveto
          -120 118 -85 122 74 73 32 58 58 vhcurveto
          -30 100 rlineto
          -44 -37 -75 -31 -43 hhcurveto
          -74 -46 45 75 70 57 60 103 65 hvcurveto
          endchar
        </CharString>
        <CharString name="aogonek.RetroHookStyle">
          -7 -470 135 310 165 -119 -21 495 140 245 160 hstemhm
          95 185 200 135 150 185 hintmask 10111111
          720 -335 rmoveto
          -57 -48 50 75 hvcurveto
          230 vlineto
          62 30 60 43 58 62 14 -64 24 -59 12 -32 rrcurveto
          180 hlineto
          -44 112 -31 114 144 vvcurveto
          390 vlineto
          159 -150 121 -230 -152 -105 -46 -44 -103 vhcurveto
          -6 -43 -3 -108 -1 -44 rrcurveto
          82 117 102 43 106 hhcurveto
          150 90 -49 -121 hvcurveto
          -75 vlineto
          -41 -3 -160 -15 -69 -7 rrcurveto
          -309 -30 -91 -173 -152 vvcurveto
          hintmask 11011111
          -148 137 -132 188 19 21 1 3 20 vhcurveto
          -199 vlineto
          -153 85 -97 120 69 68 17 38 53 vhcurveto
          -15 125 rlineto
          -28 -43 -41 -17 -56 hhcurveto
          45 660 rmoveto
          -161 -121 -92 -24 -102 hhcurveto
          -100 -70 61 79 92 55 78 170 20 hvcurveto
          63 8 147 15 50 2 rrcurveto
          endchar
        </CharString>
        <CharString name="aogonek.RetroHookStyle.SC">
          176 -446 135 332 -21 318 143 hstemhm
          40 1194 -660 135 hintmask 01110000
          242 hmoveto
          38 104 44 110 38 104 rrcurveto
          548 hlineto
          123 -318 rlineto
          201 hlineto
          -32 66 -39 84 -61 153 -363 918 rcurveline
          -204 hlineto
          -363 -918 -62 -154 -37 -82 -33 -67 rlinecurve
          815 461 rmoveto
          -438 hlineto
          218 573 rlineto
          hintmask 10001000
          319 -1300 rmoveto
          -28 -43 -41 -17 -56 hhcurveto
          -57 -48 50 75 hvcurveto
          250 -135 -260 vlineto
          -153 85 -97 120 69 68 17 38 53 vhcurveto
          endchar
        </CharString>
        <CharString name="aogonek.SC">
          176 -430 115 336 -21 318 143 hstemhm
          40 1194 -310 140 hintmask 01110000
          242 hmoveto
          38 104 44 110 38 104 rrcurveto
          548 hlineto
          123 -318 rlineto
          201 hlineto
          -32 66 -39 84 -61 153 -363 918 rcurveline
          -204 hlineto
          -363 -918 -62 -154 -37 -82 -33 -67 rlinecurve
          815 461 rmoveto
          -438 hlineto
          218 573 rlineto
          hintmask 10001000
          449 -1034 rmoveto
          -104 -50 -56 -71 -104 vvcurveto
          -120 118 -85 122 74 73 32 58 58 vhcurveto
          -30 100 rlineto
          -44 -37 -75 -31 -43 hhcurveto
          -74 -46 45 75 70 57 60 103 65 hvcurveto
          endchar
        </CharString>
        <CharString name="aogonek.SngStory">
          23 -430 115 290 170 -124 -21 880 160 hstemhm
          105 185 470 140 -75 185 hintmask 00111010
          1075 hmoveto
          -39 112 -26 166 252 vvcurveto
          465 vlineto
          26 -101 -135 19 -129 hhcurveto
          -374 -166 -312 -318 hvcurveto
          hintmask 01011010
          -283 132 -152 168 209 157 268 227 84 vhcurveto
          -100 vlineto
          hintmask 00111010
          -88 16 -219 29 -63 vhcurveto
          -75 795 rmoveto
          hintmask 01011010
          -142 -214 -508 -176 -79 -66 110 155 241 79 229 261 100 62 -13 -7 33 vhcurveto
          hintmask 10000100
          95 -860 rmoveto
          -104 -50 -56 -71 -104 vvcurveto
          -120 118 -85 122 74 73 32 58 58 vhcurveto
          -30 100 rlineto
          -44 -37 -75 -31 -43 hhcurveto
          -74 -46 45 75 70 57 60 103 65 hvcurveto
          endchar
        </CharString>
        <CharString name="aogonek.SngStory.RetroHookStyle">
          23 -470 135 310 170 -124 -21 880 160 hstemhm
          105 185 122 135 278 185 hintmask 00111010
          1075 hmoveto
          -39 112 -26 166 252 vvcurveto
          465 vlineto
          26 -101 -135 19 -129 hhcurveto
          -374 -166 -312 -318 hvcurveto
          hintmask 01011010
          -283 132 -152 168 209 157 268 227 84 vhcurveto
          -100 vlineto
          hintmask 00111010
          -88 16 -219 29 -63 vhcurveto
          -75 795 rmoveto
          hintmask 01011010
          -142 -214 -508 -176 -79 -66 110 155 241 79 229 261 100 62 -13 -7 33 vhcurveto
          hintmask 10000100
          -33 -1150 rmoveto
          -28 -43 -41 -17 -56 hhcurveto
          -57 -48 50 75 hvcurveto
          250 -135 -260 vlineto
          -153 85 -97 120 69 68 17 38 53 vhcurveto
          endchar
        </CharString>
        <CharString name="aogonek.SngStory.RetroHookStyle.SC">
          176 -446 135 332 -21 318 143 hstemhm
          40 1194 -660 135 hintmask 01110000
          242 hmoveto
          38 104 44 110 38 104 rrcurveto
          548 hlineto
          123 -318 rlineto
          201 hlineto
          -32 66 -39 84 -61 153 -363 918 rcurveline
          -204 hlineto
          -363 -918 -62 -154 -37 -82 -33 -67 rlinecurve
          815 461 rmoveto
          -438 hlineto
          218 573 rlineto
          hintmask 10001000
          319 -1300 rmoveto
          -28 -43 -41 -17 -56 hhcurveto
          -57 -48 50 75 hvcurveto
          250 -135 -260 vlineto
          -153 85 -97 120 69 68 17 38 53 vhcurveto
          endchar
        </CharString>
        <CharString name="aogonek.SngStory.SC">
          176 -430 115 336 -21 318 143 hstemhm
          40 1194 -310 140 hintmask 01110000
          242 hmoveto
          38 104 44 110 38 104 rrcurveto
          548 hlineto
          123 -318 rlineto
          201 hlineto
          -32 66 -39 84 -61 153 -363 918 rcurveline
          -204 hlineto
          -363 -918 -62 -154 -37 -82 -33 -67 rlinecurve
          815 461 rmoveto
          -438 hlineto
          218 573 rlineto
          hintmask 10001000
          449 -1034 rmoveto
          -104 -50 -56 -71 -104 vvcurveto
          -120 118 -85 122 74 73 32 58 58 vhcurveto
          -30 100 rlineto
          -44 -37 -75 -31 -43 hhcurveto
          -74 -46 45 75 70 57 60 103 65 hvcurveto
          endchar
        </CharString>
        <CharString name="approxequal">
          73 400 145 -15 145 95 145 -15 145 hstemhm
          110 980 hintmask 00000000
          hintmask 01011000
          1090 695 rmoveto
          hintmask 10011000
          -99 -83 -93 -51 -84 -108 -192 130 -140 hhcurveto
          hintmask 01011000
          -101 -122 -52 -78 -57 hvcurveto
          -165 vlineto
          99 83 93 51 84 108 192 -130 140 hhcurveto
          hintmask 10101000
          101 114 51 79 65 hvcurveto
          535 vmoveto
          -99 -83 -93 -51 -84 -108 -192 130 -140 hhcurveto
          hintmask 01011000
          -101 -122 -52 -78 -57 hvcurveto
          -165 vlineto
          99 83 93 51 84 108 192 -130 140 hhcurveto
          hintmask 01101000
          101 114 51 79 65 hvcurveto
          endchar
        </CharString>
        <CharString name="aring">
          -7 -25 165 -119 -21 495 140 245 160 130 115 200 115 hstemhm
          95 180 52 115 200 115 8 185 hintmask 0000000000000000
          hintmask 1011001001000000
          950 760 rmoveto
          159 -150 121 -230 -152 -105 -46 -44 -103 vhcurveto
          -6 -43 -3 -108 -1 -44 rrcurveto
          82 117 102 43 106 hhcurveto
          150 90 -49 -121 hvcurveto
          -75 vlineto
          -41 -3 -160 -15 -69 -7 rrcurveto
          -309 -30 -91 -173 -152 vvcurveto
          -148 137 -132 188 124 133 54 126 118 vhcurveto
          hintmask 0111001001000000
          14 -64 24 -59 12 -32 rrcurveto
          180 hlineto
          -44 112 -31 114 144 vvcurveto
          -185 -45 rmoveto
          hintmask 1011001001000000
          -161 -121 -92 -24 -102 hhcurveto
          -110 -65 51 89 92 60 78 170 20 hvcurveto
          63 8 147 15 50 2 rrcurveto
          hintmask 0000110110000000
          -123 890 rmoveto
          -60 -40 -40 -60 -60 -40 40 60 60 40 40 60 60 40 -40 -60 vhcurveto
          -315 hmoveto
          -120 95 -95 120 120 95 95 120 120 -95 95 -120 -120 -95 -95 -120 vhcurveto
          endchar
        </CharString>
        <CharString name="aring.2StorySlantItalic">
          -7 -25 165 -119 -21 495 140 245 160 130 115 200 115 hstemhm
          95 180 52 115 200 115 8 185 hintmask 0000000000000000
          hintmask 1011001001000000
          950 760 rmoveto
          159 -150 121 -230 -152 -105 -46 -44 -103 vhcurveto
          -6 -43 -3 -108 -1 -44 rrcurveto
          82 117 102 43 106 hhcurveto
          150 90 -49 -121 hvcurveto
          -75 vlineto
          -41 -3 -160 -15 -69 -7 rrcurveto
          -309 -30 -91 -173 -152 vvcurveto
          -148 137 -132 188 124 133 54 126 118 vhcurveto
          hintmask 0111001001000000
          14 -64 24 -59 12 -32 rrcurveto
          180 hlineto
          -44 112 -31 114 144 vvcurveto
          -185 -45 rmoveto
          hintmask 1011001001000000
          -161 -121 -92 -24 -102 hhcurveto
          -110 -65 51 89 92 60 78 170 20 hvcurveto
          63 8 147 15 50 2 rrcurveto
          hintmask 0000110110000000
          -123 890 rmoveto
          -60 -40 -40 -60 -60 -40 40 60 60 40 40 60 60 40 -40 -60 vhcurveto
          -315 hmoveto
          -120 95 -95 120 120 95 95 120 120 -95 95 -120 -120 -95 -95 -120 vhcurveto
          endchar
        </CharString>
        <CharString name="aring.2StorySlantItalic.SC">
          176 21 -21 318 143 902 115 200 115 hstemhm
          40 1194 -805 115 200 115 hintmask 11001000
          242 hmoveto
          38 104 44 110 38 104 rrcurveto
          548 hlineto
          123 -318 rlineto
          201 hlineto
          -32 66 -39 84 -61 153 -363 918 rcurveline
          -204 hlineto
          -363 -918 -62 -154 -37 -82 -33 -67 rlinecurve
          815 461 rmoveto
          -438 hlineto
          218 573 rlineto
          hintmask 00110110
          109 544 rmoveto
          -60 -40 -40 -60 -60 -40 40 60 60 40 40 60 60 40 -40 -60 vhcurveto
          -315 hmoveto
          -120 95 -95 120 120 95 95 120 120 -95 95 -120 -120 -95 -95 -120 vhcurveto
          endchar
        </CharString>
        <CharString name="aring.SC">
          176 21 -21 318 143 902 115 200 115 hstemhm
          40 1194 -805 115 200 115 hintmask 11001000
          242 hmoveto
          38 104 44 110 38 104 rrcurveto
          548 hlineto
          123 -318 rlineto
          201 hlineto
          -32 66 -39 84 -61 153 -363 918 rcurveline
          -204 hlineto
          -363 -918 -62 -154 -37 -82 -33 -67 rlinecurve
          815 461 rmoveto
          -438 hlineto
          218 573 rlineto
          hintmask 00110110
          109 544 rmoveto
          -60 -40 -40 -60 -60 -40 40 60 60 40 40 60 60 40 -40 -60 vhcurveto
          -315 hmoveto
          -120 95 -95 120 120 95 95 120 120 -95 95 -120 -120 -95 -95 -120 vhcurveto
          endchar
        </CharString>
        <CharString name="aring.SngStory">
          23 -25 170 -124 -21 880 160 130 115 200 115 hstemhm
          105 185 92 115 200 115 13 185 hintmask 0110010010000000
          1075 hmoveto
          -39 112 -26 166 252 vvcurveto
          465 vlineto
          26 -101 -135 19 -129 hhcurveto
          -374 -166 -312 -318 hvcurveto
          hintmask 1010010010000000
          -283 132 -152 168 209 157 268 227 84 vhcurveto
          -100 vlineto
          hintmask 0110010010000000
          -88 16 -219 29 -63 vhcurveto
          -75 795 rmoveto
          hintmask 1010010010000000
          -142 -214 -508 -176 -79 -66 110 155 241 79 229 261 100 62 -13 -7 33 vhcurveto
          hintmask 0001101100000000
          -128 525 rmoveto
          -60 -40 -40 -60 -60 -40 40 60 60 40 40 60 60 40 -40 -60 vhcurveto
          -315 hmoveto
          -120 95 -95 120 120 95 95 120 120 -95 95 -120 -120 -95 -95 -120 vhcurveto
          endchar
        </CharString>
        <CharString name="aring.SngStory.SC">
          176 21 -21 318 143 902 115 200 115 hstemhm
          40 1194 -805 115 200 115 hintmask 11001000
          242 hmoveto
          38 104 44 110 38 104 rrcurveto
          548 hlineto
          123 -318 rlineto
          201 hlineto
          -32 66 -39 84 -61 153 -363 918 rcurveline
          -204 hlineto
          -363 -918 -62 -154 -37 -82 -33 -67 rlinecurve
          815 461 rmoveto
          -438 hlineto
          218 573 rlineto
          hintmask 00110110
          109 544 rmoveto
          -60 -40 -40 -60 -60 -40 40 60 60 40 40 60 60 40 -40 -60 vhcurveto
          -315 hmoveto
          -120 95 -95 120 120 95 95 120 120 -95 95 -120 -120 -95 -95 -120 vhcurveto
          endchar
        </CharString>
        <CharString name="aring.SngStory.SlantItalic.SC">
          176 21 -21 318 143 902 115 200 115 hstemhm
          40 1194 -805 115 200 115 hintmask 11001000
          242 hmoveto
          38 104 44 110 38 104 rrcurveto
          548 hlineto
          123 -318 rlineto
          201 hlineto
          -32 66 -39 84 -61 153 -363 918 rcurveline
          -204 hlineto
          -363 -918 -62 -154 -37 -82 -33 -67 rlinecurve
          815 461 rmoveto
          -438 hlineto
          218 573 rlineto
          hintmask 00110110
          109 544 rmoveto
          -60 -40 -40 -60 -60 -40 40 60 60 40 40 60 60 40 -40 -60 vhcurveto
          -315 hmoveto
          -120 95 -95 120 120 95 95 120 120 -95 95 -120 -120 -95 -95 -120 vhcurveto
          endchar
        </CharString>
        <CharString name="aringacute">
          -7 -25 165 -119 -21 495 140 245 160 130 115 200 115 535 -20 hstemhm
          95 180 52 115 -80 580 -300 115 8 185 hintmask 0000000000000000
          hintmask 1011000100010000
          950 760 rmoveto
          159 -150 121 -230 -152 -105 -46 -44 -103 vhcurveto
          -6 -43 -3 -108 -1 -44 rrcurveto
          82 117 102 43 106 hhcurveto
          150 90 -49 -121 hvcurveto
          -75 vlineto
          -41 -3 -160 -15 -69 -7 rrcurveto
          -309 -30 -91 -173 -152 vvcurveto
          -148 137 -132 188 124 133 54 126 118 vhcurveto
          hintmask 0111000100010000
          14 -64 24 -59 12 -32 rrcurveto
          180 hlineto
          -44 112 -31 114 144 vvcurveto
          -185 -45 rmoveto
          hintmask 1011000100010000
          -161 -121 -92 -24 -102 hhcurveto
          -110 -65 51 89 92 60 78 170 20 hvcurveto
          63 8 147 15 50 2 rrcurveto
          hintmask 0000110010100000
          -123 890 rmoveto
          -60 -40 -40 -60 -60 -40 40 60 60 40 40 60 60 40 -40 -60 vhcurveto
          -315 hmoveto
          -120 95 -95 120 120 95 95 120 120 -95 95 -120 -120 -95 -95 -120 vhcurveto
          hintmask 0000001001000000
          385 750 rmoveto
          -350 -430 rlineto
          160 hlineto
          420 430 rlineto
          endchar
        </CharString>
        <CharString name="aringacute.2StorySlantItalic">
          -7 -25 165 -119 -21 495 140 245 160 130 115 200 115 535 -20 hstemhm
          95 180 52 115 -80 580 -300 115 8 185 hintmask 0000000000000000
          hintmask 1011000100010000
          950 760 rmoveto
          159 -150 121 -230 -152 -105 -46 -44 -103 vhcurveto
          -6 -43 -3 -108 -1 -44 rrcurveto
          82 117 102 43 106 hhcurveto
          150 90 -49 -121 hvcurveto
          -75 vlineto
          -41 -3 -160 -15 -69 -7 rrcurveto
          -309 -30 -91 -173 -152 vvcurveto
          -148 137 -132 188 124 133 54 126 118 vhcurveto
          hintmask 0111000100010000
          14 -64 24 -59 12 -32 rrcurveto
          180 hlineto
          -44 112 -31 114 144 vvcurveto
          -185 -45 rmoveto
          hintmask 1011000100010000
          -161 -121 -92 -24 -102 hhcurveto
          -110 -65 51 89 92 60 78 170 20 hvcurveto
          63 8 147 15 50 2 rrcurveto
          hintmask 0000110010100000
          -123 890 rmoveto
          -60 -40 -40 -60 -60 -40 40 60 60 40 40 60 60 40 -40 -60 vhcurveto
          -315 hmoveto
          -120 95 -95 120 120 95 95 120 120 -95 95 -120 -120 -95 -95 -120 vhcurveto
          hintmask 0000001001000000
          385 750 rmoveto
          -350 -430 rlineto
          160 hlineto
          420 430 rlineto
          endchar
        </CharString>
        <CharString name="aringacute.2StorySlantItalic.SC">
          176 21 -21 318 143 902 115 200 115 535 -20 hstemhm
          40 1194 -805 115 -80 580 -300 115 hintmask 1100010000000000
          242 hmoveto
          38 104 44 110 38 104 rrcurveto
          548 hlineto
          123 -318 rlineto
          201 hlineto
          -32 66 -39 84 -61 153 -363 918 rcurveline
          -204 hlineto
          -363 -918 -62 -154 -37 -82 -33 -67 rlinecurve
          815 461 rmoveto
          -438 hlineto
          218 573 rlineto
          hintmask 0011001010000000
          109 544 rmoveto
          -60 -40 -40 -60 -60 -40 40 60 60 40 40 60 60 40 -40 -60 vhcurveto
          -315 hmoveto
          -120 95 -95 120 120 95 95 120 120 -95 95 -120 -120 -95 -95 -120 vhcurveto
          hintmask 0000100100000000
          385 750 rmoveto
          -350 -430 rlineto
          160 hlineto
          420 430 rlineto
          endchar
        </CharString>
        <CharString name="aringacute.SC">
          176 21 -21 318 143 902 115 200 115 535 -20 hstemhm
          40 1194 -805 115 -80 580 -300 115 hintmask 1100010000000000
          242 hmoveto
          38 104 44 110 38 104 rrcurveto
          548 hlineto
          123 -318 rlineto
          201 hlineto
          -32 66 -39 84 -61 153 -363 918 rcurveline
          -204 hlineto
          -363 -918 -62 -154 -37 -82 -33 -67 rlinecurve
          815 461 rmoveto
          -438 hlineto
          218 573 rlineto
          hintmask 0011001010000000
          109 544 rmoveto
          -60 -40 -40 -60 -60 -40 40 60 60 40 40 60 60 40 -40 -60 vhcurveto
          -315 hmoveto
          -120 95 -95 120 120 95 95 120 120 -95 95 -120 -120 -95 -95 -120 vhcurveto
          hintmask 0000100100000000
          385 750 rmoveto
          -350 -430 rlineto
          160 hlineto
          420 430 rlineto
          endchar
        </CharString>
        <CharString name="aringacute.SngStory">
          23 -25 170 -124 -21 880 160 130 115 200 115 535 -20 hstemhm
          105 185 92 115 -80 580 -300 115 13 185 hintmask 0110001000100000
          1075 hmoveto
          -39 112 -26 166 252 vvcurveto
          465 vlineto
          26 -101 -135 19 -129 hhcurveto
          -374 -166 -312 -318 hvcurveto
          hintmask 1010001000100000
          -283 132 -152 168 209 157 268 227 84 vhcurveto
          -100 vlineto
          hintmask 0110001000100000
          -88 16 -219 29 -63 vhcurveto
          -75 795 rmoveto
          hintmask 1010001000100000
          -142 -214 -508 -176 -79 -66 110 155 241 79 229 261 100 62 -13 -7 33 vhcurveto
          hintmask 0001100101000000
          -128 525 rmoveto
          -60 -40 -40 -60 -60 -40 40 60 60 40 40 60 60 40 -40 -60 vhcurveto
          -315 hmoveto
          -120 95 -95 120 120 95 95 120 120 -95 95 -120 -120 -95 -95 -120 vhcurveto
          hintmask 0000010010000000
          385 750 rmoveto
          -350 -430 rlineto
          160 hlineto
          420 430 rlineto
          endchar
        </CharString>
        <CharString name="aringacute.SngStory.SC">
          176 21 -21 318 143 902 115 200 115 535 -20 hstemhm
          40 1194 -805 115 -80 580 -300 115 hintmask 1100010000000000
          242 hmoveto
          38 104 44 110 38 104 rrcurveto
          548 hlineto
          123 -318 rlineto
          201 hlineto
          -32 66 -39 84 -61 153 -363 918 rcurveline
          -204 hlineto
          -363 -918 -62 -154 -37 -82 -33 -67 rlinecurve
          815 461 rmoveto
          -438 hlineto
          218 573 rlineto
          hintmask 0011001010000000
          109 544 rmoveto
          -60 -40 -40 -60 -60 -40 40 60 60 40 40 60 60 40 -40 -60 vhcurveto
          -315 hmoveto
          -120 95 -95 120 120 95 95 120 120 -95 95 -120 -120 -95 -95 -120 vhcurveto
          hintmask 0000100100000000
          385 750 rmoveto
          -350 -430 rlineto
          160 hlineto
          420 430 rlineto
          endchar
        </CharString>
        <CharString name="aringacute.SngStory.SlantItalic">
          23 -25 170 -124 -21 880 160 130 115 200 115 535 -20 hstemhm
          105 185 92 115 -80 580 -300 115 13 185 hintmask 0110001000100000
          1075 hmoveto
          -39 112 -26 166 252 vvcurveto
          465 vlineto
          26 -101 -135 19 -129 hhcurveto
          -374 -166 -312 -318 hvcurveto
          hintmask 1010001000100000
          -283 132 -152 168 209 157 268 227 84 vhcurveto
          -100 vlineto
          hintmask 0110001000100000
          -88 16 -219 29 -63 vhcurveto
          -75 795 rmoveto
          hintmask 1010001000100000
          -142 -214 -508 -176 -79 -66 110 155 241 79 229 261 100 62 -13 -7 33 vhcurveto
          hintmask 0001100101000000
          -128 525 rmoveto
          -60 -40 -40 -60 -60 -40 40 60 60 40 40 60 60 40 -40 -60 vhcurveto
          -315 hmoveto
          -120 95 -95 120 120 95 95 120 120 -95 95 -120 -120 -95 -95 -120 vhcurveto
          hintmask 0000010010000000
          385 750 rmoveto
          -350 -430 rlineto
          160 hlineto
          420 430 rlineto
          endchar
        </CharString>
</ttFont>
